<svg width="62" height="70" viewBox="0 0 62 70" fill="none" xmlns="http://www.w3.org/2000/svg">
<path fill-rule="evenodd" clip-rule="evenodd" d="M13.125 6.5625H8.75001C6.42936 6.5625 4.20376 7.48437 2.56282 9.12532C0.921873 10.7663 0 12.9919 0 15.3125V61.25C0 63.5707 0.921873 65.7963 2.56282 67.4372C4.20376 69.0782 6.42936 70.0001 8.75001 70.0001H52.5C54.8207 70.0001 57.0463 69.0782 58.6872 67.4372C60.3282 65.7963 61.25 63.5707 61.25 61.25V15.3125C61.25 12.9919 60.3282 10.7663 58.6872 9.12532C57.0463 7.48437 54.8207 6.5625 52.5 6.5625H48.125V10.9375H52.5C53.6604 10.9375 54.7732 11.3984 55.5936 12.2189C56.4141 13.0394 56.875 14.1522 56.875 15.3125V61.25C56.875 62.4104 56.4141 63.5232 55.5936 64.3436C54.7732 65.1641 53.6604 65.6251 52.5 65.6251H8.75001C7.58968 65.6251 6.47688 65.1641 5.65641 64.3436C4.83594 63.5232 4.375 62.4104 4.375 61.25V15.3125C4.375 14.1522 4.83594 13.0394 5.65641 12.2189C6.47688 11.3984 7.58968 10.9375 8.75001 10.9375H13.125V6.5625Z" fill="white"/>
<path fill-rule="evenodd" clip-rule="evenodd" d="M37.1878 4.375H24.0627C23.4826 4.375 22.9262 4.60547 22.516 5.01571C22.1057 5.42594 21.8752 5.98234 21.8752 6.5625V10.9375C21.8752 11.5177 22.1057 12.0741 22.516 12.4843C22.9262 12.8945 23.4826 13.125 24.0627 13.125H37.1878C37.7679 13.125 38.3243 12.8945 38.7346 12.4843C39.1448 12.0741 39.3753 11.5177 39.3753 10.9375V6.5625C39.3753 5.98234 39.1448 5.42594 38.7346 5.01571C38.3243 4.60547 37.7679 4.375 37.1878 4.375ZM24.0627 0C22.3223 0 20.6531 0.691405 19.4224 1.92211C18.1916 3.15282 17.5002 4.82202 17.5002 6.5625V10.9375C17.5002 12.678 18.1916 14.3472 19.4224 15.5779C20.6531 16.8086 22.3223 17.5 24.0627 17.5H37.1878C38.9282 17.5 40.5974 16.8086 41.8282 15.5779C43.0589 14.3472 43.7503 12.678 43.7503 10.9375V6.5625C43.7503 4.82202 43.0589 3.15282 41.8282 1.92211C40.5974 0.691405 38.9282 0 37.1878 0L24.0627 0ZM43.1115 31.2638C43.3152 31.467 43.4769 31.7084 43.5871 31.9741C43.6974 32.2399 43.7542 32.5248 43.7542 32.8125C43.7542 33.1003 43.6974 33.3852 43.5871 33.6509C43.4769 33.9167 43.3152 34.1581 43.1115 34.3613L29.9865 47.4863C29.7833 47.69 29.5419 47.8516 29.2762 47.9619C29.0104 48.0722 28.7255 48.1289 28.4378 48.1289C28.15 48.1289 27.8651 48.0722 27.5994 47.9619C27.3336 47.8516 27.0922 47.69 26.889 47.4863L20.3265 40.9238C20.1231 40.7204 19.9618 40.4789 19.8517 40.2132C19.7416 39.9475 19.685 39.6627 19.685 39.375C19.685 39.0874 19.7416 38.8026 19.8517 38.5368C19.9618 38.2711 20.1231 38.0297 20.3265 37.8263C20.7373 37.4155 21.2944 37.1848 21.8752 37.1848C22.1629 37.1848 22.4477 37.2414 22.7134 37.3515C22.9792 37.4616 23.2206 37.6229 23.424 37.8263L28.4378 42.8444L40.014 31.2638C40.2172 31.0601 40.4586 30.8984 40.7244 30.7882C40.9901 30.6779 41.275 30.6211 41.5628 30.6211C41.8505 30.6211 42.1354 30.6779 42.4012 30.7882C42.6669 30.8984 42.9083 31.0601 43.1115 31.2638Z" fill="white"/>
</svg>
