<svg width="62" height="70" viewBox="0 0 62 70" fill="none" xmlns="http://www.w3.org/2000/svg">
<path fill-rule="evenodd" clip-rule="evenodd" d="M13.125 6.5625H8.75C6.42936 6.5625 4.20376 7.48437 2.56282 9.12532C0.921872 10.7663 0 12.9919 0 15.3125V61.25C0 63.5706 0.921872 65.7962 2.56282 67.4372C4.20376 69.0781 6.42936 70 8.75 70H52.5C54.8206 70 57.0462 69.0781 58.6872 67.4372C60.3281 65.7962 61.25 63.5706 61.25 61.25V15.3125C61.25 12.9919 60.3281 10.7663 58.6872 9.12532C57.0462 7.48437 54.8206 6.5625 52.5 6.5625H48.125V10.9375H52.5C53.6603 10.9375 54.7731 11.3984 55.5936 12.2189C56.4141 13.0394 56.875 14.1522 56.875 15.3125V61.25C56.875 62.4103 56.4141 63.5231 55.5936 64.3436C54.7731 65.1641 53.6603 65.625 52.5 65.625H8.75C7.58968 65.625 6.47688 65.1641 5.65641 64.3436C4.83594 63.5231 4.375 62.4103 4.375 61.25V15.3125C4.375 14.1522 4.83594 13.0394 5.65641 12.2189C6.47688 11.3984 7.58968 10.9375 8.75 10.9375H13.125V6.5625Z" fill="white"/>
<path fill-rule="evenodd" clip-rule="evenodd" d="M37.1875 4.375H24.0625C23.4823 4.375 22.9259 4.60547 22.5157 5.0157C22.1055 5.42594 21.875 5.98234 21.875 6.5625V10.9375C21.875 11.5177 22.1055 12.0741 22.5157 12.4843C22.9259 12.8945 23.4823 13.125 24.0625 13.125H37.1875C37.7677 13.125 38.3241 12.8945 38.7343 12.4843C39.1445 12.0741 39.375 11.5177 39.375 10.9375V6.5625C39.375 5.98234 39.1445 5.42594 38.7343 5.0157C38.3241 4.60547 37.7677 4.375 37.1875 4.375ZM24.0625 0C22.322 0 20.6528 0.691404 19.4221 1.92211C18.1914 3.15282 17.5 4.82202 17.5 6.5625V10.9375C17.5 12.678 18.1914 14.3472 19.4221 15.5779C20.6528 16.8086 22.322 17.5 24.0625 17.5H37.1875C38.928 17.5 40.5972 16.8086 41.8279 15.5779C43.0586 14.3472 43.75 12.678 43.75 10.9375V6.5625C43.75 4.82202 43.0586 3.15282 41.8279 1.92211C40.5972 0.691404 38.928 0 37.1875 0L24.0625 0ZM19.6875 41.5625C19.6875 40.9823 19.918 40.4259 20.3282 40.0157C20.7384 39.6055 21.2948 39.375 21.875 39.375H39.375C39.9552 39.375 40.5116 39.6055 40.9218 40.0157C41.332 40.4259 41.5625 40.9823 41.5625 41.5625C41.5625 42.1427 41.332 42.6991 40.9218 43.1093C40.5116 43.5195 39.9552 43.75 39.375 43.75H21.875C21.2948 43.75 20.7384 43.5195 20.3282 43.1093C19.918 42.6991 19.6875 42.1427 19.6875 41.5625Z" fill="white"/>
</svg>
