<svg width="63" height="70" viewBox="0 0 63 70" fill="none" xmlns="http://www.w3.org/2000/svg">
<path fill-rule="evenodd" clip-rule="evenodd" d="M19.4445 6.958C15.1768 8.10531 10.9367 9.35321 6.72784 10.7007C6.34695 10.8182 6.00695 11.0409 5.74692 11.343C5.48689 11.6452 5.31737 12.0145 5.25784 12.4087C2.7705 30.5947 8.5105 43.8667 15.3565 52.6073C18.7912 56.994 22.5105 60.242 25.6092 62.3747C27.1632 63.4387 28.5305 64.2133 29.6085 64.708C30.1498 64.9553 30.5885 65.1233 30.9245 65.2213C31.0727 65.269 31.2239 65.3064 31.3772 65.3333C31.4098 65.3287 31.5545 65.31 31.8298 65.226C32.1658 65.1233 32.6045 64.9553 33.1458 64.708C34.2192 64.2133 35.5958 63.4387 37.1452 62.3747C41.0307 59.6484 44.4865 56.3562 47.3978 52.6073C54.2438 43.8667 59.9838 30.5947 57.4965 12.4087C57.437 12.0145 57.2675 11.6452 57.0074 11.343C56.7474 11.0409 56.4074 10.8182 56.0265 10.7007C53.1052 9.76733 48.1772 8.246 43.3098 6.958C38.3352 5.64667 33.7572 4.66667 31.3772 4.66667C28.9972 4.66667 24.4238 5.64667 19.4445 6.958ZM18.2498 2.45C23.1172 1.162 28.2832 0 31.3772 0C34.4665 0 39.6372 1.162 44.5045 2.45C48.8459 3.61562 53.1591 4.88375 57.4405 6.25333C59.9045 7.03733 61.7618 9.16067 62.1212 11.7787C64.7952 31.3647 58.5932 45.878 51.0752 55.482C47.8714 59.6036 44.0678 63.2216 39.7912 66.2153C38.3041 67.257 36.7321 68.1717 35.0918 68.95C33.8318 69.5287 32.4878 70 31.3772 70C30.2665 70 28.9225 69.5287 27.6625 68.95C26.0218 68.1724 24.4498 67.2576 22.9632 66.2153C18.6882 63.2212 14.8862 59.6032 11.6838 55.482C4.1565 45.878 -2.04083 31.3647 0.633169 11.7787C0.811953 10.5097 1.34645 9.31724 2.17481 8.3394C3.00316 7.36157 4.09149 6.63831 5.31384 6.25333C9.59526 4.88378 13.9085 3.61565 18.2498 2.45Z" fill="white"/>
<path fill-rule="evenodd" clip-rule="evenodd" d="M44.6963 26.3482C44.9136 26.565 45.086 26.8225 45.2036 27.1059C45.3212 27.3894 45.3818 27.6933 45.3818 28.0002C45.3818 28.3071 45.3212 28.611 45.2036 28.8945C45.086 29.178 44.9136 29.4355 44.6963 29.6522L30.6963 43.6522C30.4795 43.8695 30.2221 44.0419 29.9386 44.1595C29.6551 44.2772 29.3512 44.3377 29.0443 44.3377C28.7374 44.3377 28.4335 44.2772 28.15 44.1595C27.8665 44.0419 27.609 43.8695 27.3923 43.6522L20.3923 36.6522C20.1753 36.4353 20.0033 36.1777 19.8858 35.8943C19.7684 35.6108 19.708 35.307 19.708 35.0002C19.708 34.6934 19.7684 34.3896 19.8858 34.1062C20.0033 33.8227 20.1753 33.5652 20.3923 33.3482C20.6092 33.1313 20.8668 32.9592 21.1502 32.8418C21.4337 32.7244 21.7375 32.6639 22.0443 32.6639C22.3511 32.6639 22.6549 32.7244 22.9383 32.8418C23.2218 32.9592 23.4793 33.1313 23.6963 33.3482L29.0443 38.7009L41.3923 26.3482C41.609 26.1309 41.8665 25.9585 42.15 25.8409C42.4335 25.7233 42.7374 25.6627 43.0443 25.6627C43.3512 25.6627 43.6551 25.7233 43.9386 25.8409C44.2221 25.9585 44.4795 26.1309 44.6963 26.3482Z" fill="white"/>
</svg>
