<svg width="71" height="70" viewBox="0 0 71 70" fill="none" xmlns="http://www.w3.org/2000/svg">
<path d="M28.3443 48.6179H38.2992C39.7617 48.6179 40.9479 49.6422 40.9479 50.9068V51.4697C40.9479 52.733 39.7617 53.7586 38.2992 53.7586H28.3443C26.8818 53.7586 25.6956 52.7343 25.6956 51.4697V50.9068C25.6968 49.6422 26.8818 48.6179 28.3443 48.6179Z" fill="white"/>
<path d="M16.6095 54.3541C18.3571 54.0508 19.528 52.3882 19.2247 50.6405C18.9214 48.8928 17.2588 47.722 15.5111 48.0253C13.7634 48.3286 12.5926 49.9912 12.8959 51.7389C13.1992 53.4865 14.8618 54.6574 16.6095 54.3541Z" fill="white"/>
<path d="M49.3606 23.282H27.9844C26.7211 23.282 25.6956 24.3063 25.6956 25.5709V26.1338C25.6956 27.3971 26.7198 28.4226 27.9844 28.4226H49.3606C50.6239 28.4226 51.6495 27.3984 51.6495 26.1338V25.5709C51.6495 24.3063 50.6239 23.282 49.3606 23.282Z" fill="white"/>
<path d="M16.5972 29.0189C18.3459 28.7218 19.5227 27.0633 19.2256 25.3146C18.9285 23.5658 17.27 22.3891 15.5213 22.6862C13.7726 22.9833 12.5958 24.6417 12.8929 26.3905C13.19 28.1392 14.8485 29.316 16.5972 29.0189Z" fill="white"/>
<path d="M49.3606 35.9497H27.9844C26.7211 35.9497 25.6956 36.974 25.6956 38.2386V38.8015C25.6956 40.0648 26.7198 41.0904 27.9844 41.0904H49.3606C50.6239 41.0904 51.6495 40.0661 51.6495 38.8015V38.2386C51.6495 36.974 50.6239 35.9497 49.3606 35.9497Z" fill="white"/>
<path d="M16.5815 41.6867C18.3317 41.3988 19.5171 39.7467 19.2292 37.9965C18.9413 36.2464 17.2892 35.061 15.539 35.3489C13.7889 35.6367 12.6035 37.2889 12.8914 39.039C13.1792 40.7892 14.8314 41.9746 16.5815 41.6867Z" fill="white"/>
<path d="M49.3606 11.2568H27.9844C26.7211 11.2568 25.6956 12.2811 25.6956 13.5457V14.1086C25.6956 15.3719 26.7198 16.3975 27.9844 16.3975H49.3606C50.6239 16.3975 51.6495 15.3732 51.6495 14.1086V13.5457C51.6495 12.2811 50.6239 11.2568 49.3606 11.2568Z" fill="white"/>
<path d="M16.0593 11.3057C14.2858 11.3057 12.8477 12.7438 12.8477 14.5173C12.8477 16.2908 14.2858 17.7302 16.0593 17.7302C17.8328 17.7302 19.2709 16.2921 19.2709 14.5173C19.2722 12.7438 17.8341 11.3057 16.0593 11.3057Z" fill="white"/>
<path d="M5.13937 55.7851V9.99729C5.13937 7.31387 7.31387 5.13937 9.99729 5.13937H55.7851C58.4685 5.13937 60.643 7.31387 60.643 9.99729V38.3133C60.643 39.5766 61.6673 40.6022 62.9319 40.6022H63.4948C64.7581 40.6022 65.7837 39.5779 65.7837 38.3133V9.99729C65.7824 4.47623 61.3062 0 55.7838 0H9.99729C4.47623 0 0 4.47623 0 9.99729V55.7851C0 61.3062 4.47623 65.7824 9.99729 65.7824H38.5691C39.8324 65.7824 40.8579 64.7581 40.8579 63.4935V62.9306C40.8579 61.6673 39.8337 60.6418 38.5691 60.6418H9.99729C7.31387 60.643 5.13937 58.4673 5.13937 55.7851Z" fill="white"/>
<path d="M66.047 62.2843C67.354 60.3167 68.0776 57.9301 67.9632 55.3714C67.6972 49.4313 62.8894 44.6171 56.9493 44.3472C50.1483 44.0375 44.5488 49.6395 44.8611 56.4419C45.1348 62.3832 49.9503 67.1884 55.8917 67.4506C58.2461 67.5547 60.4553 66.9494 62.3252 65.8326L65.8208 69.3282C66.7166 70.224 68.1701 70.224 69.0659 69.3282L69.4553 68.9388C70.351 68.0431 70.351 66.5896 69.4553 65.6938L66.047 62.2843ZM56.9982 62.2958C52.9962 62.6531 49.6573 59.3142 50.0133 55.3122C50.2871 52.2446 52.7571 49.7732 55.8248 49.5007C59.8268 49.1435 63.1657 52.4836 62.8084 56.4856C62.5372 59.552 60.0659 62.0234 56.9982 62.2958Z" fill="white"/>
</svg>
