<svg width="60" height="70" viewBox="0 0 60 70" fill="none" xmlns="http://www.w3.org/2000/svg">
<path d="M10 0H35V5H10C8.67392 5 7.40215 5.52678 6.46447 6.46447C5.52678 7.40215 5 8.67392 5 10V60C5 61.3261 5.52678 62.5979 6.46447 63.5355C7.40215 64.4732 8.67392 65 10 65H50C51.3261 65 52.5979 64.4732 53.5355 63.5355C54.4732 62.5979 55 61.3261 55 60V25H60V60C60 62.6522 58.9464 65.1957 57.0711 67.0711C55.1957 68.9464 52.6522 70 50 70H10C7.34784 70 4.8043 68.9464 2.92893 67.0711C1.05357 65.1957 0 62.6522 0 60V10C0 7.34784 1.05357 4.8043 2.92893 2.92893C4.8043 1.05357 7.34784 0 10 0Z" fill="white"/>
<path d="M35 17.5V0L60 25H42.5C40.5109 25 38.6032 24.2098 37.1967 22.8033C35.7902 21.3968 35 19.4891 35 17.5Z" fill="white"/>
<path fill-rule="evenodd" clip-rule="evenodd" d="M25 15C25.663 15 26.2989 15.2634 26.7678 15.7322C27.2366 16.2011 27.5 16.837 27.5 17.5V20.67L30.245 19.085C30.5294 18.9183 30.844 18.8094 31.1707 18.7648C31.4973 18.7201 31.8296 18.7405 32.1484 18.8248C32.4671 18.909 32.766 19.0555 33.028 19.2558C33.2899 19.4561 33.5096 19.7062 33.6744 19.9917C33.8393 20.2772 33.946 20.5925 33.9885 20.9195C34.031 21.2464 34.0084 21.5785 33.922 21.8967C33.8356 22.2149 33.6872 22.5129 33.4852 22.7734C33.2832 23.034 33.0316 23.252 32.745 23.415L30 25L32.745 26.585C33.0316 26.748 33.2832 26.966 33.4852 27.2266C33.6872 27.4871 33.8356 27.7851 33.922 28.1033C34.0084 28.4215 34.031 28.7536 33.9885 29.0805C33.946 29.4075 33.8393 29.7228 33.6744 30.0083C33.5096 30.2938 33.2899 30.5439 33.028 30.7442C32.766 30.9445 32.4671 31.091 32.1484 31.1752C31.8296 31.2595 31.4973 31.2799 31.1707 31.2352C30.844 31.1906 30.5294 31.0817 30.245 30.915L27.5 29.33V32.5C27.5 33.163 27.2366 33.7989 26.7678 34.2678C26.2989 34.7366 25.663 35 25 35C24.337 35 23.7011 34.7366 23.2322 34.2678C22.7634 33.7989 22.5 33.163 22.5 32.5V29.33L19.755 30.915C19.4706 31.0817 19.156 31.1906 18.8293 31.2352C18.5027 31.2799 18.1704 31.2595 17.8516 31.1752C17.5329 31.091 17.234 30.9445 16.9721 30.7442C16.7101 30.5439 16.4904 30.2938 16.3256 30.0083C16.1607 29.7228 16.054 29.4075 16.0115 29.0805C15.969 28.7536 15.9916 28.4215 16.078 28.1033C16.1644 27.7851 16.3128 27.4871 16.5148 27.2266C16.7168 26.966 16.9684 26.748 17.255 26.585L20 25L17.255 23.415C16.6855 23.0811 16.2711 22.5355 16.1024 21.8973C15.9337 21.2591 16.0242 20.58 16.3543 20.0083C16.6844 19.4365 17.2272 19.0186 17.8643 18.8456C18.5014 18.6727 19.1811 18.7587 19.755 19.085L22.5 20.67V17.5C22.5 16.837 22.7634 16.2011 23.2322 15.7322C23.7011 15.2634 24.337 15 25 15ZM15 42.5C15 41.837 15.2634 41.2011 15.7322 40.7322C16.2011 40.2634 16.837 40 17.5 40H42.5C43.163 40 43.7989 40.2634 44.2678 40.7322C44.7366 41.2011 45 41.837 45 42.5C45 43.163 44.7366 43.7989 44.2678 44.2678C43.7989 44.7366 43.163 45 42.5 45H17.5C16.837 45 16.2011 44.7366 15.7322 44.2678C15.2634 43.7989 15 43.163 15 42.5ZM15 52.5C15 51.837 15.2634 51.2011 15.7322 50.7322C16.2011 50.2634 16.837 50 17.5 50H42.5C43.163 50 43.7989 50.2634 44.2678 50.7322C44.7366 51.2011 45 51.837 45 52.5C45 53.163 44.7366 53.7989 44.2678 54.2678C43.7989 54.7366 43.163 55 42.5 55H17.5C16.837 55 16.2011 54.7366 15.7322 54.2678C15.2634 53.7989 15 53.163 15 52.5Z" fill="white"/>
</svg>
