<svg width="60" height="70" viewBox="0 0 60 70" fill="none" xmlns="http://www.w3.org/2000/svg">
<path fill-rule="evenodd" clip-rule="evenodd" d="M10 0H50C52.6522 0 55.1957 1.05357 57.0711 2.92893C58.9464 4.8043 60 7.34784 60 10V60C60 62.6522 58.9464 65.1957 57.0711 67.0711C55.1957 68.9464 52.6522 70 50 70H10C7.34784 70 4.8043 68.9464 2.92893 67.0711C1.05357 65.1957 0 62.6522 0 60V10C0 7.34784 1.05357 4.8043 2.92893 2.92893C4.8043 1.05357 7.34784 0 10 0ZM10 5C8.67392 5 7.40215 5.52678 6.46447 6.46447C5.52678 7.40215 5 8.67392 5 10V60C5 61.3261 5.52678 62.5979 6.46447 63.5355C7.40215 64.4732 8.67392 65 10 65H50C51.3261 65 52.5979 64.4732 53.5355 63.5355C54.4732 62.5979 55 61.3261 55 60V10C55 8.67392 54.4732 7.40215 53.5355 6.46447C52.5979 5.52678 51.3261 5 50 5H10Z" fill="white"/>
<path fill-rule="evenodd" clip-rule="evenodd" d="M12.5 47.5C12.5 46.837 12.7634 46.2011 13.2322 45.7322C13.7011 45.2634 14.337 45 15 45H30C30.663 45 31.2989 45.2634 31.7678 45.7322C32.2366 46.2011 32.5 46.837 32.5 47.5C32.5 48.163 32.2366 48.7989 31.7678 49.2678C31.2989 49.7366 30.663 50 30 50H15C14.337 50 13.7011 49.7366 13.2322 49.2678C12.7634 48.7989 12.5 48.163 12.5 47.5ZM12.5 37.5C12.5 36.837 12.7634 36.2011 13.2322 35.7322C13.7011 35.2634 14.337 35 15 35H45C45.663 35 46.2989 35.2634 46.7678 35.7322C47.2366 36.2011 47.5 36.837 47.5 37.5C47.5 38.163 47.2366 38.7989 46.7678 39.2678C46.2989 39.7366 45.663 40 45 40H15C14.337 40 13.7011 39.7366 13.2322 39.2678C12.7634 38.7989 12.5 38.163 12.5 37.5ZM12.5 27.5C12.5 26.837 12.7634 26.2011 13.2322 25.7322C13.7011 25.2634 14.337 25 15 25H45C45.663 25 46.2989 25.2634 46.7678 25.7322C47.2366 26.2011 47.5 26.837 47.5 27.5C47.5 28.163 47.2366 28.7989 46.7678 29.2678C46.2989 29.7366 45.663 30 45 30H15C14.337 30 13.7011 29.7366 13.2322 29.2678C12.7634 28.7989 12.5 28.163 12.5 27.5ZM12.5 17.5C12.5 16.837 12.7634 16.2011 13.2322 15.7322C13.7011 15.2634 14.337 15 15 15H45C45.663 15 46.2989 15.2634 46.7678 15.7322C47.2366 16.2011 47.5 16.837 47.5 17.5C47.5 18.163 47.2366 18.7989 46.7678 19.2678C46.2989 19.7366 45.663 20 45 20H15C14.337 20 13.7011 19.7366 13.2322 19.2678C12.7634 18.7989 12.5 18.163 12.5 17.5Z" fill="white"/>
</svg>
