<svg width="509" height="492" viewBox="0 0 509 492" fill="none" xmlns="http://www.w3.org/2000/svg">
<path d="M393.317 418.517C365.425 446.41 330.839 466.674 292.871 477.369C254.902 488.065 214.824 488.833 176.474 479.6C138.124 470.368 102.786 451.444 73.8456 424.641C44.9049 397.838 23.3301 364.054 11.1877 326.523C-0.95479 288.993 -3.25834 248.974 4.49764 210.298C12.2536 171.622 29.8093 135.585 55.4836 105.639C81.1578 75.692 114.091 52.8385 151.128 39.2667C188.166 25.6949 228.067 21.8594 267.012 28.1275L230.4 255.6L393.317 418.517Z" fill="#AA2C2E"/>
<path d="M486.579 162.88C506.961 205.861 513.54 254.097 505.412 300.966C497.285 347.835 474.849 391.04 441.186 424.648L278.4 261.6L486.579 162.88Z" fill="#9B7A87"/>
<path d="M298.665 2.44326C336.337 7.97359 372.051 22.754 402.613 45.4628C433.176 68.1715 457.634 98.1007 473.801 132.574L265.2 230.4L298.665 2.44326Z" fill="#939AA4"/>
<path d="M113.126 259.326V261.166H112.727C111.04 261.197 109.696 261.697 108.696 262.666C107.696 263.634 107.118 264.998 106.962 266.755C107.86 265.724 109.087 265.209 110.641 265.209C112.126 265.209 113.309 265.732 114.192 266.779C115.083 267.826 115.528 269.177 115.528 270.834C115.528 272.591 115.048 273.998 114.087 275.052C113.134 276.107 111.852 276.634 110.243 276.634C108.61 276.634 107.286 276.009 106.27 274.759C105.255 273.502 104.747 271.884 104.747 269.908V269.076C104.747 265.935 105.415 263.537 106.751 261.88C108.094 260.216 110.091 259.365 112.739 259.326H113.126ZM110.278 267.013C109.536 267.013 108.852 267.236 108.227 267.681C107.602 268.127 107.169 268.685 106.927 269.357V270.154C106.927 271.56 107.243 272.693 107.876 273.552C108.509 274.412 109.298 274.841 110.243 274.841C111.219 274.841 111.985 274.482 112.54 273.763C113.102 273.045 113.384 272.103 113.384 270.939C113.384 269.767 113.098 268.822 112.528 268.103C111.966 267.377 111.216 267.013 110.278 267.013ZM126.403 268.9C125.95 269.439 125.407 269.873 124.774 270.201C124.149 270.529 123.462 270.693 122.712 270.693C121.727 270.693 120.868 270.451 120.134 269.966C119.407 269.482 118.844 268.802 118.446 267.927C118.048 267.045 117.848 266.072 117.848 265.009C117.848 263.869 118.063 262.841 118.493 261.927C118.93 261.013 119.548 260.314 120.344 259.83C121.141 259.345 122.071 259.103 123.134 259.103C124.821 259.103 126.149 259.736 127.118 261.002C128.094 262.259 128.583 263.978 128.583 266.158V266.791C128.583 270.111 127.927 272.537 126.614 274.068C125.302 275.591 123.321 276.373 120.673 276.412H120.251V274.584H120.708C122.497 274.552 123.872 274.088 124.833 273.189C125.794 272.283 126.317 270.853 126.403 268.9ZM123.063 268.9C123.79 268.9 124.458 268.677 125.067 268.232C125.684 267.787 126.134 267.236 126.415 266.58V265.713C126.415 264.291 126.106 263.134 125.489 262.244C124.872 261.353 124.091 260.908 123.145 260.908C122.192 260.908 121.427 261.275 120.848 262.009C120.27 262.736 119.981 263.697 119.981 264.892C119.981 266.056 120.259 267.017 120.813 267.775C121.376 268.525 122.126 268.9 123.063 268.9ZM131.384 262.619C131.384 261.595 131.708 260.752 132.356 260.088C133.012 259.423 133.852 259.091 134.876 259.091C135.915 259.091 136.755 259.427 137.395 260.099C138.044 260.763 138.368 261.627 138.368 262.689V263.521C138.368 264.552 138.04 265.396 137.384 266.052C136.735 266.701 135.907 267.025 134.899 267.025C133.884 267.025 133.044 266.701 132.38 266.052C131.716 265.396 131.384 264.525 131.384 263.439V262.619ZM133.001 263.521C133.001 264.13 133.173 264.634 133.516 265.033C133.86 265.423 134.321 265.619 134.899 265.619C135.454 265.619 135.899 265.427 136.235 265.045C136.579 264.662 136.751 264.138 136.751 263.474V262.619C136.751 262.009 136.583 261.505 136.247 261.107C135.911 260.709 135.454 260.509 134.876 260.509C134.298 260.509 133.841 260.709 133.505 261.107C133.169 261.505 133.001 262.025 133.001 262.666V263.521ZM139.692 272.216C139.692 271.193 140.016 270.353 140.665 269.697C141.321 269.033 142.161 268.701 143.184 268.701C144.208 268.701 145.048 269.029 145.704 269.685C146.36 270.341 146.688 271.213 146.688 272.298V273.13C146.688 274.154 146.36 274.998 145.704 275.662C145.055 276.318 144.223 276.646 143.208 276.646C142.192 276.646 141.352 276.322 140.688 275.673C140.024 275.017 139.692 274.146 139.692 273.06V272.216ZM141.309 273.13C141.309 273.748 141.481 274.255 141.825 274.654C142.169 275.045 142.63 275.24 143.208 275.24C143.77 275.24 144.219 275.048 144.555 274.666C144.891 274.275 145.059 273.748 145.059 273.084V272.216C145.059 271.599 144.887 271.095 144.544 270.705C144.208 270.314 143.755 270.119 143.184 270.119C142.63 270.119 142.177 270.314 141.825 270.705C141.481 271.088 141.309 271.607 141.309 272.263V273.13ZM135.391 275.111L134.161 274.338L142.493 261.002L143.723 261.775L135.391 275.111Z" fill="white"/>
<path d="M331.343 116.8H329.163V102.351L324.792 103.956V101.987L331.003 99.6555H331.343V116.8ZM344.82 116.8H342.64V102.351L338.269 103.956V101.987L344.48 99.6555H344.82V116.8ZM350.984 103.019C350.984 101.995 351.308 101.152 351.956 100.487C352.613 99.8234 353.452 99.4914 354.476 99.4914C355.515 99.4914 356.355 99.8273 356.995 100.499C357.644 101.163 357.968 102.027 357.968 103.089V103.921C357.968 104.952 357.64 105.796 356.984 106.452C356.335 107.101 355.507 107.425 354.499 107.425C353.484 107.425 352.644 107.101 351.98 106.452C351.316 105.796 350.984 104.925 350.984 103.839V103.019ZM352.601 103.921C352.601 104.53 352.773 105.034 353.116 105.433C353.46 105.823 353.921 106.019 354.499 106.019C355.054 106.019 355.499 105.827 355.835 105.445C356.179 105.062 356.351 104.538 356.351 103.874V103.019C356.351 102.409 356.183 101.905 355.847 101.507C355.511 101.109 355.054 100.909 354.476 100.909C353.898 100.909 353.441 101.109 353.105 101.507C352.769 101.905 352.601 102.425 352.601 103.066V103.921ZM359.292 112.616C359.292 111.593 359.616 110.753 360.265 110.097C360.921 109.433 361.761 109.101 362.784 109.101C363.808 109.101 364.648 109.429 365.304 110.085C365.96 110.741 366.288 111.612 366.288 112.698V113.53C366.288 114.554 365.96 115.398 365.304 116.062C364.656 116.718 363.823 117.046 362.808 117.046C361.792 117.046 360.952 116.722 360.288 116.073C359.624 115.417 359.292 114.546 359.292 113.46V112.616ZM360.909 113.53C360.909 114.148 361.081 114.655 361.425 115.054C361.769 115.445 362.23 115.64 362.808 115.64C363.37 115.64 363.82 115.448 364.156 115.066C364.491 114.675 364.659 114.148 364.659 113.484V112.616C364.659 111.999 364.488 111.495 364.144 111.105C363.808 110.714 363.355 110.519 362.784 110.519C362.23 110.519 361.777 110.714 361.425 111.105C361.081 111.487 360.909 112.007 360.909 112.663V113.53ZM354.991 115.511L353.761 114.737L362.093 101.402L363.323 102.175L354.991 115.511Z" fill="white"/>
<path d="M408.598 277.6H397.418V276.041L403.324 269.479C404.199 268.487 404.801 267.682 405.129 267.065C405.465 266.44 405.633 265.795 405.633 265.131C405.633 264.241 405.363 263.51 404.824 262.94C404.285 262.37 403.566 262.084 402.668 262.084C401.59 262.084 400.75 262.393 400.148 263.01C399.555 263.62 399.258 264.471 399.258 265.565H397.09C397.09 263.995 397.594 262.725 398.602 261.756C399.617 260.787 400.973 260.303 402.668 260.303C404.254 260.303 405.508 260.721 406.43 261.557C407.352 262.385 407.812 263.491 407.812 264.873C407.812 266.553 406.742 268.553 404.602 270.873L400.031 275.83H408.598V277.6ZM421.594 270.323C421.594 272.862 421.16 274.748 420.293 275.983C419.426 277.217 418.07 277.834 416.227 277.834C414.406 277.834 413.059 277.233 412.184 276.03C411.309 274.819 410.855 273.014 410.824 270.616V267.721C410.824 265.213 411.258 263.35 412.125 262.131C412.992 260.912 414.352 260.303 416.203 260.303C418.039 260.303 419.391 260.893 420.258 262.073C421.125 263.245 421.57 265.057 421.594 267.51V270.323ZM419.426 267.358C419.426 265.522 419.168 264.186 418.652 263.35C418.137 262.506 417.32 262.084 416.203 262.084C415.094 262.084 414.285 262.502 413.777 263.338C413.27 264.174 413.008 265.459 412.992 267.194V270.662C412.992 272.506 413.258 273.87 413.789 274.752C414.328 275.627 415.141 276.065 416.227 276.065C417.297 276.065 418.09 275.651 418.605 274.823C419.129 273.995 419.402 272.69 419.426 270.909V267.358ZM424.184 263.819C424.184 262.795 424.508 261.952 425.156 261.287C425.812 260.623 426.652 260.291 427.676 260.291C428.715 260.291 429.555 260.627 430.195 261.299C430.844 261.963 431.168 262.827 431.168 263.889V264.721C431.168 265.752 430.84 266.596 430.184 267.252C429.535 267.901 428.707 268.225 427.699 268.225C426.684 268.225 425.844 267.901 425.18 267.252C424.516 266.596 424.184 265.725 424.184 264.639V263.819ZM425.801 264.721C425.801 265.33 425.973 265.834 426.316 266.233C426.66 266.623 427.121 266.819 427.699 266.819C428.254 266.819 428.699 266.627 429.035 266.245C429.379 265.862 429.551 265.338 429.551 264.674V263.819C429.551 263.209 429.383 262.705 429.047 262.307C428.711 261.909 428.254 261.709 427.676 261.709C427.098 261.709 426.641 261.909 426.305 262.307C425.969 262.705 425.801 263.225 425.801 263.866V264.721ZM432.492 273.416C432.492 272.393 432.816 271.553 433.465 270.897C434.121 270.233 434.961 269.901 435.984 269.901C437.008 269.901 437.848 270.229 438.504 270.885C439.16 271.541 439.488 272.412 439.488 273.498V274.33C439.488 275.354 439.16 276.198 438.504 276.862C437.855 277.518 437.023 277.846 436.008 277.846C434.992 277.846 434.152 277.522 433.488 276.873C432.824 276.217 432.492 275.346 432.492 274.26V273.416ZM434.109 274.33C434.109 274.948 434.281 275.455 434.625 275.854C434.969 276.245 435.43 276.44 436.008 276.44C436.57 276.44 437.02 276.248 437.355 275.866C437.691 275.475 437.859 274.948 437.859 274.284V273.416C437.859 272.799 437.688 272.295 437.344 271.905C437.008 271.514 436.555 271.319 435.984 271.319C435.43 271.319 434.977 271.514 434.625 271.905C434.281 272.287 434.109 272.807 434.109 273.463V274.33ZM428.191 276.311L426.961 275.537L435.293 262.202L436.523 262.975L428.191 276.311Z" fill="white"/>
</svg>
