<svg width="492" height="492" viewBox="0 0 492 492" fill="none" xmlns="http://www.w3.org/2000/svg">
<path fill-rule="evenodd" clip-rule="evenodd" d="M321.075 11.7358C358.364 23.6857 392.261 44.364 419.948 72.0517L336.51 155.49C313.346 132.327 281.346 118 246 118C195.501 118 151.831 147.244 131.004 189.722L25.0417 137.864C42.2539 102.694 67.6131 72.1402 99.0108 48.7436C130.408 25.347 166.938 9.78334 205.561 3.34659C244.185 -3.09016 283.787 -0.214045 321.075 11.7358Z" fill="#D8353C"/>
<path fill-rule="evenodd" clip-rule="evenodd" d="M425.251 77.5212C434.085 86.9201 442.166 96.9992 449.42 107.665L351.855 174.014C348.07 168.459 343.859 163.217 339.269 158.336L425.251 77.5212Z" fill="#E9424E"/>
<path fill-rule="evenodd" clip-rule="evenodd" d="M481.867 176.123C475.2 153.62 465.348 132.187 452.609 112.475L353.517 176.515C360.084 186.657 365.256 197.786 368.76 209.632L481.867 176.123Z" fill="#939AA4"/>
<path fill-rule="evenodd" clip-rule="evenodd" d="M372.43 225.892L488.947 207.361C487.544 198.54 485.662 189.803 483.309 181.188L369.509 212.268C370.721 216.717 371.7 221.263 372.43 225.892Z" fill="#94939E"/>
<path fill-rule="evenodd" clip-rule="evenodd" d="M373.012 230.013C373.579 234.566 373.907 239.193 373.983 243.882L491.967 241.929C491.819 233.018 491.188 224.121 490.075 215.278L373.012 230.013Z" fill="#958D97"/>
<path fill-rule="evenodd" clip-rule="evenodd" d="M373.22 260.217C373.736 255.549 374 250.805 374 246H492C492 255.128 491.492 264.249 490.479 273.32L373.22 260.217Z" fill="#968893"/>
<path fill-rule="evenodd" clip-rule="evenodd" d="M372.808 263.541C372.143 268.394 371.206 273.16 370.013 277.824L484.28 307.146C486.598 298.11 488.401 288.948 489.68 279.707L372.808 263.541Z" fill="#997F8B"/>
<path fill-rule="evenodd" clip-rule="evenodd" d="M369.183 280.905C365.684 293.277 360.372 304.888 353.551 315.432L452.674 379.423C465.914 358.915 476.027 336.551 482.682 313.066L369.183 280.905Z" fill="#9A7C88"/>
<path fill-rule="evenodd" clip-rule="evenodd" d="M351.356 318.713C348.91 322.251 346.29 325.659 343.509 328.926L433.396 405.371C438.744 399.082 443.772 392.528 448.462 385.733L351.356 318.713Z" fill="#9C717E"/>
<path fill-rule="evenodd" clip-rule="evenodd" d="M340.83 331.974C330.71 343.129 318.649 352.492 305.181 359.527L359.714 464.14C385.508 450.694 408.712 432.78 428.25 411.23L340.83 331.974Z" fill="#9D6672"/>
<path fill-rule="evenodd" clip-rule="evenodd" d="M301.753 361.253C290.647 366.635 278.646 370.459 266.033 372.442L284.496 488.969C308.303 485.197 331.426 477.947 353.125 467.451L301.753 361.253Z" fill="#A24750"/>
<path fill-rule="evenodd" clip-rule="evenodd" d="M263.141 372.862C257.534 373.613 251.813 374 246 374C223.333 374 202.042 368.108 183.575 357.772L126.048 460.773C172.53 486.733 226.179 496.914 278.939 489.785L263.141 372.862Z" fill="#A93035"/>
<path fill-rule="evenodd" clip-rule="evenodd" d="M160.626 341.37L81.9226 429.288C93.9367 440.043 106.979 449.591 120.862 457.793L180.877 356.219C173.637 351.932 166.856 346.952 160.626 341.37Z" fill="#AF2B2D"/>
<path fill-rule="evenodd" clip-rule="evenodd" d="M134.742 309.334L32.2119 367.699C44.2356 388.821 59.3231 408.044 76.9828 424.743L158.056 339.005C148.903 330.347 141.027 320.352 134.742 309.334Z" fill="#B02A2D"/>
<path fill-rule="evenodd" clip-rule="evenodd" d="M118.561 233.936L1.09502 222.817C-3.45019 270.831 6.21876 319.123 28.8996 361.686L133.015 306.206C123.432 288.261 118 267.765 118 246C118 241.932 118.19 237.908 118.561 233.936Z" fill="#B5292C"/>
<path fill-rule="evenodd" clip-rule="evenodd" d="M129.829 192.183L22.788 142.596C11.8584 166.189 4.7384 191.366 1.69312 217.189L118.869 231.007C120.47 217.286 124.241 204.227 129.829 192.183Z" fill="#C6292A"/>
<path d="M177.444 60.1943V61.5742H177.146C175.88 61.5977 174.872 61.9727 174.122 62.6992C173.372 63.4258 172.938 64.4482 172.821 65.7666C173.495 64.9932 174.415 64.6064 175.581 64.6064C176.694 64.6064 177.582 64.999 178.244 65.7842C178.912 66.5693 179.246 67.583 179.246 68.8252C179.246 70.1436 178.886 71.1982 178.165 71.9893C177.45 72.7803 176.489 73.1758 175.282 73.1758C174.058 73.1758 173.064 72.707 172.303 71.7695C171.541 70.8262 171.16 69.6133 171.16 68.1309V67.5068C171.16 65.1514 171.661 63.3525 172.663 62.1104C173.671 60.8623 175.168 60.2236 177.154 60.1943H177.444ZM175.309 65.96C174.752 65.96 174.239 66.127 173.771 66.4609C173.302 66.7949 172.977 67.2139 172.795 67.7178V68.3154C172.795 69.3701 173.032 70.2197 173.507 70.8643C173.981 71.5088 174.573 71.8311 175.282 71.8311C176.015 71.8311 176.589 71.5615 177.005 71.0225C177.427 70.4834 177.638 69.7773 177.638 68.9043C177.638 68.0254 177.424 67.3164 176.996 66.7773C176.574 66.2324 176.012 65.96 175.309 65.96ZM189.556 73H181.171V71.8311L185.601 66.9092C186.257 66.165 186.708 65.5615 186.954 65.0986C187.206 64.6299 187.332 64.1465 187.332 63.6484C187.332 62.9805 187.13 62.4326 186.726 62.0049C186.321 61.5771 185.782 61.3633 185.108 61.3633C184.3 61.3633 183.67 61.5947 183.219 62.0576C182.773 62.5146 182.551 63.1533 182.551 63.9736H180.925C180.925 62.7959 181.303 61.8438 182.059 61.1172C182.82 60.3906 183.837 60.0273 185.108 60.0273C186.298 60.0273 187.238 60.3408 187.93 60.9678C188.621 61.5889 188.967 62.418 188.967 63.4551C188.967 64.7148 188.164 66.2148 186.559 67.9551L183.131 71.6729H189.556V73ZM199.663 73H191.278V71.8311L195.708 66.9092C196.364 66.165 196.815 65.5615 197.062 65.0986C197.313 64.6299 197.439 64.1465 197.439 63.6484C197.439 62.9805 197.237 62.4326 196.833 62.0049C196.429 61.5771 195.89 61.3633 195.216 61.3633C194.407 61.3633 193.777 61.5947 193.326 62.0576C192.881 62.5146 192.658 63.1533 192.658 63.9736H191.032C191.032 62.7959 191.41 61.8438 192.166 61.1172C192.928 60.3906 193.944 60.0273 195.216 60.0273C196.405 60.0273 197.346 60.3408 198.037 60.9678C198.729 61.5889 199.074 62.418 199.074 63.4551C199.074 64.7148 198.271 66.2148 196.666 67.9551L193.238 71.6729H199.663V73ZM205.956 67.8057C205.956 66.4814 206.132 65.21 206.483 63.9912C206.841 62.7725 207.371 61.665 208.074 60.6689C208.777 59.6729 209.507 58.9697 210.263 58.5596L210.597 59.6318C209.741 60.2881 209.038 61.29 208.487 62.6377C207.942 63.9854 207.644 65.4941 207.591 67.1641L207.582 67.9111C207.582 70.1729 207.995 72.1357 208.821 73.7998C209.319 74.7959 209.911 75.5752 210.597 76.1377L210.263 77.1309C209.483 76.6973 208.739 75.9707 208.03 74.9512C206.647 72.959 205.956 70.5771 205.956 67.8057ZM220.388 73H212.003V71.8311L216.433 66.9092C217.089 66.165 217.54 65.5615 217.786 65.0986C218.038 64.6299 218.164 64.1465 218.164 63.6484C218.164 62.9805 217.962 62.4326 217.558 62.0049C217.153 61.5771 216.614 61.3633 215.94 61.3633C215.132 61.3633 214.502 61.5947 214.051 62.0576C213.605 62.5146 213.383 63.1533 213.383 63.9736H211.757C211.757 62.7959 212.135 61.8438 212.891 61.1172C213.652 60.3906 214.669 60.0273 215.94 60.0273C217.13 60.0273 218.07 60.3408 218.762 60.9678C219.453 61.5889 219.799 62.418 219.799 63.4551C219.799 64.7148 218.996 66.2148 217.391 67.9551L213.963 71.6729H220.388V73ZM224.475 65.8105H225.696C226.464 65.7988 227.067 65.5967 227.507 65.2041C227.946 64.8115 228.166 64.2812 228.166 63.6133C228.166 62.1133 227.419 61.3633 225.925 61.3633C225.222 61.3633 224.659 61.5654 224.237 61.9697C223.821 62.3682 223.613 62.8984 223.613 63.5605H221.987C221.987 62.5469 222.356 61.7061 223.095 61.0381C223.839 60.3643 224.782 60.0273 225.925 60.0273C227.132 60.0273 228.078 60.3467 228.764 60.9854C229.449 61.624 229.792 62.5117 229.792 63.6484C229.792 64.2051 229.61 64.7441 229.247 65.2656C228.89 65.7871 228.4 66.1768 227.779 66.4346C228.482 66.6572 229.024 67.0264 229.405 67.542C229.792 68.0576 229.985 68.6875 229.985 69.4316C229.985 70.5801 229.61 71.4912 228.86 72.165C228.11 72.8389 227.135 73.1758 225.934 73.1758C224.732 73.1758 223.754 72.8506 222.998 72.2002C222.248 71.5498 221.873 70.6914 221.873 69.625H223.508C223.508 70.2988 223.728 70.8379 224.167 71.2422C224.606 71.6465 225.195 71.8486 225.934 71.8486C226.719 71.8486 227.319 71.6436 227.735 71.2334C228.151 70.8232 228.359 70.2344 228.359 69.4668C228.359 68.7227 228.131 68.1514 227.674 67.7529C227.217 67.3545 226.558 67.1494 225.696 67.1377H224.475V65.8105ZM232.077 62.6641C232.077 61.8965 232.32 61.2637 232.807 60.7656C233.299 60.2676 233.929 60.0186 234.696 60.0186C235.476 60.0186 236.105 60.2705 236.586 60.7744C237.072 61.2725 237.315 61.9199 237.315 62.7168V63.3408C237.315 64.1143 237.069 64.7471 236.577 65.2393C236.091 65.7256 235.47 65.9688 234.714 65.9688C233.952 65.9688 233.322 65.7256 232.824 65.2393C232.326 64.7471 232.077 64.0938 232.077 63.2793V62.6641ZM233.29 63.3408C233.29 63.7979 233.419 64.1758 233.677 64.4746C233.935 64.7676 234.28 64.9141 234.714 64.9141C235.13 64.9141 235.464 64.7705 235.716 64.4834C235.974 64.1963 236.103 63.8037 236.103 63.3057V62.6641C236.103 62.207 235.977 61.8291 235.725 61.5303C235.473 61.2314 235.13 61.082 234.696 61.082C234.263 61.082 233.92 61.2314 233.668 61.5303C233.416 61.8291 233.29 62.2188 233.29 62.6992V63.3408ZM238.309 69.8623C238.309 69.0947 238.552 68.4648 239.038 67.9727C239.53 67.4746 240.16 67.2256 240.928 67.2256C241.695 67.2256 242.325 67.4717 242.817 67.9639C243.31 68.4561 243.556 69.1094 243.556 69.9238V70.5479C243.556 71.3154 243.31 71.9482 242.817 72.4463C242.331 72.9385 241.707 73.1846 240.945 73.1846C240.184 73.1846 239.554 72.9414 239.056 72.4551C238.558 71.9629 238.309 71.3096 238.309 70.4951V69.8623ZM239.521 70.5479C239.521 71.0107 239.65 71.3916 239.908 71.6904C240.166 71.9834 240.512 72.1299 240.945 72.1299C241.367 72.1299 241.704 71.9863 241.956 71.6992C242.208 71.4062 242.334 71.0107 242.334 70.5127V69.8623C242.334 69.3994 242.205 69.0215 241.947 68.7285C241.695 68.4355 241.355 68.2891 240.928 68.2891C240.512 68.2891 240.172 68.4355 239.908 68.7285C239.65 69.0156 239.521 69.4053 239.521 69.8975V70.5479ZM235.083 72.0332L234.16 71.4531L240.409 61.4512L241.332 62.0312L235.083 72.0332ZM249.321 67.8936C249.321 69.2002 249.148 70.4541 248.803 71.6553C248.463 72.8506 247.938 73.9551 247.229 74.9688C246.526 75.9824 245.788 76.7031 245.015 77.1309L244.672 76.1377C245.574 75.4463 246.298 74.374 246.843 72.9209C247.394 71.4619 247.675 69.8447 247.687 68.0693V67.7881C247.687 66.5576 247.558 65.415 247.3 64.3604C247.042 63.2998 246.682 62.3506 246.219 61.5127C245.762 60.6748 245.246 60.0215 244.672 59.5527L245.015 58.5596C245.788 58.9873 246.523 59.7021 247.221 60.7041C247.924 61.7061 248.448 62.8105 248.794 64.0176C249.146 65.2246 249.321 66.5166 249.321 67.8936Z" fill="white"/>
<path d="M33.2833 190.122L31.7167 189.655L34.8144 179.27L31.3286 179.487L31.7507 178.072L36.7145 177.727L36.9587 177.8L33.2833 190.122ZM40.398 185.549L42.8452 179.62L49.1283 181.494L48.6987 182.935L43.7379 181.455L42.37 184.688C43.0763 184.514 43.8112 184.54 44.5749 184.768C45.6922 185.101 46.4689 185.736 46.9047 186.674C47.3423 187.605 47.3734 188.7 46.9983 189.957C46.6214 191.221 45.9816 192.115 45.0789 192.641C44.1834 193.163 43.1237 193.241 41.8996 192.876C40.8159 192.553 40.0212 191.988 39.5154 191.183C39.0096 190.378 38.8672 189.431 39.0883 188.341L40.5622 188.781C40.4483 189.511 40.5399 190.116 40.837 190.596C41.1358 191.07 41.6164 191.406 42.279 191.604C43.0033 191.82 43.6441 191.742 44.2014 191.37C44.7643 191 45.1755 190.38 45.4351 189.51C45.6796 188.69 45.651 187.966 45.3492 187.338C45.0547 186.706 44.5368 186.279 43.7957 186.058C43.1163 185.855 42.5385 185.845 42.0623 186.027L41.5491 186.241L40.398 185.549ZM52.6547 195.9L51.0881 195.433L54.1858 185.048L50.7 185.265L51.1221 183.85L56.0859 183.506L56.3301 183.579L52.6547 195.9ZM63.084 193.591C63.4625 192.322 63.9944 191.154 64.6796 190.086C65.3705 189.021 66.1952 188.111 67.1537 187.357C68.1123 186.604 69.0123 186.139 69.8539 185.962L69.8674 187.085C68.86 187.469 67.8999 188.228 66.9868 189.362C66.0794 190.498 65.3618 191.858 64.8339 193.443L64.612 194.157C63.9655 196.324 63.8002 198.323 64.1163 200.154C64.3088 201.251 64.6532 202.167 65.1493 202.902L64.5454 203.758C63.9225 203.12 63.4171 202.211 63.0292 201.031C62.2735 198.727 62.2918 196.247 63.084 193.591ZM69.9437 194.362L72.3908 188.433L78.6739 190.308L78.2443 191.748L73.2835 190.268L71.9156 193.501C72.6219 193.327 73.3569 193.353 74.1205 193.581C75.2379 193.914 76.0145 194.55 76.4503 195.487C76.8879 196.418 76.9191 197.513 76.5439 198.771C76.167 200.034 75.5272 200.928 74.6245 201.454C73.729 201.976 72.6693 202.054 71.4452 201.689C70.3616 201.366 69.5668 200.801 69.061 199.996C68.5552 199.191 68.4128 198.244 68.6339 197.154L70.1078 197.594C69.9939 198.324 70.0855 198.929 70.3826 199.409C70.6814 199.883 71.162 200.219 71.8246 200.417C72.5489 200.633 73.1897 200.555 73.747 200.183C74.3099 199.813 74.7211 199.193 74.9807 198.323C75.2253 197.503 75.1966 196.779 74.8948 196.151C74.6003 195.519 74.0825 195.092 73.3413 194.871C72.6619 194.669 72.0841 194.658 71.6079 194.84L71.0947 195.054L69.9437 194.362ZM79.8992 193.241C80.1186 192.506 80.5325 191.969 81.1409 191.63C81.7549 191.294 82.4297 191.235 83.1652 191.455C83.912 191.677 84.4436 192.099 84.76 192.719C85.0837 193.335 85.1316 194.025 84.9038 194.789L84.7255 195.387C84.5044 196.128 84.0877 196.664 83.4753 196.995C82.8703 197.322 82.2056 197.378 81.4813 197.162C80.7513 196.944 80.2172 196.531 79.879 195.922C79.5424 195.308 79.4905 194.611 79.7233 193.831L79.8992 193.241ZM80.868 194.236C80.7374 194.674 80.7529 195.073 80.9145 195.433C81.0778 195.788 81.3672 196.027 81.7827 196.151C82.1814 196.27 82.5425 196.228 82.866 196.025C83.1951 195.823 83.4309 195.484 83.5732 195.007L83.7566 194.392C83.8873 193.954 83.8746 193.556 83.7186 193.197C83.5625 192.839 83.2768 192.598 82.8613 192.474C82.4458 192.35 82.0746 192.395 81.7477 192.609C81.4209 192.824 81.1888 193.161 81.0514 193.622L80.868 194.236ZM83.8131 201.92C84.0325 201.185 84.4455 200.651 85.0523 200.318C85.6663 199.981 86.3411 199.923 87.0766 200.142C87.8122 200.362 88.3454 200.778 88.6764 201.39C89.0074 202.002 89.0564 202.699 88.8236 203.479L88.6453 204.077C88.4259 204.813 88.0091 205.349 87.3951 205.685C86.7884 206.018 86.1201 206.075 85.3901 205.858C84.6602 205.64 84.1261 205.227 83.7879 204.618C83.4513 204.004 83.3994 203.307 83.6322 202.527L83.8131 201.92ZM84.7794 202.924C84.6471 203.367 84.6617 203.769 84.8234 204.129C84.9867 204.484 85.2761 204.723 85.6916 204.847C86.0959 204.968 86.4598 204.926 86.7833 204.723C87.1085 204.514 87.3422 204.171 87.4846 203.694L87.6705 203.071C87.8028 202.627 87.7873 202.228 87.624 201.874C87.4663 201.521 87.1825 201.284 86.7726 201.161C86.374 201.042 86.0064 201.086 85.67 201.291C85.3409 201.492 85.106 201.829 84.9653 202.301L84.7794 202.924ZM80.1015 203.079L79.383 202.259L88.2303 194.461L88.9488 195.28L80.1015 203.079ZM94.929 203.182C94.5555 204.434 94.0315 205.586 93.3569 206.638C92.6895 207.686 91.8713 208.595 90.9021 209.364C89.9386 210.134 89.0251 210.614 88.1617 210.802L88.1171 209.753C89.1794 209.348 90.1794 208.527 91.1169 207.291C92.0617 206.05 92.7935 204.581 93.3122 202.883L93.3926 202.613C93.7443 201.434 93.9474 200.302 94.0018 199.218C94.0579 198.128 93.9839 197.115 93.7799 196.18C93.5814 195.247 93.274 194.473 92.8578 193.86L93.4701 193.006C94.089 193.637 94.5894 194.532 94.9711 195.692C95.3585 196.853 95.5454 198.061 95.5316 199.317C95.5235 200.574 95.3226 201.862 94.929 203.182Z" fill="white"/>
<path d="M31.0092 293.063L22.7293 294.385L22.545 293.231L26.1437 287.672C26.6745 286.834 27.0249 286.167 27.195 285.671C27.3699 285.168 27.4182 284.671 27.3397 284.179C27.2344 283.52 26.9484 283.01 26.4818 282.652C26.0151 282.293 25.4491 282.167 24.7837 282.273C23.9852 282.4 23.3997 282.728 23.0271 283.256C22.6594 283.778 22.5401 284.444 22.6694 285.254L21.0638 285.51C20.8781 284.347 21.1013 283.347 21.7332 282.511C22.3709 281.673 23.3176 281.154 24.5732 280.954C25.7478 280.766 26.7258 280.928 27.5074 281.438C28.288 281.942 28.7601 282.706 28.9235 283.731C29.1221 284.975 28.5657 286.582 27.2546 288.554L24.4556 292.765L30.8001 291.753L31.0092 293.063ZM38.9962 279.756L35.6353 292.325L33.9515 292.594L37.3616 280.444L30.5223 281.535L30.3118 280.216L38.8522 278.853L38.9962 279.756ZM48.9773 278.163L45.6164 290.732L43.9326 291.001L47.3427 278.851L40.5035 279.942L40.2929 278.623L48.8333 277.26L48.9773 278.163ZM56.3672 283.757C56.1586 282.449 56.1318 281.166 56.2869 279.907C56.4478 278.647 56.7969 277.47 57.3342 276.375C57.8716 275.281 58.4812 274.472 59.163 273.947L59.6617 274.954C58.9204 275.736 58.3839 276.837 58.0524 278.254C57.7267 279.671 57.6694 281.208 57.8805 282.865L57.9895 283.605C58.3459 285.838 59.0632 287.711 60.1413 289.224C60.7901 290.13 61.4973 290.806 62.2629 291.253L62.0896 292.287C61.2518 291.981 60.4024 291.381 59.5416 290.486C57.8621 288.737 56.804 286.493 56.3672 283.757ZM68.4341 287.091L66.8198 287.349L65.112 276.647L62.0644 278.353L61.8317 276.895L66.156 274.433L66.4077 274.393L68.4341 287.091ZM78.4152 285.498L76.8009 285.756L75.0931 275.054L72.0455 276.76L71.8128 275.302L76.1372 272.841L76.3889 272.8L78.4152 285.498ZM81.3517 274.563C81.2307 273.805 81.3711 273.142 81.7729 272.573C82.1804 272.004 82.7632 271.659 83.5212 271.538C84.2907 271.415 84.9524 271.564 85.5063 271.986C86.065 272.401 86.4072 273.002 86.5328 273.789L86.6311 274.406C86.753 275.169 86.6097 275.833 86.2013 276.397C85.7976 276.954 85.2226 277.292 84.4762 277.411C83.724 277.531 83.0637 277.39 82.4952 276.988C81.9258 276.581 81.577 275.975 81.4486 275.17L81.3517 274.563ZM82.656 275.04C82.7281 275.491 82.9149 275.844 83.2166 276.099C83.5174 276.347 83.8818 276.437 84.31 276.369C84.7208 276.304 85.028 276.109 85.2316 275.786C85.4409 275.462 85.5063 275.054 85.4279 274.562L85.3267 273.928C85.2547 273.477 85.0708 273.124 84.7749 272.868C84.479 272.613 84.1169 272.519 83.6888 272.588C83.2606 272.656 82.9456 272.858 82.7439 273.192C82.5422 273.527 82.4792 273.932 82.5549 274.406L82.656 275.04ZM88.6396 280.689C88.5187 279.931 88.6595 279.271 89.0622 278.708C89.4698 278.139 90.0525 277.794 90.8105 277.673C91.5685 277.552 92.2293 277.695 92.7929 278.104C93.3565 278.512 93.7025 279.119 93.8308 279.923L93.9292 280.539C94.0501 281.297 93.9068 281.961 93.4993 282.53C93.0966 283.093 92.5192 283.434 91.767 283.554C91.0148 283.674 90.3544 283.533 89.786 283.132C89.2166 282.724 88.8677 282.118 88.7393 281.314L88.6396 280.689ZM89.9454 281.175C90.0183 281.632 90.2057 281.988 90.5073 282.242C90.8081 282.491 91.1726 282.581 91.6007 282.513C92.0173 282.446 92.3274 282.251 92.531 281.928C92.7336 281.599 92.7957 281.189 92.7172 280.697L92.6147 280.055C92.5418 279.598 92.3549 279.245 92.0541 278.996C91.7592 278.746 91.4005 278.655 90.9781 278.723C90.5673 278.788 90.2548 278.987 90.0406 279.317C89.8312 279.642 89.7653 280.047 89.8429 280.533L89.9454 281.175ZM85.7965 283.341L84.7937 282.914L89.3884 272.052L90.3912 272.479L85.7965 283.341ZM99.2044 277.009C99.4104 278.3 99.4373 279.565 99.2852 280.806C99.138 282.04 98.7942 283.213 98.2538 284.326C97.7192 285.438 97.1037 286.266 96.4073 286.81L95.9123 285.883C96.6944 285.058 97.2401 283.885 97.5492 282.365C97.8631 280.837 97.886 279.196 97.6178 277.441L97.5735 277.163C97.3796 275.948 97.0722 274.84 96.6514 273.839C96.2297 272.832 95.7243 271.952 95.1351 271.197C94.5517 270.442 93.9396 269.878 93.2987 269.506L93.4807 268.471C94.3118 268.771 95.1507 269.361 95.9971 270.241C96.8493 271.119 97.5413 272.128 98.0729 273.265C98.6103 274.402 98.9874 275.65 99.2044 277.009Z" fill="white"/>
<path d="M71.3439 386.447L70.0379 387.431L63.5196 378.773L61.6249 381.707L60.7368 380.527L63.4061 376.328L63.6097 376.175L71.3439 386.447ZM78.0482 376.02L79.4665 374.952L80.2647 376.012L78.8464 377.08L80.6332 379.453L79.3273 380.437L77.5404 378.063L72.8852 381.568L72.309 380.803L71.5529 370.272L72.9361 369.23L78.0482 376.02ZM73.5614 379.398L76.7422 377.003L72.9676 371.99L73.0246 372.387L73.5614 379.398ZM80.7886 370.337L81.7646 369.602C82.3707 369.131 82.7313 368.607 82.8462 368.029C82.9612 367.451 82.8177 366.895 82.416 366.361C81.5137 365.163 80.4658 365.013 79.2722 365.912C78.7104 366.335 78.3827 366.835 78.2888 367.411C78.1961 367.98 78.3489 368.529 78.7471 369.058L77.4482 370.036C76.8385 369.226 76.6276 368.332 76.8157 367.354C77.0048 366.368 77.5558 365.532 78.4686 364.845C79.4329 364.119 80.3809 363.805 81.3128 363.902C82.2446 364 83.0524 364.503 83.7361 365.411C84.0709 365.856 84.25 366.396 84.2735 367.031C84.3016 367.663 84.1451 368.268 83.804 368.848C84.4996 368.603 85.1546 368.572 85.769 368.755C86.3881 368.934 86.9215 369.321 87.3691 369.915C88.0598 370.833 88.3083 371.786 88.1144 372.776C87.9205 373.765 87.3438 374.621 86.3842 375.343C85.4246 376.066 84.4473 376.395 83.4523 376.33C82.4619 376.261 81.646 375.801 81.0046 374.949L82.3106 373.966C82.7159 374.504 83.2156 374.803 83.8099 374.861C84.4041 374.92 84.9962 374.727 85.586 374.283C86.2132 373.811 86.5697 373.286 86.6553 372.708C86.7409 372.13 86.5529 371.535 86.0912 370.921C85.6436 370.327 85.1175 370.008 84.5127 369.965C83.9079 369.921 83.258 370.154 82.5628 370.662L81.5868 371.397L80.7886 370.337ZM91.8257 364.525C91.0292 363.467 90.4048 362.345 89.9526 361.16C89.5051 359.971 89.2626 358.768 89.2252 357.549C89.1878 356.33 89.3476 355.33 89.7048 354.548L90.6165 355.203C90.3278 356.242 90.3688 357.466 90.7394 358.873C91.1146 360.278 91.7834 361.663 92.7457 363.029L93.1881 363.631C94.5484 365.438 96.0591 366.757 97.72 367.59C98.717 368.086 99.6586 368.353 100.545 368.39L100.875 369.384C99.9918 369.506 98.9603 369.373 97.7806 368.985C95.4777 368.226 93.4927 366.739 91.8257 364.525ZM96.5184 359.462L93.2 353.973L98.438 350.03L99.342 351.23L95.2064 354.344L96.9962 357.364C97.275 356.692 97.7327 356.117 98.3693 355.637C99.3008 354.936 100.273 354.688 101.286 354.893C102.295 355.094 103.195 355.719 103.984 356.768C104.777 357.821 105.117 358.867 105.004 359.905C104.892 360.935 104.326 361.835 103.306 362.603C102.402 363.283 101.477 363.588 100.528 363.517C99.5803 363.446 98.7334 362.998 97.9877 362.173L99.2165 361.248C99.7366 361.774 100.278 362.059 100.841 362.105C101.4 362.146 101.955 361.959 102.508 361.543C103.111 361.088 103.429 360.526 103.461 359.857C103.497 359.184 103.242 358.485 102.696 357.76C102.181 357.076 101.582 356.67 100.897 356.54C100.214 356.401 99.5628 356.565 98.945 357.03C98.3786 357.457 98.0273 357.915 97.8911 358.407L97.7585 358.947L96.5184 359.462ZM101.526 350.785C101.064 350.172 100.878 349.52 100.967 348.83C101.061 348.136 101.414 347.558 102.027 347.096C102.65 346.627 103.305 346.45 103.992 346.563C104.68 346.669 105.263 347.04 105.743 347.676L106.118 348.175C106.583 348.793 106.767 349.446 106.67 350.136C106.574 350.817 106.224 351.385 105.62 351.839C105.012 352.297 104.362 352.482 103.672 352.393C102.978 352.299 102.386 351.927 101.896 351.277L101.526 350.785ZM102.902 350.596C103.177 350.961 103.507 351.186 103.893 351.269C104.275 351.348 104.64 351.257 104.986 350.997C105.318 350.746 105.499 350.431 105.527 350.05C105.561 349.665 105.427 349.274 105.128 348.876L104.742 348.364C104.467 347.999 104.139 347.773 103.758 347.685C103.377 347.598 103.013 347.685 102.667 347.946C102.321 348.207 102.137 348.532 102.115 348.922C102.094 349.313 102.227 349.7 102.516 350.084L102.902 350.596ZM110.834 352.787C110.372 352.174 110.188 351.525 110.28 350.839C110.374 350.145 110.727 349.567 111.34 349.106C111.954 348.644 112.605 348.462 113.294 348.559C113.983 348.656 114.573 349.03 115.063 349.681L115.438 350.179C115.9 350.792 116.084 351.446 115.99 352.14C115.898 352.826 115.547 353.397 114.939 353.856C114.33 354.314 113.681 354.498 112.99 354.409C112.296 354.316 111.704 353.944 111.215 353.293L110.834 352.787ZM112.215 352.606C112.494 352.975 112.826 353.202 113.211 353.286C113.594 353.365 113.958 353.274 114.304 353.013C114.641 352.759 114.824 352.442 114.853 352.061C114.878 351.675 114.741 351.284 114.441 350.886L114.05 350.366C113.771 349.996 113.441 349.772 113.059 349.693C112.681 349.611 112.322 349.698 111.98 349.955C111.648 350.205 111.464 350.527 111.43 350.92C111.397 351.304 111.528 351.693 111.824 352.086L112.215 352.606ZM109.563 356.462L108.477 356.554L107.453 344.804L108.539 344.713L109.563 356.462ZM118.448 344.591C119.234 345.635 119.85 346.74 120.296 347.908C120.743 349.067 120.989 350.265 121.032 351.501C121.08 352.734 120.924 353.754 120.563 354.561L119.692 353.973C119.997 352.878 119.93 351.586 119.491 350.098C119.054 348.601 118.306 347.14 117.247 345.714L117.078 345.49C116.338 344.507 115.548 343.671 114.708 342.984C113.864 342.292 113.005 341.75 112.131 341.359C111.262 340.965 110.457 340.753 109.716 340.724L109.393 339.724C110.268 339.601 111.285 339.73 112.445 340.111C113.61 340.488 114.693 341.055 115.695 341.811C116.702 342.564 117.619 343.491 118.448 344.591Z" fill="white"/>
<path d="M117.532 426.314L116.575 427.639L107.791 421.292L106.847 424.655L105.65 423.79L106.96 418.99L107.109 418.783L117.532 426.314ZM123.451 418.121L122.494 419.446L113.71 413.099L112.766 416.462L111.569 415.597L112.879 410.797L113.028 410.59L123.451 418.121ZM121.798 408.133L122.513 407.142C122.953 406.513 123.143 405.906 123.082 405.319C123.021 404.733 122.72 404.245 122.179 403.854C120.963 402.975 119.917 403.141 119.042 404.353C118.631 404.923 118.465 405.497 118.546 406.076C118.625 406.646 118.933 407.125 119.47 407.513L118.517 408.831C117.696 408.237 117.23 407.446 117.121 406.456C117.011 405.458 117.29 404.496 117.959 403.57C118.666 402.592 119.479 402.012 120.398 401.83C121.318 401.648 122.238 401.89 123.159 402.556C123.611 402.882 123.941 403.345 124.151 403.945C124.364 404.54 124.394 405.165 124.239 405.819C124.831 405.38 125.448 405.157 126.089 405.15C126.733 405.138 127.357 405.35 127.96 405.786C128.891 406.459 129.41 407.296 129.517 408.299C129.624 409.301 129.326 410.289 128.622 411.263C127.919 412.237 127.082 412.839 126.113 413.071C125.146 413.298 124.231 413.1 123.366 412.475L124.324 411.15C124.87 411.545 125.435 411.682 126.021 411.563C126.606 411.443 127.114 411.084 127.547 410.486C128.006 409.849 128.192 409.243 128.103 408.665C128.014 408.088 127.659 407.574 127.037 407.125C126.433 406.689 125.837 406.54 125.246 406.677C124.655 406.814 124.103 407.228 123.589 407.919L122.874 408.91L121.798 408.133ZM130.626 399.32C129.553 398.544 128.625 397.657 127.843 396.658C127.064 395.655 126.477 394.577 126.082 393.423C125.686 392.27 125.543 391.267 125.653 390.414L126.718 390.771C126.749 391.849 127.15 393.006 127.919 394.242C128.693 395.472 129.741 396.598 131.063 397.619L131.664 398.064C133.497 399.388 135.33 400.203 137.163 400.508C138.262 400.687 139.24 400.664 140.098 400.438L140.707 401.29C139.899 401.668 138.875 401.845 137.633 401.823C135.208 401.777 132.873 400.943 130.626 399.32ZM138.914 389.379L139.954 387.94L141.029 388.717L139.99 390.156L142.398 391.896L141.44 393.221L139.032 391.482L135.62 396.205L134.843 395.644L131.011 385.805L132.025 384.402L138.914 389.379ZM135.625 393.932L137.957 390.704L132.87 387.029L133.042 387.392L135.625 393.932ZM135.836 383.328C135.214 382.879 134.844 382.311 134.725 381.625C134.609 380.935 134.776 380.278 135.226 379.656C135.682 379.024 136.255 378.661 136.945 378.567C137.634 378.464 138.301 378.646 138.947 379.113L139.453 379.479C140.08 379.932 140.448 380.502 140.559 381.189C140.669 381.868 140.502 382.514 140.059 383.126C139.613 383.744 139.047 384.112 138.361 384.231C137.671 384.346 136.995 384.166 136.335 383.689L135.836 383.328ZM137.095 382.741C137.466 383.009 137.848 383.126 138.241 383.092C138.629 383.055 138.95 382.86 139.204 382.509C139.448 382.171 139.527 381.817 139.442 381.444C139.36 381.067 139.118 380.733 138.714 380.441L138.194 380.065C137.823 379.798 137.443 379.679 137.053 379.708C136.664 379.737 136.342 379.927 136.088 380.279C135.834 380.63 135.754 380.996 135.849 381.375C135.944 381.754 136.186 382.084 136.575 382.366L137.095 382.741ZM145.32 382.493C144.698 382.043 144.33 381.477 144.216 380.795C144.101 380.104 144.268 379.448 144.717 378.826C145.167 378.203 145.735 377.837 146.422 377.726C147.109 377.615 147.783 377.799 148.443 378.276L148.949 378.641C149.571 379.09 149.94 379.661 150.055 380.351C150.17 381.034 150.004 381.684 149.558 382.301C149.112 382.918 148.546 383.287 147.86 383.405C147.169 383.521 146.494 383.34 145.833 382.863L145.32 382.493ZM146.586 381.911C146.962 382.182 147.346 382.301 147.739 382.267C148.128 382.229 148.449 382.035 148.703 381.683C148.95 381.341 149.031 380.984 148.945 380.612C148.856 380.236 148.609 379.902 148.205 379.611L147.678 379.23C147.303 378.959 146.921 378.842 146.532 378.879C146.147 378.912 145.83 379.102 145.579 379.448C145.335 379.786 145.255 380.147 145.338 380.532C145.42 380.909 145.66 381.242 146.059 381.53L146.586 381.911ZM145.191 386.379L144.181 386.787L139.733 375.864L140.743 375.456L145.191 386.379ZM150.174 372.413C151.233 373.178 152.148 374.053 152.919 375.036C153.689 376.012 154.278 377.084 154.684 378.252C155.094 379.416 155.246 380.436 155.139 381.313L154.134 381.01C154.102 379.873 153.656 378.659 152.798 377.366C151.937 376.065 150.791 374.89 149.359 373.841L149.131 373.676C148.134 372.956 147.132 372.391 146.126 371.982C145.116 371.57 144.135 371.307 143.185 371.191C142.238 371.071 141.406 371.106 140.69 371.297L140.086 370.438C140.886 370.061 141.896 369.884 143.116 369.905C144.34 369.922 145.542 370.144 146.723 370.571C147.908 370.993 149.058 371.607 150.174 372.413Z" fill="white"/>
<path d="M209.554 451.714L207.866 459.927L206.721 459.691L202.791 454.362C202.195 453.569 201.694 453.006 201.29 452.672C200.882 452.331 200.434 452.11 199.946 452.01C199.292 451.875 198.714 451.963 198.214 452.273C197.714 452.583 197.396 453.068 197.26 453.728C197.097 454.52 197.197 455.184 197.56 455.719C197.918 456.247 198.499 456.594 199.302 456.759L198.975 458.351C197.821 458.114 196.965 457.553 196.405 456.666C195.847 455.774 195.695 454.705 195.951 453.459C196.191 452.294 196.687 451.436 197.44 450.885C198.188 450.333 199.07 450.161 200.085 450.37C201.319 450.623 202.627 451.711 204.009 453.634L206.961 457.74L208.254 451.446L209.554 451.714ZM205.644 442.79C205.972 443.204 206.209 443.669 206.354 444.183C206.501 444.692 206.518 445.222 206.404 445.773C206.256 446.496 205.948 447.091 205.482 447.557C205.016 448.018 204.432 448.328 203.729 448.489C203.02 448.649 202.275 448.648 201.495 448.488C200.657 448.316 199.935 448.003 199.328 447.549C198.722 447.09 198.302 446.531 198.066 445.872C197.831 445.214 197.793 444.494 197.954 443.713C198.208 442.474 198.874 441.594 199.95 441.073C201.021 440.545 202.357 440.446 203.959 440.775L204.424 440.87C206.863 441.372 208.546 442.22 209.473 443.415C210.394 444.609 210.669 446.182 210.298 448.134L210.234 448.444L208.891 448.168L208.96 447.832C209.207 446.513 209.073 445.433 208.558 444.591C208.038 443.748 207.066 443.148 205.644 442.79ZM205.14 445.244C205.25 444.71 205.187 444.186 204.952 443.671C204.718 443.15 204.381 442.737 203.941 442.431L203.304 442.3C202.26 442.086 201.364 442.138 200.616 442.457C199.869 442.776 199.424 443.283 199.281 443.977C199.137 444.677 199.291 445.295 199.744 445.831C200.19 446.365 200.853 446.723 201.731 446.903C202.586 447.079 203.334 447.02 203.974 446.727C204.61 446.427 204.999 445.933 205.14 445.244ZM209.106 432.537L209.463 430.798L210.763 431.065L210.406 432.804L213.316 433.402L212.987 435.003L210.077 434.405L208.904 440.113L207.966 439.92L200.432 432.522L200.781 430.826L209.106 432.537ZM207.976 438.038L208.777 434.138L202.63 432.875L202.935 433.135L207.976 438.038ZM209.8 424.703C208.503 424.436 207.293 424.008 206.17 423.419C205.048 422.823 204.07 422.081 203.236 421.192C202.401 420.302 201.859 419.446 201.61 418.623L202.727 418.512C203.198 419.482 204.038 420.372 205.247 421.183C206.458 421.988 207.875 422.585 209.5 422.972L210.23 423.131C212.446 423.586 214.452 423.577 216.248 423.102C217.324 422.815 218.206 422.392 218.895 421.834L219.801 422.361C219.22 423.037 218.358 423.62 217.217 424.109C214.987 425.062 212.515 425.26 209.8 424.703ZM217.18 414.59L216.851 416.192L206.236 414.011L206.756 417.464L205.309 417.167L204.534 412.252L204.585 412.003L217.18 414.59ZM219.214 404.69L218.885 406.291L208.27 404.11L208.79 407.564L207.344 407.267L206.568 402.352L206.619 402.102L219.214 404.69ZM210.02 398.081C209.268 397.927 208.697 397.561 208.307 396.985C207.919 396.402 207.801 395.735 207.956 394.983C208.113 394.22 208.486 393.654 209.077 393.284C209.662 392.908 210.345 392.8 211.126 392.961L211.737 393.086C212.495 393.242 213.065 393.61 213.448 394.192C213.827 394.766 213.94 395.423 213.788 396.164C213.635 396.91 213.27 397.478 212.693 397.868C212.111 398.257 211.421 398.369 210.623 398.205L210.02 398.081ZM210.927 397.029C211.375 397.121 211.771 397.071 212.116 396.879C212.454 396.685 212.668 396.376 212.755 395.951C212.838 395.544 212.765 395.188 212.535 394.883C212.305 394.573 211.947 394.368 211.459 394.267L210.83 394.138C210.383 394.046 209.987 394.094 209.644 394.28C209.3 394.467 209.085 394.773 208.998 395.197C208.91 395.622 208.988 395.988 209.23 396.295C209.472 396.602 209.828 396.804 210.299 396.9L210.927 397.029ZM218.325 393.426C217.573 393.271 217.005 392.906 216.621 392.331C216.232 391.749 216.115 391.082 216.269 390.33C216.424 389.578 216.792 389.01 217.373 388.627C217.954 388.244 218.644 388.135 219.441 388.299L220.053 388.424C220.805 388.579 221.375 388.947 221.764 389.529C222.148 390.105 222.263 390.766 222.11 391.512C221.957 392.258 221.592 392.826 221.015 393.216C220.433 393.605 219.743 393.717 218.945 393.553L218.325 393.426ZM219.241 392.376C219.694 392.469 220.093 392.419 220.438 392.227C220.777 392.033 220.99 391.724 221.077 391.299C221.162 390.886 221.089 390.527 220.859 390.223C220.622 389.917 220.26 389.714 219.772 389.614L219.135 389.483C218.682 389.39 218.286 389.44 217.947 389.634C217.609 389.821 217.397 390.125 217.311 390.544C217.227 390.951 217.303 391.314 217.537 391.631C217.766 391.941 218.122 392.146 218.604 392.245L219.241 392.376ZM219.803 397.022L219.049 397.81L210.509 389.676L211.263 388.888L219.803 397.022ZM218.613 382.242C219.893 382.505 221.086 382.927 222.193 383.507C223.296 384.081 224.272 384.817 225.122 385.715C225.974 386.608 226.531 387.476 226.795 388.32L225.753 388.456C225.257 387.433 224.352 386.508 223.039 385.682C221.72 384.849 220.193 384.248 218.456 383.879L218.181 383.822C216.975 383.575 215.83 383.471 214.745 383.511C213.654 383.551 212.652 383.712 211.738 383.997C210.826 384.276 210.082 384.65 209.507 385.118L208.603 384.582C209.178 383.911 210.026 383.334 211.148 382.853C212.271 382.366 213.458 382.075 214.71 381.979C215.963 381.877 217.264 381.965 218.613 382.242Z" fill="white"/>
<path d="M281.522 391.589L281.099 390.01L291.566 387.205L289.555 384.35L290.981 383.968L293.876 388.015L293.942 388.261L281.522 391.589ZM288.683 401.708L289.142 403.423L287.86 403.767L287.401 402.052L284.531 402.821L284.108 401.241L286.978 400.473L285.469 394.844L286.395 394.596L296.444 397.836L296.892 399.508L288.683 401.708ZM287.229 396.283L288.26 400.129L294.321 398.505L293.932 398.409L287.229 396.283ZM286.754 411.115L286.331 409.536L296.798 406.731L294.787 403.876L296.213 403.494L299.108 407.541L299.174 407.787L286.754 411.115ZM294.187 418.786C295.466 418.444 296.74 418.284 298.008 418.309C299.278 418.338 300.485 418.564 301.629 418.985C302.773 419.407 303.641 419.929 304.233 420.553L303.283 421.153C302.428 420.497 301.278 420.077 299.834 419.894C298.391 419.716 296.856 419.818 295.23 420.199L294.506 420.384C292.321 420.97 290.532 421.877 289.139 423.105C288.305 423.844 287.706 424.618 287.34 425.425L286.294 425.36C286.511 424.495 287.02 423.588 287.822 422.639C289.388 420.788 291.51 419.504 294.187 418.786ZM297.125 425.033L303.457 424.009L305.154 430.343L303.702 430.732L302.363 425.731L298.892 426.261C299.411 426.771 299.773 427.411 299.98 428.18C300.281 429.307 300.148 430.301 299.578 431.163C299.014 432.024 298.098 432.625 296.83 432.964C295.557 433.305 294.46 433.229 293.539 432.736C292.625 432.247 292.003 431.385 291.673 430.152C291.38 429.059 291.444 428.087 291.864 427.234C292.285 426.381 293.017 425.763 294.061 425.381L294.459 426.866C293.778 427.152 293.31 427.547 293.057 428.052C292.81 428.555 292.776 429.14 292.955 429.808C293.15 430.538 293.552 431.043 294.161 431.323C294.771 431.608 295.515 431.633 296.392 431.398C297.219 431.177 297.82 430.773 298.197 430.187C298.581 429.605 298.673 428.94 298.473 428.193C298.289 427.508 297.995 427.011 297.59 426.701L297.139 426.376L297.125 425.033ZM303.298 432.924C304.039 432.725 304.714 432.796 305.321 433.137C305.929 433.483 306.333 434.027 306.531 434.769C306.733 435.522 306.653 436.195 306.29 436.79C305.935 437.388 305.372 437.791 304.603 437.997L304 438.159C303.253 438.359 302.578 438.285 301.975 437.937C301.38 437.593 300.984 437.056 300.788 436.326C300.591 435.59 300.663 434.919 301.004 434.312C301.35 433.703 301.917 433.294 302.704 433.083L303.298 432.924ZM302.958 434.27C302.517 434.389 302.185 434.611 301.963 434.937C301.747 435.262 301.695 435.634 301.807 436.053C301.915 436.455 302.14 436.74 302.482 436.909C302.826 437.084 303.239 437.107 303.72 436.978L304.34 436.812C304.781 436.694 305.114 436.474 305.337 436.153C305.561 435.833 305.616 435.463 305.504 435.044C305.392 434.625 305.159 434.333 304.805 434.167C304.451 434.001 304.042 433.98 303.578 434.104L302.958 434.27ZM297.958 440.806C298.699 440.607 299.371 440.679 299.972 441.021C300.58 441.368 300.984 441.912 301.183 442.653C301.381 443.395 301.307 444.067 300.959 444.67C300.61 445.272 300.043 445.679 299.256 445.89L298.654 446.052C297.912 446.25 297.237 446.176 296.629 445.83C296.028 445.487 295.628 444.948 295.431 444.213C295.234 443.477 295.306 442.805 295.647 442.199C295.993 441.59 296.56 441.18 297.347 440.97L297.958 440.806ZM297.61 442.155C297.162 442.275 296.828 442.498 296.606 442.824C296.39 443.149 296.338 443.521 296.45 443.94C296.559 444.347 296.785 444.635 297.128 444.804C297.476 444.972 297.89 444.991 298.371 444.862L299 444.694C299.447 444.574 299.778 444.352 299.995 444.027C300.212 443.708 300.266 443.342 300.155 442.929C300.048 442.527 299.818 442.236 299.467 442.058C299.123 441.883 298.713 441.859 298.238 441.987L297.61 442.155ZM295.026 438.252L295.347 437.21L306.626 440.658L306.305 441.699L295.026 438.252ZM302.71 450.934C301.448 451.272 300.192 451.429 298.942 451.406C297.699 451.388 296.497 451.167 295.334 450.744C294.173 450.328 293.286 449.801 292.673 449.165L293.543 448.576C294.445 449.269 295.668 449.691 297.212 449.841C298.764 449.995 300.399 449.848 302.117 449.4L302.389 449.327C303.577 449.009 304.647 448.589 305.599 448.067C306.557 447.543 307.381 446.949 308.07 446.285C308.761 445.627 309.259 444.96 309.563 444.284L310.611 444.358C310.398 445.216 309.898 446.111 309.111 447.044C308.325 447.982 307.394 448.775 306.317 449.421C305.242 450.073 304.04 450.577 302.71 450.934Z" fill="white"/>
<path d="M337.685 375.473L332.89 368.594L333.849 367.926L340.42 368.745C341.405 368.858 342.158 368.883 342.679 368.82C343.207 368.758 343.676 368.585 344.085 368.301C344.633 367.919 344.966 367.439 345.086 366.863C345.206 366.287 345.073 365.722 344.688 365.17C344.225 364.506 343.675 364.122 343.037 364.017C342.408 363.913 341.757 364.095 341.084 364.564L340.154 363.23C341.12 362.557 342.117 362.322 343.145 362.527C344.177 362.736 345.056 363.363 345.784 364.406C346.464 365.381 346.744 366.332 346.625 367.258C346.511 368.18 346.029 368.938 345.178 369.531C344.145 370.251 342.455 370.451 340.109 370.129L335.099 369.443L338.773 374.714L337.685 375.473ZM343.465 383.764L338.67 376.886L339.629 376.217L346.2 377.036C347.185 377.149 347.938 377.174 348.459 377.111C348.988 377.05 349.456 376.877 349.865 376.592C350.413 376.21 350.746 375.731 350.866 375.155C350.986 374.579 350.853 374.014 350.468 373.461C350.005 372.798 349.455 372.414 348.817 372.308C348.188 372.204 347.537 372.387 346.864 372.856L345.934 371.522C346.9 370.848 347.897 370.614 348.926 370.819C349.957 371.028 350.837 371.654 351.564 372.697C352.244 373.673 352.524 374.624 352.406 375.549C352.291 376.472 351.809 377.23 350.958 377.823C349.925 378.543 348.235 378.742 345.889 378.42L340.879 377.735L344.553 383.005L343.465 383.764ZM351.7 383.005L352.398 384.008C352.847 384.631 353.358 385.01 353.931 385.146C354.505 385.282 355.065 385.159 355.613 384.777C356.844 383.919 357.032 382.878 356.177 381.652C355.775 381.075 355.288 380.729 354.715 380.614C354.15 380.501 353.596 380.634 353.053 381.012L352.123 379.678C352.955 379.099 353.856 378.921 354.826 379.144C355.804 379.369 356.62 379.951 357.273 380.888C357.964 381.878 358.243 382.837 358.111 383.765C357.979 384.692 357.447 385.481 356.514 386.131C356.058 386.449 355.512 386.609 354.876 386.609C354.244 386.614 353.644 386.435 353.078 386.073C353.297 386.777 353.304 387.433 353.099 388.04C352.897 388.653 352.491 389.171 351.881 389.597C350.938 390.254 349.977 390.467 348.995 390.237C348.013 390.007 347.179 389.4 346.492 388.414C345.805 387.429 345.512 386.44 345.614 385.448C345.718 384.461 346.208 383.662 347.083 383.053L348.018 384.394C347.465 384.779 347.148 385.268 347.068 385.859C346.988 386.451 347.159 387.05 347.581 387.655C348.03 388.299 348.541 388.675 349.116 388.782C349.69 388.888 350.292 388.722 350.922 388.283C351.532 387.858 351.87 387.343 351.936 386.741C352.001 386.138 351.793 385.48 351.31 384.767L350.611 383.764L351.7 383.005ZM357.105 394.248C358.191 393.49 359.335 392.908 360.535 392.499C361.74 392.095 362.951 391.897 364.171 391.904C365.39 391.911 366.384 392.108 367.153 392.493L366.464 393.38C365.436 393.054 364.212 393.05 362.792 393.369C361.375 393.693 359.966 394.31 358.566 395.222L357.948 395.642C356.093 396.935 354.719 398.397 353.826 400.026C353.294 401.004 352.993 401.935 352.923 402.819L351.918 403.113C351.828 402.226 351.998 401.2 352.429 400.036C353.273 397.762 354.831 395.833 357.105 394.248ZM368.498 403.137C367.974 403.502 367.41 403.688 366.807 403.694C366.208 403.705 365.629 403.555 365.069 403.245C365.216 403.957 365.174 404.629 364.943 405.261C364.716 405.899 364.316 406.416 363.744 406.815C362.836 407.448 361.898 407.645 360.93 407.405C359.967 407.17 359.136 406.552 358.439 405.553C357.736 404.543 357.44 403.546 357.553 402.56C357.674 401.576 358.186 400.769 359.09 400.139C359.657 399.743 360.276 399.54 360.947 399.529C361.622 399.524 362.268 399.713 362.885 400.096C362.791 399.469 362.854 398.879 363.075 398.325C363.296 397.771 363.666 397.313 364.185 396.951C365.07 396.334 365.969 396.129 366.884 396.334C367.798 396.539 368.579 397.106 369.226 398.034C369.869 398.956 370.129 399.882 370.005 400.811C369.885 401.745 369.382 402.521 368.498 403.137ZM362.843 405.461C363.429 405.052 363.777 404.531 363.886 403.899C363.998 403.27 363.845 402.656 363.426 402.055C363.007 401.454 362.487 401.099 361.868 400.988C361.251 400.882 360.645 401.037 360.049 401.452C359.453 401.868 359.106 402.37 359.009 402.959C358.916 403.552 359.089 404.164 359.528 404.794C359.964 405.419 360.476 405.79 361.065 405.908C361.659 406.022 362.252 405.873 362.843 405.461ZM368.13 398.798C367.764 398.274 367.304 397.962 366.75 397.863C366.203 397.766 365.651 397.911 365.093 398.3C364.56 398.672 364.238 399.132 364.127 399.68C364.025 400.23 364.16 400.772 364.532 401.306C364.904 401.839 365.364 402.151 365.912 402.24C366.468 402.331 367.013 402.19 367.546 401.818C368.08 401.446 368.399 400.977 368.504 400.411C368.61 399.845 368.485 399.307 368.13 398.798ZM370.48 404.444C371.11 404.005 371.768 403.843 372.455 403.957C373.145 404.076 373.709 404.45 374.148 405.08C374.594 405.719 374.747 406.38 374.609 407.062C374.478 407.746 374.086 408.316 373.433 408.772L372.921 409.128C372.286 409.571 371.626 409.731 370.941 409.608C370.264 409.488 369.709 409.117 369.277 408.497C368.841 407.872 368.681 407.216 368.795 406.53C368.914 405.84 369.307 405.262 369.976 404.796L370.48 404.444ZM370.619 405.826C370.244 406.088 370.007 406.409 369.91 406.792C369.817 407.171 369.894 407.538 370.142 407.894C370.38 408.235 370.689 408.427 371.069 408.47C371.452 408.517 371.847 408.398 372.256 408.113L372.782 407.746C373.157 407.485 373.395 407.166 373.496 406.788C373.597 406.41 373.524 406.044 373.276 405.688C373.028 405.332 372.709 405.137 372.32 405.101C371.931 405.065 371.539 405.185 371.145 405.459L370.619 405.826ZM368.139 413.673C368.768 413.234 369.424 413.073 370.106 413.19C370.796 413.309 371.361 413.684 371.8 414.313C372.238 414.943 372.397 415.601 372.275 416.286C372.152 416.971 371.757 417.546 371.089 418.012L370.577 418.369C369.947 418.808 369.287 418.968 368.597 418.849C367.915 418.732 367.357 418.36 366.921 417.736C366.486 417.111 366.325 416.455 366.439 415.768C366.558 415.078 366.951 414.5 367.62 414.035L368.139 413.673ZM368.27 415.06C367.89 415.324 367.651 415.648 367.554 416.03C367.461 416.409 367.538 416.777 367.786 417.132C368.028 417.478 368.338 417.673 368.718 417.715C369.102 417.754 369.499 417.632 369.907 417.347L370.441 416.975C370.82 416.71 371.057 416.388 371.15 416.009C371.246 415.635 371.172 415.272 370.927 414.922C370.689 414.58 370.375 414.385 369.984 414.336C369.601 414.289 369.207 414.406 368.803 414.688L368.27 415.06ZM364.513 412.268L364.461 411.179L376.24 410.586L376.292 411.675L364.513 412.268ZM376.052 421.581C374.98 422.328 373.852 422.904 372.669 423.307C371.494 423.712 370.288 423.913 369.051 423.911C367.818 423.914 366.804 423.72 366.011 423.331L366.63 422.481C367.713 422.826 369.006 422.807 370.51 422.423C372.022 422.04 373.509 421.346 374.972 420.34L375.203 420.18C376.213 419.476 377.076 418.717 377.794 417.902C378.517 417.084 379.089 416.246 379.512 415.387C379.938 414.533 380.179 413.736 380.235 412.997L381.246 412.71C381.337 413.589 381.171 414.601 380.748 415.746C380.328 416.896 379.722 417.958 378.93 418.932C378.14 419.911 377.181 420.794 376.052 421.581Z" fill="white"/>
<path d="M390.127 347.856L389.288 348.951L389.051 348.77C388.032 348.019 387.004 347.704 385.967 347.825C384.929 347.946 383.963 348.494 383.069 349.47C384.074 349.265 385.04 349.518 385.966 350.226C386.849 350.903 387.316 351.754 387.364 352.78C387.417 353.81 387.066 354.818 386.311 355.804C385.509 356.851 384.582 357.469 383.529 357.659C382.481 357.853 381.477 357.583 380.519 356.849C379.546 356.104 379.043 355.128 379.008 353.921C378.977 352.709 379.412 351.514 380.313 350.337L380.692 349.842C382.124 347.971 383.615 346.848 385.166 346.471C386.725 346.092 388.302 346.495 389.897 347.68L390.127 347.856ZM384.926 351.135C384.484 350.797 383.976 350.618 383.401 350.598C382.825 350.578 382.312 350.713 381.862 351.003L381.499 351.478C380.857 352.315 380.529 353.134 380.514 353.934C380.499 354.734 380.773 355.35 381.336 355.781C381.918 356.226 382.538 356.361 383.196 356.186C383.858 356.015 384.455 355.582 384.986 354.889C385.52 354.191 385.781 353.498 385.769 352.81C385.766 352.121 385.485 351.563 384.926 351.135ZM389.795 355.649L394.19 350.978L399.396 354.964L398.483 356.157L394.372 353.01L391.944 355.545C392.666 355.633 393.344 355.92 393.976 356.404C394.902 357.113 395.402 357.983 395.476 359.014C395.554 360.04 395.194 361.074 394.396 362.116C393.595 363.163 392.679 363.771 391.648 363.942C390.626 364.111 389.607 363.807 388.593 363.031C387.695 362.343 387.153 361.533 386.966 360.601C386.78 359.668 386.984 358.732 387.578 357.793L388.799 358.728C388.433 359.37 388.303 359.968 388.41 360.522C388.521 361.072 388.851 361.557 389.4 361.977C390 362.436 390.627 362.591 391.28 362.442C391.937 362.296 392.542 361.863 393.094 361.142C393.614 360.462 393.845 359.776 393.786 359.081C393.736 358.386 393.404 357.803 392.789 357.333C392.227 356.902 391.69 356.687 391.18 356.687L390.625 356.705L389.795 355.649ZM400.113 365.087C400.918 364.036 401.831 363.133 402.851 362.379C403.875 361.629 404.97 361.072 406.134 360.709C407.297 360.345 408.304 360.23 409.154 360.364L408.767 361.419C407.689 361.42 406.521 361.788 405.265 362.523C404.013 363.262 402.858 364.278 401.801 365.572L401.34 366.16C399.965 367.955 399.1 369.765 398.744 371.589C398.534 372.682 398.53 373.661 398.733 374.524L397.864 375.11C397.509 374.292 397.359 373.262 397.416 372.022C397.529 369.6 398.428 367.288 400.113 365.087ZM408.414 377.985L401.757 372.888L402.467 371.96L408.977 370.744C409.95 370.553 410.675 370.348 411.152 370.13C411.637 369.911 412.031 369.603 412.334 369.208C412.74 368.678 412.912 368.12 412.851 367.534C412.79 366.949 412.492 366.451 411.957 366.042C411.315 365.55 410.674 365.351 410.035 365.444C409.403 365.537 408.838 365.908 408.34 366.56L407.049 365.571C407.765 364.636 408.643 364.11 409.685 363.992C410.732 363.879 411.76 364.208 412.769 364.981C413.714 365.704 414.27 366.525 414.438 367.443C414.609 368.356 414.38 369.225 413.749 370.048C412.983 371.049 411.434 371.752 409.101 372.157L404.12 373.025L409.221 376.931L408.414 377.985ZM415.954 370.74C416.42 370.13 416.998 369.776 417.687 369.676C418.381 369.58 419.032 369.765 419.642 370.232C420.26 370.705 420.607 371.288 420.683 371.98C420.766 372.672 420.565 373.334 420.081 373.966L419.702 374.462C419.231 375.076 418.651 375.429 417.961 375.52C417.279 375.611 416.639 375.426 416.038 374.967C415.434 374.504 415.081 373.928 414.981 373.239C414.885 372.545 415.085 371.875 415.58 371.228L415.954 370.74ZM416.505 372.015C416.228 372.377 416.1 372.756 416.123 373.15C416.15 373.539 416.335 373.866 416.68 374.129C417.01 374.382 417.362 374.471 417.737 374.396C418.116 374.325 418.457 374.092 418.76 373.696L419.15 373.187C419.428 372.824 419.557 372.447 419.539 372.057C419.521 371.667 419.339 371.34 418.995 371.076C418.651 370.812 418.288 370.723 417.906 370.807C417.524 370.891 417.188 371.124 416.895 371.505L416.505 372.015ZM416.526 380.244C416.992 379.634 417.568 379.282 418.254 379.187C418.947 379.09 419.599 379.276 420.208 379.742C420.818 380.209 421.168 380.787 421.26 381.477C421.351 382.167 421.15 382.835 420.654 383.482L420.275 383.978C419.808 384.587 419.228 384.94 418.535 385.036C417.849 385.131 417.204 384.947 416.6 384.484C415.995 384.021 415.642 383.445 415.543 382.756C415.446 382.063 415.646 381.393 416.141 380.746L416.526 380.244ZM417.072 381.525C416.791 381.893 416.661 382.274 416.684 382.668C416.711 383.057 416.896 383.383 417.241 383.647C417.576 383.903 417.93 383.994 418.305 383.919C418.683 383.84 419.024 383.602 419.326 383.207L419.722 382.691C420.003 382.323 420.131 381.945 420.104 381.555C420.082 381.17 419.901 380.847 419.562 380.587C419.231 380.334 418.872 380.243 418.485 380.316C418.106 380.387 417.767 380.618 417.467 381.009L417.072 381.525ZM412.645 380.006L412.265 378.985L423.307 374.842L423.687 375.864L412.645 380.006ZM426.467 385.375C425.672 386.413 424.773 387.303 423.768 388.047C422.772 388.789 421.684 389.347 420.505 389.721C419.33 390.099 418.306 390.222 417.432 390.091L417.763 389.095C418.9 389.094 420.126 388.683 421.442 387.86C422.767 387.037 423.973 385.923 425.062 384.521L425.233 384.298C425.981 383.321 426.573 382.335 427.009 381.341C427.449 380.342 427.74 379.369 427.882 378.423C428.029 377.479 428.016 376.647 427.845 375.926L428.721 375.346C429.075 376.156 429.225 377.17 429.169 378.39C429.118 379.613 428.863 380.808 428.404 381.977C427.95 383.149 427.304 384.282 426.467 385.375Z" fill="white"/>
<path d="M400.605 311.368C400.129 311.597 399.625 311.726 399.091 311.755C398.562 311.787 398.042 311.687 397.529 311.456C396.856 311.153 396.343 310.722 395.99 310.165C395.642 309.61 395.467 308.972 395.464 308.251C395.464 307.524 395.628 306.798 395.955 306.071C396.307 305.291 396.77 304.655 397.346 304.162C397.926 303.672 398.564 303.384 399.258 303.299C399.952 303.213 400.663 303.334 401.389 303.662C402.543 304.182 403.256 305.024 403.528 306.188C403.808 307.349 403.613 308.674 402.941 310.165L402.746 310.597C401.723 312.868 400.526 314.324 399.157 314.967C397.79 315.604 396.195 315.528 394.372 314.738L394.084 314.608L394.647 313.358L394.96 313.499C396.192 314.029 397.276 314.135 398.21 313.817C399.146 313.493 399.945 312.677 400.605 311.368ZM398.322 310.339C398.819 310.563 399.344 310.616 399.898 310.499C400.457 310.385 400.934 310.147 401.328 309.785L401.596 309.192C402.034 308.22 402.179 307.334 402.032 306.535C401.884 305.736 401.487 305.19 400.841 304.899C400.189 304.605 399.553 304.621 398.931 304.945C398.312 305.263 397.818 305.831 397.45 306.648C397.091 307.444 396.984 308.187 397.13 308.876C397.283 309.562 397.681 310.05 398.322 310.339ZM412.789 312.656C412.526 313.238 412.138 313.687 411.624 314.001C411.114 314.318 410.54 314.486 409.901 314.507C410.392 315.043 410.701 315.642 410.827 316.303C410.959 316.966 410.881 317.616 410.595 318.252C410.14 319.261 409.435 319.911 408.482 320.201C407.534 320.494 406.504 320.389 405.393 319.889C404.271 319.383 403.506 318.678 403.097 317.774C402.696 316.867 402.722 315.911 403.175 314.907C403.459 314.277 403.886 313.785 404.457 313.432C405.033 313.081 405.684 312.912 406.411 312.924C406.009 312.434 405.76 311.895 405.666 311.306C405.571 310.717 405.654 310.134 405.914 309.557C406.357 308.574 407.024 307.937 407.914 307.644C408.804 307.351 409.765 307.437 410.796 307.902C411.822 308.364 412.52 309.025 412.89 309.887C413.266 310.75 413.232 311.673 412.789 312.656ZM409.127 317.551C409.42 316.9 409.452 316.274 409.22 315.675C408.994 315.078 408.548 314.63 407.88 314.329C407.212 314.028 406.584 313.989 405.995 314.212C405.411 314.437 404.97 314.881 404.672 315.543C404.373 316.206 404.333 316.814 404.552 317.369C404.777 317.927 405.239 318.363 405.938 318.679C406.633 318.992 407.263 319.048 407.83 318.847C408.398 318.64 408.831 318.208 409.127 317.551ZM410.247 309.119C409.665 308.857 409.11 308.826 408.583 309.025C408.064 309.222 407.665 309.63 407.385 310.249C407.118 310.842 407.078 311.403 407.264 311.93C407.458 312.455 407.852 312.851 408.445 313.118C409.038 313.385 409.592 313.417 410.109 313.212C410.633 313.005 411.028 312.605 411.296 312.012C411.563 311.419 411.597 310.852 411.396 310.312C411.196 309.772 410.813 309.375 410.247 309.119ZM417.343 319.384C417.887 318.177 418.57 317.09 419.392 316.124C420.218 315.159 421.157 314.368 422.207 313.749C423.257 313.129 424.211 312.788 425.069 312.725L424.933 313.84C423.883 314.086 422.83 314.711 421.775 315.713C420.724 316.718 419.832 317.971 419.097 319.471L418.782 320.149C417.853 322.211 417.423 324.17 417.492 326.027C417.537 327.139 417.756 328.093 418.15 328.887L417.438 329.656C416.905 328.94 416.526 327.972 416.298 326.751C415.856 324.367 416.204 321.911 417.343 319.384ZM425.831 321.022L426.945 321.524C427.65 321.829 428.283 321.892 428.845 321.715C429.407 321.538 429.825 321.144 430.1 320.535C430.716 319.168 430.343 318.177 428.981 317.563C428.34 317.274 427.744 317.228 427.193 317.423C426.65 317.615 426.243 318.013 425.971 318.617L424.488 317.949C424.905 317.024 425.587 316.409 426.534 316.104C427.49 315.795 428.488 315.876 429.53 316.345C430.63 316.841 431.362 317.521 431.724 318.385C432.087 319.249 432.035 320.199 431.568 321.236C431.339 321.743 430.952 322.16 430.406 322.486C429.866 322.815 429.26 322.969 428.588 322.949C429.137 323.441 429.48 324 429.615 324.626C429.756 325.255 429.673 325.909 429.367 326.588C428.895 327.635 428.179 328.311 427.219 328.617C426.258 328.923 425.23 328.83 424.135 328.336C423.04 327.842 422.281 327.144 421.86 326.24C421.443 325.339 421.454 324.403 421.892 323.43L423.383 324.102C423.106 324.716 423.084 325.298 423.319 325.847C423.553 326.396 424.007 326.823 424.68 327.126C425.396 327.449 426.028 327.509 426.576 327.306C427.124 327.103 427.555 326.651 427.871 325.951C428.176 325.273 428.203 324.658 427.95 324.107C427.697 323.556 427.18 323.098 426.4 322.734L425.286 322.232L425.831 321.022ZM428.993 333.129L428.412 332.173C429.229 331.699 429.816 331.096 430.172 330.363L430.775 329.025L432.226 329.679L431.702 330.84C431.459 331.38 431.082 331.859 430.572 332.278C430.067 332.7 429.541 332.983 428.993 333.129ZM436.475 326.668L439.69 321.118L445.667 323.812L445.05 325.182L440.33 323.055L438.544 326.077C439.267 325.998 439.992 326.122 440.719 326.45C441.782 326.929 442.467 327.662 442.774 328.649C443.084 329.63 442.969 330.719 442.429 331.916C441.888 333.118 441.134 333.919 440.17 334.32C439.213 334.717 438.152 334.654 436.987 334.129C435.956 333.664 435.244 332.999 434.85 332.134C434.456 331.269 434.441 330.311 434.805 329.26L436.207 329.892C435.997 330.601 436.007 331.213 436.238 331.728C436.471 332.238 436.902 332.635 437.533 332.919C438.222 333.23 438.867 333.238 439.469 332.943C440.076 332.652 440.567 332.092 440.94 331.264C441.291 330.484 441.359 329.762 441.144 329.1C440.936 328.434 440.48 327.942 439.775 327.625C439.128 327.333 438.557 327.246 438.061 327.363L437.524 327.507L436.475 326.668ZM446.491 326.882C446.807 326.183 447.288 325.706 447.936 325.451C448.59 325.2 449.266 325.231 449.966 325.547C450.676 325.867 451.147 326.356 451.378 327.012C451.617 327.666 451.573 328.356 451.245 329.083L450.989 329.652C450.671 330.357 450.186 330.833 449.535 331.079C448.892 331.323 448.226 331.289 447.537 330.979C446.843 330.666 446.368 330.185 446.114 329.537C445.862 328.884 445.904 328.186 446.238 327.443L446.491 326.882ZM447.319 327.998C447.131 328.414 447.093 328.812 447.205 329.19C447.32 329.563 447.575 329.839 447.97 330.017C448.35 330.188 448.713 330.194 449.061 330.036C449.414 329.88 449.693 329.575 449.897 329.121L450.161 328.536C450.349 328.12 450.389 327.723 450.282 327.348C450.175 326.972 449.924 326.694 449.529 326.516C449.134 326.338 448.76 326.334 448.407 326.502C448.055 326.671 447.78 326.975 447.582 327.413L447.319 327.998ZM449.214 336.005C449.53 335.306 450.01 334.831 450.656 334.582C451.309 334.331 451.986 334.362 452.686 334.678C453.385 334.993 453.858 335.476 454.105 336.127C454.351 336.778 454.307 337.475 453.973 338.218L453.716 338.787C453.401 339.486 452.916 339.962 452.263 340.214C451.617 340.463 450.947 340.431 450.253 340.118C449.559 339.805 449.084 339.324 448.83 338.676C448.578 338.023 448.62 337.325 448.954 336.582L449.214 336.005ZM450.038 337.129C449.848 337.551 449.809 337.951 449.921 338.329C450.036 338.702 450.291 338.978 450.686 339.156C451.071 339.33 451.437 339.337 451.785 339.179C452.135 339.015 452.412 338.707 452.617 338.252L452.884 337.66C453.074 337.238 453.112 336.84 452.997 336.467C452.888 336.096 452.639 335.823 452.249 335.647C451.869 335.476 451.499 335.47 451.139 335.629C450.786 335.785 450.508 336.087 450.306 336.536L450.038 337.129ZM445.382 336.659L444.779 335.751L454.586 329.2L455.189 330.108L445.382 336.659ZM460.063 338.736C459.526 339.927 458.854 340.999 458.045 341.952C457.244 342.902 456.312 343.694 455.249 344.327C454.191 344.962 453.222 345.315 452.341 345.388L452.437 344.341C453.544 344.082 454.644 343.402 455.738 342.301C456.84 341.197 457.76 339.838 458.501 338.224L458.616 337.968C459.122 336.846 459.474 335.752 459.672 334.684C459.873 333.611 459.934 332.598 459.857 331.644C459.784 330.692 459.583 329.885 459.252 329.221L459.973 328.457C460.502 329.164 460.879 330.118 461.102 331.318C461.332 332.521 461.356 333.743 461.175 334.986C461 336.23 460.629 337.481 460.063 338.736Z" fill="white"/>
<path d="M413.407 270.492L413.154 271.848L412.86 271.793C411.612 271.583 410.552 271.767 409.681 272.343C408.81 272.919 408.196 273.845 407.839 275.119C408.643 274.482 409.619 274.272 410.765 274.486C411.859 274.691 412.659 275.24 413.166 276.133C413.678 277.028 413.82 278.086 413.592 279.307C413.349 280.603 412.801 281.573 411.947 282.218C411.099 282.864 410.082 283.076 408.895 282.854C407.692 282.629 406.801 281.986 406.225 280.924C405.65 279.857 405.499 278.594 405.771 277.137L405.886 276.524C406.319 274.209 407.142 272.533 408.355 271.496C409.576 270.454 411.165 270.102 413.122 270.438L413.407 270.492ZM410.248 275.766C409.701 275.664 409.166 275.734 408.644 275.976C408.122 276.218 407.725 276.57 407.454 277.032L407.344 277.619C407.15 278.656 407.227 279.535 407.575 280.256C407.923 280.976 408.446 281.402 409.143 281.532C409.862 281.667 410.476 281.508 410.984 281.054C411.498 280.602 411.835 279.947 411.996 279.089C412.158 278.225 412.078 277.489 411.756 276.88C411.442 276.267 410.939 275.896 410.248 275.766ZM424.083 275.895C423.966 276.523 423.694 277.051 423.269 277.478C422.849 277.906 422.331 278.205 421.715 278.376C422.318 278.781 422.76 279.29 423.039 279.903C423.323 280.516 423.401 281.166 423.273 281.851C423.07 282.94 422.539 283.737 421.681 284.245C420.829 284.753 419.804 284.895 418.606 284.671C417.396 284.444 416.486 283.94 415.875 283.158C415.271 282.372 415.071 281.437 415.273 280.354C415.4 279.675 415.699 279.096 416.17 278.618C416.647 278.141 417.24 277.822 417.95 277.663C417.443 277.282 417.074 276.817 416.843 276.267C416.612 275.717 416.554 275.131 416.671 274.509C416.869 273.449 417.366 272.672 418.162 272.177C418.958 271.682 419.912 271.539 421.023 271.746C422.129 271.953 422.964 272.431 423.527 273.18C424.096 273.931 424.281 274.836 424.083 275.895ZM421.681 281.517C421.813 280.815 421.695 280.2 421.329 279.672C420.969 279.146 420.428 278.815 419.708 278.68C418.988 278.546 418.369 278.656 417.849 279.012C417.335 279.369 417.012 279.905 416.878 280.619C416.744 281.333 416.85 281.934 417.193 282.421C417.543 282.91 418.095 283.225 418.85 283.366C419.598 283.506 420.224 283.412 420.727 283.082C421.231 282.748 421.549 282.226 421.681 281.517ZM420.778 273.06C420.15 272.942 419.604 273.043 419.139 273.361C418.681 273.675 418.389 274.166 418.264 274.834C418.145 275.473 418.238 276.027 418.543 276.495C418.856 276.959 419.332 277.251 419.971 277.371C420.611 277.49 421.157 277.39 421.61 277.069C422.071 276.744 422.361 276.262 422.48 275.622C422.6 274.983 422.498 274.425 422.177 273.947C421.855 273.47 421.388 273.174 420.778 273.06ZM430.098 281.357C430.342 280.056 430.749 278.838 431.318 277.705C431.894 276.573 432.618 275.582 433.493 274.732C434.367 273.882 435.213 273.325 436.032 273.061L436.163 274.176C435.201 274.664 434.326 275.52 433.537 276.743C432.753 277.967 432.182 279.396 431.823 281.027L431.677 281.76C431.261 283.983 431.307 285.989 431.813 287.776C432.119 288.847 432.557 289.722 433.128 290.401L432.617 291.315C431.931 290.746 431.333 289.895 430.823 288.762C429.83 286.55 429.589 284.082 430.098 281.357ZM443.329 289.117L435.087 287.575L435.302 286.426L440.561 282.403C441.343 281.792 441.898 281.281 442.225 280.872C442.558 280.457 442.771 280.005 442.863 279.516C442.986 278.859 442.888 278.283 442.569 277.789C442.25 277.294 441.76 276.985 441.097 276.861C440.302 276.712 439.641 276.824 439.112 277.196C438.59 277.563 438.254 278.15 438.103 278.956L436.505 278.657C436.721 277.5 437.268 276.633 438.145 276.058C439.027 275.484 440.093 275.314 441.343 275.548C442.512 275.766 443.379 276.247 443.943 276.991C444.509 277.728 444.696 278.607 444.505 279.626C444.274 280.865 443.209 282.191 441.311 283.607L437.258 286.631L443.573 287.812L443.329 289.117ZM444.666 291.96L443.875 291.168C444.558 290.515 444.985 289.79 445.158 288.994L445.428 287.551L446.992 287.844L446.757 289.096C446.648 289.678 446.396 290.233 445.999 290.761C445.608 291.29 445.164 291.689 444.666 291.96ZM456.033 287.121L457.778 287.447L457.534 288.752L455.789 288.425L455.242 291.345L453.635 291.045L454.182 288.125L448.454 287.053L448.63 286.112L455.893 278.448L457.595 278.767L456.033 287.121ZM450.512 286.088L454.426 286.82L455.58 280.652L455.325 280.962L450.512 286.088ZM460.193 281.756C460.334 281.002 460.689 280.424 461.259 280.024C461.834 279.625 462.499 279.496 463.253 279.637C464.019 279.781 464.592 280.144 464.972 280.728C465.358 281.307 465.478 281.988 465.332 282.771L465.217 283.385C465.075 284.145 464.717 284.722 464.142 285.115C463.575 285.503 462.92 285.628 462.177 285.489C461.428 285.349 460.853 284.994 460.453 284.425C460.054 283.849 459.93 283.161 460.079 282.361L460.193 281.756ZM461.26 282.644C461.176 283.094 461.233 283.489 461.432 283.83C461.631 284.165 461.944 284.373 462.371 284.453C462.779 284.529 463.134 284.449 463.435 284.214C463.741 283.979 463.94 283.617 464.031 283.127L464.149 282.496C464.233 282.047 464.179 281.652 463.986 281.312C463.794 280.972 463.484 280.762 463.058 280.683C462.632 280.603 462.267 280.687 461.965 280.934C461.662 281.182 461.467 281.541 461.378 282.014L461.26 282.644ZM464.994 289.977C465.135 289.223 465.49 288.649 466.059 288.254C466.634 287.855 467.299 287.726 468.053 287.867C468.808 288.008 469.382 288.366 469.775 288.94C470.168 289.515 470.29 290.202 470.14 291.003L470.026 291.616C469.885 292.371 469.526 292.947 468.951 293.346C468.382 293.741 467.724 293.868 466.975 293.728C466.226 293.588 465.652 293.233 465.252 292.663C464.853 292.088 464.728 291.4 464.878 290.599L464.994 289.977ZM466.06 290.874C465.975 291.329 466.032 291.727 466.23 292.069C466.43 292.404 466.743 292.611 467.169 292.691C467.584 292.769 467.941 292.69 468.242 292.454C468.543 292.212 468.74 291.846 468.831 291.357L468.951 290.718C469.036 290.263 468.979 289.867 468.779 289.532C468.585 289.198 468.278 288.991 467.858 288.913C467.449 288.836 467.088 288.918 466.775 289.157C466.469 289.392 466.27 289.751 466.18 290.235L466.06 290.874ZM461.424 291.518L460.624 290.778L468.606 282.096L469.406 282.836L461.424 291.518ZM476.181 290.067C475.941 291.352 475.54 292.552 474.98 293.669C474.426 294.782 473.707 295.771 472.824 296.637C471.946 297.504 471.088 298.077 470.249 298.355L470.095 297.316C471.109 296.802 472.018 295.881 472.82 294.553C473.63 293.22 474.204 291.682 474.542 289.939L474.594 289.663C474.82 288.453 474.903 287.307 474.844 286.223C474.785 285.133 474.606 284.133 474.305 283.225C474.01 282.317 473.623 281.58 473.145 281.014L473.664 280.101C474.346 280.663 474.937 281.501 475.438 282.614C475.945 283.728 476.258 284.91 476.375 286.16C476.499 287.411 476.434 288.714 476.181 290.067Z" fill="white"/>
<path d="M415.562 246.687L415.469 248.064L415.171 248.044C413.906 247.982 412.876 248.288 412.078 248.962C411.281 249.637 410.779 250.627 410.573 251.935C411.298 251.209 412.242 250.885 413.405 250.964C414.516 251.039 415.375 251.491 415.983 252.319C416.596 253.147 416.861 254.181 416.777 255.42C416.688 256.736 416.257 257.764 415.485 258.504C414.718 259.245 413.733 259.575 412.528 259.493C411.306 259.411 410.347 258.876 409.651 257.889C408.954 256.896 408.656 255.661 408.756 254.182L408.798 253.559C408.957 251.209 409.579 249.448 410.662 248.276C411.752 247.099 413.289 246.563 415.273 246.668L415.562 246.687ZM413.042 252.296C412.486 252.258 411.964 252.39 411.473 252.692C410.983 252.993 410.63 253.389 410.415 253.88L410.375 254.476C410.304 255.528 410.483 256.392 410.913 257.067C411.343 257.742 411.912 258.104 412.619 258.152C413.35 258.201 413.941 257.971 414.392 257.461C414.85 256.952 415.108 256.262 415.167 255.391C415.226 254.514 415.061 253.792 414.67 253.225C414.286 252.653 413.743 252.343 413.042 252.296ZM425.554 255.891L427.326 256.011L427.236 257.335L425.465 257.215L425.264 260.179L423.633 260.069L423.834 257.105L418.02 256.711L418.084 255.755L424.401 247.295L426.128 247.411L425.554 255.891ZM419.951 255.512L423.923 255.781L424.347 249.52L424.13 249.857L419.951 255.512ZM433.41 255.524C433.5 254.203 433.761 252.946 434.194 251.754C434.633 250.562 435.237 249.493 436.006 248.547C436.774 247.601 437.55 246.948 438.332 246.59L438.592 247.683C437.695 248.279 436.925 249.232 436.285 250.539C435.65 251.847 435.25 253.332 435.085 254.995L435.025 255.739C434.873 257.996 435.152 259.982 435.864 261.698C436.294 262.726 436.832 263.543 437.478 264.151L437.077 265.119C436.329 264.634 435.636 263.859 434.997 262.794C433.752 260.713 433.223 258.289 433.41 255.524ZM447.458 261.681L439.093 261.115L439.172 259.949L443.924 255.337C444.629 254.639 445.119 254.068 445.396 253.622C445.679 253.172 445.838 252.698 445.871 252.201C445.916 251.535 445.752 250.974 445.377 250.52C445.003 250.066 444.479 249.816 443.807 249.771C443 249.716 442.356 249.905 441.875 250.336C441.4 250.762 441.134 251.384 441.079 252.203L439.457 252.093C439.536 250.918 439.978 249.993 440.781 249.319C441.59 248.646 442.629 248.352 443.897 248.438C445.084 248.518 446.001 248.895 446.649 249.567C447.296 250.233 447.585 251.084 447.515 252.118C447.43 253.375 446.528 254.818 444.809 256.446L441.138 259.923L447.548 260.357L447.458 261.681ZM449.119 264.348L448.241 263.655C448.842 262.926 449.182 262.156 449.26 261.345L449.36 259.881L450.947 259.988L450.861 261.26C450.821 261.85 450.635 262.431 450.302 263.001C449.976 263.572 449.581 264.021 449.119 264.348ZM455.546 255.023L456.765 255.105C457.532 255.146 458.148 254.985 458.613 254.623C459.078 254.261 459.333 253.746 459.378 253.08C459.479 251.583 458.784 250.785 457.294 250.684C456.592 250.636 456.017 250.8 455.569 251.175C455.127 251.544 454.884 252.059 454.839 252.72L453.217 252.61C453.285 251.599 453.71 250.785 454.492 250.168C455.28 249.546 456.244 249.274 457.384 249.351C458.588 249.432 459.511 249.815 460.152 250.498C460.792 251.182 461.075 252.091 460.998 253.225C460.96 253.78 460.743 254.306 460.345 254.802C459.953 255.298 459.439 255.653 458.802 255.869C459.488 256.138 460.004 256.543 460.349 257.083C460.7 257.624 460.85 258.265 460.8 259.008C460.723 260.154 460.287 261.037 459.493 261.659C458.699 262.281 457.703 262.551 456.505 262.47C455.306 262.389 454.352 261.998 453.642 261.298C452.937 260.599 452.621 259.717 452.693 258.653L454.324 258.763C454.279 259.436 454.462 259.988 454.873 260.421C455.284 260.854 455.858 261.096 456.594 261.146C457.378 261.199 457.991 261.035 458.434 260.654C458.876 260.272 459.124 259.699 459.175 258.933C459.226 258.191 459.036 257.605 458.607 257.177C458.178 256.749 457.534 256.499 456.676 256.43L455.457 256.347L455.546 255.023ZM463.344 252.397C463.396 251.631 463.681 251.016 464.2 250.552C464.725 250.088 465.37 249.883 466.136 249.934C466.914 249.987 467.525 250.281 467.97 250.816C468.422 251.346 468.621 252.008 468.567 252.803L468.525 253.426C468.473 254.198 468.184 254.812 467.66 255.27C467.142 255.723 466.506 255.923 465.752 255.872C464.992 255.821 464.38 255.536 463.916 255.017C463.452 254.492 463.248 253.823 463.303 253.011L463.344 252.397ZM464.509 253.154C464.478 253.61 464.581 253.996 464.818 254.311C465.055 254.621 465.39 254.791 465.823 254.82C466.238 254.848 466.581 254.727 466.852 254.458C467.128 254.189 467.283 253.806 467.317 253.309L467.36 252.669C467.391 252.213 467.291 251.827 467.06 251.512C466.829 251.197 466.497 251.025 466.064 250.995C465.632 250.966 465.279 251.092 465.008 251.373C464.736 251.654 464.584 252.035 464.552 252.514L464.509 253.154ZM469.075 260C469.127 259.234 469.412 258.622 469.931 258.164C470.455 257.7 471.101 257.494 471.867 257.546C472.632 257.598 473.244 257.886 473.702 258.41C474.16 258.934 474.361 259.603 474.306 260.415L474.264 261.038C474.212 261.804 473.924 262.419 473.399 262.882C472.881 263.34 472.242 263.544 471.482 263.492C470.722 263.441 470.11 263.156 469.646 262.637C469.182 262.112 468.978 261.444 469.033 260.631L469.075 260ZM470.239 260.766C470.208 261.227 470.311 261.616 470.548 261.932C470.785 262.241 471.12 262.411 471.553 262.44C471.974 262.469 472.32 262.348 472.59 262.079C472.862 261.803 473.014 261.417 473.048 260.92L473.091 260.271C473.123 259.81 473.02 259.424 472.782 259.114C472.551 258.805 472.221 258.636 471.795 258.607C471.38 258.579 471.031 258.702 470.748 258.976C470.471 259.245 470.316 259.626 470.283 260.117L470.239 260.766ZM465.71 261.948L464.829 261.307L471.739 251.75L472.621 252.391L465.71 261.948ZM480.196 258.779C480.108 260.083 479.85 261.322 479.424 262.497C479.005 263.667 478.407 264.733 477.631 265.697C476.861 266.661 476.076 267.33 475.275 267.704L475 266.69C475.947 266.062 476.742 265.041 477.383 263.628C478.031 262.209 478.421 260.615 478.553 258.844L478.572 258.563C478.655 257.336 478.604 256.187 478.418 255.117C478.232 254.042 477.936 253.07 477.531 252.203C477.132 251.336 476.662 250.65 476.12 250.143L476.529 249.176C477.272 249.655 477.957 250.417 478.586 251.464C479.219 252.511 479.668 253.649 479.931 254.876C480.201 256.104 480.289 257.405 480.196 258.779Z" fill="white"/>
<path d="M414.733 224.163L414.835 225.539L414.537 225.561C413.277 225.678 412.299 226.126 411.605 226.906C410.91 227.686 410.553 228.737 410.534 230.061C411.149 229.24 412.037 228.786 413.2 228.7C414.311 228.618 415.225 228.944 415.943 229.678C416.667 230.412 417.075 231.398 417.166 232.637C417.264 233.952 416.982 235.03 416.321 235.872C415.667 236.714 414.738 237.179 413.534 237.268C412.313 237.359 411.288 236.964 410.459 236.085C409.63 235.201 409.161 234.019 409.051 232.541L409.005 231.919C408.832 229.57 409.199 227.739 410.106 226.426C411.019 225.107 412.465 224.36 414.444 224.184L414.733 224.163ZM413.028 230.07C412.473 230.111 411.974 230.315 411.531 230.683C411.089 231.051 410.795 231.493 410.651 232.008L410.695 232.604C410.773 233.656 411.072 234.486 411.593 235.094C412.114 235.702 412.728 235.979 413.435 235.927C414.165 235.873 414.718 235.562 415.093 234.994C415.474 234.425 415.633 233.705 415.568 232.835C415.503 231.958 415.238 231.267 414.772 230.761C414.311 230.249 413.73 230.018 413.028 230.07ZM426.757 224.199L422.348 236.441L420.647 236.566L425.07 224.747L418.163 225.258L418.065 223.925L426.69 223.288L426.757 224.199ZM433.649 230.397C433.551 229.076 433.633 227.795 433.893 226.554C434.16 225.312 434.607 224.168 435.235 223.123C435.863 222.078 436.538 221.323 437.262 220.858L437.674 221.903C436.869 222.621 436.242 223.672 435.792 225.056C435.348 226.44 435.161 227.967 435.232 229.636L435.278 230.382C435.445 232.638 436.001 234.565 436.948 236.163C437.518 237.12 438.166 237.853 438.891 238.364L438.631 239.379C437.822 239.004 437.026 238.334 436.244 237.37C434.718 235.485 433.853 233.161 433.649 230.397ZM448.424 234.513L440.062 235.131L439.976 233.965L444.031 228.73C444.63 227.94 445.036 227.305 445.247 226.825C445.464 226.339 445.554 225.848 445.517 225.351C445.468 224.685 445.226 224.153 444.791 223.756C444.356 223.36 443.803 223.186 443.131 223.236C442.324 223.295 441.713 223.573 441.298 224.068C440.887 224.556 440.712 225.21 440.773 226.028L439.151 226.147C439.064 224.973 439.371 223.995 440.071 223.215C440.777 222.434 441.764 221.997 443.032 221.903C444.219 221.816 445.18 222.059 445.915 222.633C446.651 223.202 447.057 224.003 447.133 225.037C447.226 226.294 446.536 227.849 445.063 229.703L441.919 233.663L448.326 233.189L448.424 234.513ZM450.444 236.92L449.477 236.356C449.969 235.55 450.197 234.74 450.161 233.926L450.053 232.463L451.639 232.345L451.733 233.616C451.777 234.206 451.674 234.807 451.426 235.419C451.183 236.031 450.856 236.531 450.444 236.92ZM460.194 229.333L461.965 229.203L462.063 230.526L460.292 230.657L460.511 233.62L458.881 233.74L458.662 230.777L452.85 231.207L452.78 230.252L457.841 220.985L459.568 220.858L460.194 229.333ZM454.593 229.747L458.564 229.454L458.101 223.196L457.934 223.56L454.593 229.747ZM462.843 223.083C462.787 222.318 462.982 221.669 463.431 221.136C463.885 220.603 464.495 220.308 465.26 220.252C466.037 220.194 466.684 220.399 467.2 220.866C467.722 221.327 468.012 221.955 468.071 222.75L468.117 223.372C468.174 224.143 467.975 224.792 467.521 225.32C467.072 225.84 466.47 226.129 465.716 226.184C464.957 226.241 464.311 226.044 463.778 225.596C463.245 225.142 462.949 224.509 462.889 223.697L462.843 223.083ZM464.103 223.669C464.136 224.124 464.293 224.492 464.572 224.771C464.851 225.044 465.206 225.165 465.639 225.133C466.053 225.102 466.376 224.934 466.606 224.629C466.842 224.324 466.942 223.923 466.905 223.426L466.858 222.786C466.824 222.331 466.67 221.963 466.397 221.683C466.124 221.404 465.771 221.28 465.339 221.312C464.906 221.344 464.575 221.518 464.346 221.835C464.117 222.152 464.02 222.55 464.055 223.029L464.103 223.669ZM469.588 229.802C469.532 229.037 469.728 228.391 470.176 227.864C470.631 227.331 471.24 227.036 472.006 226.98C472.771 226.923 473.418 227.122 473.945 227.577C474.472 228.031 474.766 228.665 474.826 229.477L474.872 230.099C474.928 230.865 474.729 231.514 474.275 232.047C473.827 232.574 473.222 232.865 472.463 232.921C471.703 232.977 471.057 232.781 470.524 232.333C469.991 231.879 469.695 231.246 469.635 230.433L469.588 229.802ZM470.848 230.397C470.883 230.858 471.039 231.229 471.318 231.508C471.597 231.781 471.953 231.901 472.385 231.869C472.806 231.838 473.131 231.67 473.361 231.365C473.591 231.055 473.687 230.651 473.651 230.154L473.603 229.506C473.569 229.044 473.412 228.677 473.133 228.403C472.861 228.13 472.511 228.009 472.084 228.04C471.669 228.071 471.341 228.242 471.1 228.554C470.864 228.859 470.764 229.257 470.8 229.748L470.848 230.397ZM466.532 232.205L465.568 231.695L471.063 221.259L472.026 221.77L466.532 232.205ZM480.426 227.027C480.522 228.33 480.442 229.593 480.186 230.817C479.935 232.034 479.494 233.174 478.861 234.237C478.235 235.3 477.552 236.073 476.812 236.557L476.397 235.592C477.246 234.836 477.888 233.713 478.325 232.224C478.766 230.728 478.928 229.094 478.809 227.323L478.788 227.042C478.697 225.815 478.484 224.685 478.149 223.653C477.814 222.614 477.385 221.694 476.861 220.892C476.344 220.09 475.781 219.477 475.174 219.052L475.443 218.036C476.246 218.406 477.032 219.064 477.801 220.012C478.576 220.96 479.181 222.022 479.614 223.201C480.054 224.378 480.324 225.654 480.426 227.027Z" fill="white"/>
<path d="M412.039 201.138L412.338 202.486L412.046 202.55C410.815 202.847 409.913 203.431 409.338 204.303C408.763 205.175 408.561 206.267 408.732 207.579C409.222 206.678 410.036 206.102 411.175 205.849C412.262 205.608 413.213 205.799 414.03 206.423C414.852 207.045 415.397 207.962 415.666 209.175C415.951 210.462 415.828 211.57 415.295 212.498C414.769 213.425 413.916 214.019 412.738 214.28C411.542 214.545 410.471 214.303 409.525 213.552C408.577 212.796 407.942 211.694 407.622 210.247L407.486 209.638C406.977 207.338 407.076 205.474 407.786 204.044C408.5 202.607 409.823 201.66 411.756 201.201L412.039 201.138ZM411.202 207.23C410.658 207.35 410.194 207.624 409.809 208.052C409.423 208.479 409.196 208.959 409.128 209.49L409.257 210.073C409.486 211.103 409.901 211.881 410.504 212.408C411.107 212.934 411.755 213.121 412.447 212.967C413.162 212.809 413.664 212.421 413.954 211.805C414.249 211.187 414.302 210.452 414.113 209.6C413.923 208.742 413.56 208.096 413.026 207.662C412.496 207.222 411.888 207.077 411.202 207.23ZM423.943 199.445L421.341 212.193L419.676 212.562L422.352 200.229L415.591 201.728L415.302 200.424L423.745 198.552L423.943 199.445ZM431.654 204.586C431.368 203.293 431.264 202.014 431.344 200.748C431.429 199.481 431.707 198.285 432.178 197.16C432.649 196.035 433.209 195.191 433.858 194.627L434.416 195.601C433.723 196.427 433.253 197.558 433.007 198.993C432.767 200.426 432.802 201.964 433.112 203.606L433.265 204.337C433.754 206.545 434.582 208.372 435.749 209.818C436.451 210.683 437.197 211.315 437.988 211.716L437.877 212.758C437.023 212.503 436.139 211.955 435.226 211.113C433.445 209.467 432.254 207.292 431.654 204.586ZM446.868 206.534L438.682 208.348L438.429 207.207L441.689 201.443C442.168 200.575 442.478 199.888 442.618 199.383C442.763 198.87 442.781 198.371 442.673 197.885C442.529 197.233 442.213 196.742 441.725 196.412C441.238 196.082 440.666 195.989 440.008 196.135C439.218 196.31 438.653 196.673 438.313 197.222C437.977 197.765 437.898 198.436 438.076 199.237L436.488 199.589C436.233 198.439 436.396 197.428 436.977 196.555C437.563 195.681 438.477 195.106 439.719 194.831C440.88 194.574 441.866 194.676 442.677 195.138C443.486 195.595 444.003 196.33 444.227 197.342C444.5 198.572 444.041 200.21 442.85 202.257L440.308 206.628L446.581 205.238L446.868 206.534ZM449.213 208.624L448.175 208.206C448.547 207.338 448.656 206.503 448.503 205.703L448.185 204.27L449.738 203.926L450.014 205.17C450.142 205.748 450.127 206.357 449.969 206.998C449.817 207.638 449.565 208.18 449.213 208.624ZM457.771 199.714L459.504 199.33L459.791 200.626L458.058 201.01L458.701 203.91L457.105 204.264L456.462 201.364L450.773 202.625L450.566 201.69L454.241 191.792L455.931 191.417L457.771 199.714ZM452.288 200.93L456.175 200.068L454.817 193.942L454.704 194.327L452.288 200.93ZM459.493 193.148C459.327 192.398 459.427 191.728 459.794 191.137C460.167 190.544 460.728 190.164 461.477 189.998C462.238 189.83 462.908 189.939 463.486 190.327C464.068 190.708 464.446 191.288 464.618 192.066L464.754 192.675C464.921 193.43 464.818 194.101 464.444 194.688C464.074 195.268 463.52 195.64 462.782 195.804C462.039 195.968 461.371 195.867 460.78 195.5C460.187 195.128 459.802 194.544 459.626 193.749L459.493 193.148ZM460.824 193.546C460.922 193.992 461.13 194.333 461.447 194.569C461.762 194.799 462.131 194.868 462.554 194.774C462.96 194.684 463.255 194.471 463.439 194.137C463.629 193.8 463.67 193.389 463.562 192.903L463.423 192.277C463.324 191.83 463.119 191.489 462.809 191.251C462.498 191.014 462.131 190.943 461.708 191.036C461.284 191.13 460.982 191.35 460.801 191.697C460.619 192.043 460.581 192.451 460.685 192.92L460.824 193.546ZM467.135 198.827C466.969 198.077 467.07 197.41 467.438 196.824C467.811 196.231 468.372 195.852 469.121 195.686C469.87 195.52 470.539 195.623 471.126 195.997C471.713 196.371 472.094 196.956 472.271 197.751L472.406 198.36C472.572 199.11 472.469 199.781 472.096 200.374C471.728 200.959 471.172 201.335 470.428 201.5C469.684 201.664 469.017 201.563 468.425 201.196C467.832 200.824 467.448 200.24 467.272 199.445L467.135 198.827ZM468.467 199.234C468.567 199.685 468.776 200.029 469.092 200.265C469.407 200.496 469.776 200.564 470.2 200.47C470.612 200.379 470.909 200.165 471.093 199.831C471.276 199.49 471.313 199.077 471.205 198.59L471.065 197.955C470.964 197.504 470.757 197.162 470.442 196.932C470.132 196.701 469.769 196.631 469.351 196.724C468.945 196.814 468.645 197.031 468.451 197.374C468.261 197.71 468.22 198.118 468.326 198.599L468.467 199.234ZM464.455 201.644L463.429 201.278L467.365 190.16L468.391 190.527L464.455 201.644ZM477.46 194.521C477.743 195.797 477.846 197.058 477.768 198.306C477.695 199.546 477.422 200.738 476.949 201.881C476.482 203.023 475.917 203.887 475.255 204.472L474.705 203.576C475.437 202.706 475.911 201.502 476.129 199.966C476.35 198.422 476.275 196.782 475.902 195.047L475.841 194.772C475.575 193.571 475.202 192.483 474.722 191.509C474.241 190.53 473.683 189.681 473.05 188.963C472.423 188.244 471.778 187.718 471.116 187.384L471.235 186.34C472.083 186.591 472.956 187.129 473.853 187.957C474.757 188.783 475.508 189.748 476.106 190.851C476.711 191.953 477.162 193.177 477.46 194.521Z" fill="white"/>
<path d="M399.1 177.193L391.319 180.316L390.883 179.231L393.161 173.013C393.493 172.078 393.687 171.35 393.743 170.829C393.802 170.3 393.739 169.804 393.554 169.342C393.305 168.722 392.913 168.289 392.379 168.043C391.844 167.796 391.264 167.799 390.639 168.05C389.888 168.351 389.39 168.8 389.144 169.398C388.901 169.988 388.932 170.664 389.237 171.425L387.728 172.031C387.29 170.938 387.286 169.913 387.717 168.957C388.153 167.999 388.961 167.284 390.141 166.81C391.245 166.367 392.235 166.308 393.11 166.632C393.983 166.951 394.612 167.591 394.999 168.554C395.468 169.723 395.282 171.414 394.44 173.627L392.644 178.354L398.606 175.961L399.1 177.193ZM403.94 162.446L403.448 175.448L401.865 176.083L402.499 163.479L396.071 166.059L395.574 164.819L403.6 161.598L403.94 162.446ZM417.861 169.663L410.079 172.786L409.644 171.702L411.922 165.484C412.253 164.549 412.447 163.821 412.503 163.299C412.562 162.771 412.499 162.275 412.314 161.813C412.065 161.193 411.673 160.76 411.139 160.513C410.604 160.267 410.024 160.269 409.399 160.52C408.649 160.822 408.15 161.271 407.904 161.869C407.661 162.459 407.692 163.134 407.998 163.896L406.489 164.501C406.05 163.408 406.046 162.384 406.477 161.428C406.913 160.47 407.721 159.754 408.901 159.281C410.005 158.838 410.995 158.778 411.87 159.102C412.743 159.421 413.373 160.062 413.759 161.025C414.228 162.194 414.042 163.885 413.2 166.098L411.404 170.825L417.366 168.432L417.861 169.663ZM421.766 162.499C421.273 161.27 420.962 160.024 420.835 158.762C420.712 157.498 420.792 156.273 421.074 155.087C421.355 153.9 421.77 152.976 422.319 152.314L423.028 153.185C422.479 154.112 422.199 155.304 422.19 156.76C422.187 158.214 422.471 159.725 423.044 161.294L423.314 161.991C424.157 164.09 425.271 165.758 426.658 166.994C427.491 167.733 428.33 168.236 429.176 168.503L429.236 169.549C428.351 169.437 427.39 169.04 426.353 168.358C424.327 167.024 422.798 165.071 421.766 162.499ZM434.272 163.077L432.755 163.686L428.718 153.629L426.124 155.967L425.574 154.597L429.246 151.239L429.482 151.144L434.272 163.077ZM444.107 153.248C444.816 155.016 445.041 156.45 444.783 157.551C444.524 158.653 443.753 159.461 442.469 159.976C441.202 160.485 440.096 160.442 439.151 159.849C438.204 159.251 437.384 158.121 436.693 156.461L435.884 154.446C435.184 152.701 434.965 151.282 435.228 150.192C435.491 149.101 436.267 148.298 437.556 147.78C438.834 147.267 439.939 147.3 440.872 147.879C441.803 148.453 442.62 149.59 443.321 151.291L444.107 153.248ZM441.77 151.79C441.257 150.512 440.704 149.655 440.112 149.217C439.517 148.774 438.831 148.708 438.053 149.02C437.281 149.33 436.835 149.847 436.715 150.571C436.595 151.294 436.772 152.262 437.246 153.473L438.215 155.888C438.73 157.171 439.296 158.046 439.912 158.512C440.532 158.97 441.219 159.048 441.975 158.744C442.72 158.445 443.156 157.936 443.284 157.215C443.417 156.493 443.243 155.508 442.762 154.262L441.77 151.79ZM444.093 147.998C443.807 147.286 443.797 146.608 444.062 145.964C444.334 145.319 444.826 144.853 445.538 144.567C446.261 144.277 446.94 144.276 447.573 144.565C448.21 144.846 448.677 145.356 448.974 146.096L449.206 146.675C449.494 147.393 449.501 148.072 449.228 148.712C448.958 149.344 448.472 149.801 447.77 150.083C447.064 150.366 446.388 150.375 445.745 150.11C445.1 149.838 444.625 149.325 444.322 148.569L444.093 147.998ZM445.47 148.174C445.64 148.598 445.901 148.901 446.251 149.082C446.6 149.258 446.975 149.265 447.378 149.104C447.764 148.949 448.02 148.691 448.147 148.331C448.279 147.969 448.253 147.556 448.067 147.094L447.828 146.499C447.658 146.074 447.4 145.771 447.055 145.587C446.71 145.404 446.336 145.393 445.934 145.554C445.532 145.716 445.269 145.982 445.147 146.353C445.024 146.724 445.052 147.133 445.231 147.579L445.47 148.174ZM452.557 152.357C452.271 151.645 452.262 150.97 452.53 150.332C452.801 149.686 453.293 149.221 454.005 148.935C454.718 148.649 455.394 148.643 456.034 148.916C456.674 149.189 457.146 149.704 457.449 150.46L457.682 151.039C457.967 151.751 457.975 152.43 457.704 153.076C457.436 153.714 456.948 154.175 456.241 154.458C455.534 154.742 454.859 154.751 454.216 154.485C453.57 154.214 453.096 153.7 452.792 152.945L452.557 152.357ZM453.938 152.542C454.11 152.971 454.372 153.277 454.722 153.458C455.071 153.634 455.446 153.641 455.848 153.48C456.24 153.322 456.499 153.064 456.626 152.703C456.751 152.338 456.72 151.924 456.535 151.462L456.292 150.858C456.12 150.428 455.86 150.126 455.511 149.95C455.168 149.772 454.798 149.762 454.401 149.922C454.015 150.077 453.755 150.339 453.619 150.709C453.487 151.072 453.512 151.481 453.695 151.938L453.938 152.542ZM450.372 155.573L449.299 155.379L451.373 143.769L452.446 143.964L450.372 155.573ZM462.044 146.428C462.53 147.641 462.837 148.869 462.964 150.112C463.093 151.348 463.018 152.569 462.738 153.774C462.463 154.976 462.046 155.92 461.488 156.605L460.8 155.811C461.379 154.833 461.652 153.569 461.616 152.017C461.584 150.458 461.242 148.852 460.592 147.2L460.487 146.939C460.029 145.797 459.484 144.785 458.852 143.902C458.217 143.014 457.529 142.267 456.788 141.662C456.052 141.055 455.33 140.641 454.622 140.419L454.57 139.37C455.447 139.479 456.396 139.868 457.416 140.539C458.442 141.207 459.34 142.036 460.111 143.028C460.887 144.017 461.531 145.15 462.044 146.428Z" fill="white"/>
<path d="M372.785 135.856C373.189 136.35 373.418 136.897 373.471 137.498C373.529 138.095 373.424 138.684 373.159 139.265C373.857 139.064 374.531 139.054 375.179 139.234C375.832 139.412 376.379 139.77 376.821 140.309C377.523 141.165 377.792 142.085 377.628 143.068C377.469 144.047 376.918 144.923 375.975 145.696C375.023 146.476 374.052 146.848 373.06 146.812C372.07 146.768 371.225 146.32 370.527 145.468C370.088 144.934 369.838 144.332 369.775 143.664C369.717 142.992 369.855 142.333 370.189 141.688C369.572 141.831 368.978 141.813 368.408 141.636C367.839 141.459 367.354 141.126 366.952 140.636C366.269 139.803 365.994 138.922 366.128 137.994C366.261 137.066 366.765 136.244 367.64 135.527C368.51 134.814 369.413 134.483 370.349 134.534C371.289 134.581 372.101 135.022 372.785 135.856ZM375.541 141.313C375.088 140.76 374.542 140.454 373.902 140.395C373.267 140.332 372.667 140.532 372.1 140.997C371.534 141.461 371.22 142.006 371.157 142.633C371.1 143.256 371.301 143.849 371.762 144.41C372.223 144.972 372.75 145.279 373.345 145.329C373.944 145.376 374.54 145.156 375.134 144.67C375.723 144.187 376.053 143.647 376.125 143.05C376.193 142.449 375.998 141.87 375.541 141.313ZM368.487 136.56C367.993 136.965 367.718 137.448 367.662 138.009C367.608 138.561 367.796 139.1 368.227 139.626C368.639 140.129 369.123 140.414 369.678 140.482C370.234 140.541 370.764 140.365 371.267 139.952C371.77 139.54 372.045 139.057 372.091 138.504C372.139 137.942 371.956 137.41 371.544 136.907C371.131 136.404 370.639 136.122 370.066 136.061C369.494 136 368.967 136.167 368.487 136.56ZM381.848 133.382C381.841 133.91 381.733 134.419 381.522 134.911C381.315 135.398 380.994 135.82 380.559 136.177C379.988 136.645 379.375 136.913 378.718 136.981C378.067 137.045 377.417 136.919 376.77 136.601C376.119 136.278 375.541 135.808 375.036 135.192C374.494 134.531 374.13 133.833 373.945 133.098C373.764 132.36 373.789 131.661 374.021 131.001C374.253 130.341 374.677 129.759 375.294 129.253C376.272 128.451 377.344 128.187 378.507 128.46C379.672 128.726 380.772 129.49 381.809 130.755L382.109 131.122C383.688 133.048 384.461 134.767 384.427 136.279C384.39 137.787 383.613 139.181 382.096 140.463L381.851 140.664L380.982 139.603L381.247 139.386C382.27 138.517 382.846 137.594 382.976 136.616C383.103 135.633 382.727 134.555 381.848 133.382ZM379.911 134.969C380.332 134.624 380.614 134.177 380.755 133.629C380.902 133.078 380.9 132.544 380.752 132.03L380.339 131.527C379.663 130.702 378.935 130.178 378.153 129.955C377.372 129.732 376.707 129.845 376.158 130.295C375.606 130.748 375.336 131.325 375.35 132.026C375.36 132.722 375.649 133.417 376.218 134.11C376.771 134.785 377.389 135.211 378.071 135.387C378.754 135.554 379.367 135.415 379.911 134.969ZM388.653 128.36C387.814 127.336 387.144 126.241 386.643 125.076C386.147 123.907 385.855 122.714 385.767 121.498C385.68 120.282 385.798 119.276 386.123 118.479L387.061 119.097C386.815 120.147 386.906 121.367 387.335 122.759C387.768 124.146 388.493 125.503 389.511 126.828L389.978 127.411C391.411 129.16 392.975 130.416 394.669 131.18C395.686 131.634 396.637 131.862 397.524 131.862L397.895 132.842C397.018 133.001 395.982 132.911 394.787 132.572C392.455 131.907 390.41 130.504 388.653 128.36ZM393.894 121.485L394.838 120.711C395.425 120.215 395.763 119.676 395.854 119.094C395.945 118.512 395.779 117.962 395.355 117.446C394.405 116.286 393.351 116.179 392.196 117.126C391.652 117.572 391.345 118.085 391.275 118.665C391.206 119.237 391.381 119.779 391.801 120.291L390.544 121.322C389.901 120.538 389.653 119.654 389.801 118.669C389.949 117.676 390.465 116.817 391.349 116.093C392.282 115.328 393.217 114.975 394.152 115.034C395.087 115.094 395.915 115.563 396.635 116.442C396.988 116.873 397.189 117.405 397.239 118.038C397.293 118.668 397.162 119.28 396.845 119.873C397.53 119.599 398.183 119.541 398.804 119.698C399.43 119.852 399.979 120.217 400.451 120.792C401.179 121.68 401.467 122.623 401.314 123.619C401.161 124.616 400.62 125.495 399.691 126.256C398.762 127.018 397.799 127.387 396.802 127.363C395.81 127.335 394.976 126.909 394.3 126.084L395.564 125.048C395.991 125.569 396.503 125.847 397.099 125.881C397.695 125.915 398.279 125.698 398.85 125.23C399.457 124.732 399.791 124.193 399.853 123.612C399.915 123.031 399.702 122.444 399.216 121.85C398.744 121.275 398.205 120.978 397.599 120.959C396.993 120.941 396.353 121.2 395.68 121.737L394.735 122.512L393.894 121.485ZM397.779 114.232C397.292 113.639 397.079 112.995 397.139 112.301C397.204 111.604 397.533 111.012 398.127 110.526C398.73 110.032 399.377 109.827 400.068 109.912C400.76 109.989 401.358 110.336 401.863 110.952L402.259 111.435C402.749 112.033 402.96 112.678 402.891 113.371C402.823 114.055 402.497 114.637 401.913 115.116C401.324 115.599 400.682 115.811 399.989 115.75C399.292 115.685 398.685 115.338 398.169 114.708L397.779 114.232ZM399.146 113.987C399.435 114.34 399.775 114.551 400.163 114.618C400.549 114.682 400.909 114.576 401.244 114.301C401.566 114.037 401.733 113.714 401.746 113.333C401.763 112.947 401.614 112.562 401.298 112.177L400.892 111.68C400.602 111.327 400.265 111.114 399.881 111.043C399.496 110.972 399.137 111.073 398.801 111.348C398.466 111.623 398.296 111.956 398.29 112.347C398.285 112.738 398.434 113.119 398.739 113.49L399.146 113.987ZM407.161 115.849C406.674 115.255 406.463 114.614 406.527 113.925C406.592 113.228 406.922 112.636 407.515 112.149C408.109 111.663 408.752 111.454 409.445 111.522C410.137 111.591 410.742 111.94 411.258 112.57L411.654 113.053C412.14 113.646 412.351 114.292 412.286 114.989C412.222 115.678 411.895 116.264 411.306 116.747C410.717 117.23 410.076 117.441 409.383 117.38C408.685 117.316 408.079 116.968 407.562 116.338L407.161 115.849ZM408.534 115.61C408.827 115.968 409.168 116.181 409.557 116.249C409.942 116.312 410.302 116.206 410.638 115.931C410.964 115.664 411.134 115.339 411.146 114.957C411.156 114.571 411.002 114.185 410.687 113.8L410.274 113.297C409.981 112.939 409.642 112.728 409.256 112.665C408.876 112.598 408.52 112.701 408.189 112.972C407.868 113.235 407.698 113.564 407.679 113.958C407.662 114.343 407.809 114.727 408.121 115.107L408.534 115.61ZM406.043 119.573L404.961 119.709L403.454 108.012L404.535 107.876L406.043 119.573ZM414.43 107.345C415.258 108.355 415.92 109.435 416.414 110.583C416.909 111.723 417.203 112.909 417.298 114.143C417.396 115.373 417.282 116.398 416.955 117.219L416.061 116.668C416.32 115.562 416.2 114.273 415.7 112.804C415.201 111.327 414.394 109.898 413.277 108.517L413.099 108.3C412.319 107.348 411.495 106.546 410.627 105.894C409.755 105.237 408.875 104.731 407.986 104.377C407.101 104.019 406.288 103.84 405.547 103.842L405.182 102.856C406.052 102.697 407.073 102.783 408.248 103.116C409.427 103.445 410.533 103.967 411.565 104.682C412.602 105.392 413.557 106.28 414.43 107.345Z" fill="white"/>
</svg>
