<svg width="276" height="372" viewBox="0 0 276 372" fill="none" xmlns="http://www.w3.org/2000/svg">
<path d="M50.3271 9.5918H46.2139V21H44.5352V9.5918H40.4307V8.20312H50.3271V9.5918ZM50.6611 16.1572C50.6611 15.2256 50.8428 14.3877 51.2061 13.6436C51.5752 12.8994 52.085 12.3252 52.7354 11.9209C53.3916 11.5166 54.1387 11.3145 54.9766 11.3145C56.2715 11.3145 57.3174 11.7627 58.1143 12.6592C58.917 13.5557 59.3184 14.748 59.3184 16.2363V16.3506C59.3184 17.2764 59.1396 18.1084 58.7822 18.8467C58.4307 19.5791 57.9238 20.1504 57.2617 20.5605C56.6055 20.9707 55.8496 21.1758 54.9941 21.1758C53.7051 21.1758 52.6592 20.7275 51.8564 19.8311C51.0596 18.9346 50.6611 17.748 50.6611 16.2715V16.1572ZM52.2959 16.3506C52.2959 17.4053 52.5391 18.252 53.0254 18.8906C53.5176 19.5293 54.1738 19.8486 54.9941 19.8486C55.8203 19.8486 56.4766 19.5264 56.9629 18.8818C57.4492 18.2314 57.6924 17.3232 57.6924 16.1572C57.6924 15.1143 57.4434 14.2705 56.9453 13.626C56.4531 12.9756 55.7969 12.6504 54.9766 12.6504C54.1738 12.6504 53.5264 12.9697 53.0342 13.6084C52.542 14.2471 52.2959 15.1611 52.2959 16.3506ZM69.3906 16.3506C69.3906 17.7979 69.0596 18.9639 68.3975 19.8486C67.7354 20.7334 66.8389 21.1758 65.708 21.1758C64.5537 21.1758 63.6455 20.8096 62.9834 20.0771V24.6562H61.3574V11.4902H62.8428L62.9219 12.5449C63.584 11.7246 64.5039 11.3145 65.6816 11.3145C66.8242 11.3145 67.7266 11.7451 68.3887 12.6064C69.0566 13.4678 69.3906 14.666 69.3906 16.2012V16.3506ZM67.7646 16.166C67.7646 15.0938 67.5361 14.2471 67.0791 13.626C66.6221 13.0049 65.9951 12.6943 65.1982 12.6943C64.2139 12.6943 63.4756 13.1309 62.9834 14.0039V18.5479C63.4697 19.415 64.2139 19.8486 65.2158 19.8486C65.9951 19.8486 66.6133 19.541 67.0703 18.9258C67.5332 18.3047 67.7646 17.3848 67.7646 16.166ZM77.6084 12.835H73.2227V21H71.5879V11.4902H77.6084V12.835ZM78.417 16.1572C78.417 15.2256 78.5986 14.3877 78.9619 13.6436C79.3311 12.8994 79.8408 12.3252 80.4912 11.9209C81.1475 11.5166 81.8945 11.3145 82.7324 11.3145C84.0273 11.3145 85.0732 11.7627 85.8701 12.6592C86.6729 13.5557 87.0742 14.748 87.0742 16.2363V16.3506C87.0742 17.2764 86.8955 18.1084 86.5381 18.8467C86.1865 19.5791 85.6797 20.1504 85.0176 20.5605C84.3613 20.9707 83.6055 21.1758 82.75 21.1758C81.4609 21.1758 80.415 20.7275 79.6123 19.8311C78.8154 18.9346 78.417 17.748 78.417 16.2715V16.1572ZM80.0518 16.3506C80.0518 17.4053 80.2949 18.252 80.7812 18.8906C81.2734 19.5293 81.9297 19.8486 82.75 19.8486C83.5762 19.8486 84.2324 19.5264 84.7188 18.8818C85.2051 18.2314 85.4482 17.3232 85.4482 16.1572C85.4482 15.1143 85.1992 14.2705 84.7012 13.626C84.209 12.9756 83.5527 12.6504 82.7324 12.6504C81.9297 12.6504 81.2822 12.9697 80.79 13.6084C80.2979 14.2471 80.0518 15.1611 80.0518 16.3506ZM89.2627 21V11.4902H92.9717C94.2373 11.4902 95.207 11.7129 95.8809 12.1582C96.5605 12.5977 96.9004 13.2451 96.9004 14.1006C96.9004 14.54 96.7686 14.9385 96.5049 15.2959C96.2412 15.6475 95.8516 15.917 95.3359 16.1045C95.9102 16.2393 96.3701 16.5029 96.7158 16.8955C97.0674 17.2881 97.2432 17.7568 97.2432 18.3018C97.2432 19.1748 96.9209 19.8428 96.2764 20.3057C95.6377 20.7686 94.7324 21 93.5605 21H89.2627ZM90.8887 16.8252V19.6904H93.5781C94.2578 19.6904 94.7646 19.5645 95.0986 19.3125C95.4385 19.0605 95.6084 18.7061 95.6084 18.249C95.6084 17.2998 94.9111 16.8252 93.5166 16.8252H90.8887ZM90.8887 15.5244H92.9893C94.5127 15.5244 95.2744 15.0791 95.2744 14.1885C95.2744 13.2979 94.5537 12.8379 93.1123 12.8086H90.8887V15.5244ZM107.192 11.4902V21H105.558V12.835H102.323L102.13 16.3945C102.024 18.0293 101.749 19.1982 101.304 19.9014C100.864 20.6045 100.164 20.9707 99.2031 21H98.5527V19.5674L99.0186 19.5322C99.5459 19.4736 99.9238 19.1689 100.152 18.6182C100.381 18.0674 100.527 17.0479 100.592 15.5596L100.768 11.4902H107.192ZM117.071 11.4902V21H115.437V17.2998H112.984L110.743 21H108.985L111.376 17.0537C110.767 16.8311 110.298 16.4883 109.97 16.0254C109.647 15.5566 109.486 15.0117 109.486 14.3906C109.486 13.5234 109.812 12.8262 110.462 12.2988C111.112 11.7656 111.982 11.4961 113.072 11.4902H117.071ZM111.121 14.4082C111.121 14.8711 111.279 15.2461 111.596 15.5332C111.912 15.8145 112.331 15.958 112.853 15.9639H115.437V12.8086H113.099C112.495 12.8086 112.015 12.958 111.657 13.2568C111.3 13.5498 111.121 13.9336 111.121 14.4082Z" fill="#3E3E41"/>
<rect width="30" height="30" rx="10" fill="#D8353C"/>
<path d="M51.3291 62.0146C51.3291 63.2686 51.1182 64.3643 50.6963 65.3018C50.2744 66.2334 49.6768 66.9453 48.9033 67.4375C48.1299 67.9297 47.2275 68.1758 46.1963 68.1758C45.1885 68.1758 44.2949 67.9297 43.5156 67.4375C42.7363 66.9395 42.1299 66.2334 41.6963 65.3193C41.2686 64.3994 41.0488 63.3359 41.0371 62.1289V61.2061C41.0371 59.9756 41.251 58.8887 41.6787 57.9453C42.1064 57.002 42.71 56.2812 43.4893 55.7832C44.2744 55.2793 45.1709 55.0273 46.1787 55.0273C47.2041 55.0273 48.1064 55.2764 48.8857 55.7744C49.6709 56.2666 50.2744 56.9844 50.6963 57.9277C51.1182 58.8652 51.3291 59.958 51.3291 61.2061V62.0146ZM49.6504 61.1885C49.6504 59.6709 49.3457 58.5078 48.7363 57.6992C48.127 56.8848 47.2744 56.4775 46.1787 56.4775C45.1123 56.4775 44.2715 56.8848 43.6562 57.6992C43.0469 58.5078 42.7334 59.6328 42.7158 61.0742V62.0146C42.7158 63.4854 43.0234 64.6426 43.6387 65.4863C44.2598 66.3242 45.1123 66.7432 46.1963 66.7432C47.2861 66.7432 48.1299 66.3477 48.7275 65.5566C49.3252 64.7598 49.6328 63.6201 49.6504 62.1377V61.1885ZM57.7803 59.0352C58.9756 59.0352 59.9307 59.4365 60.6455 60.2393C61.3662 61.0361 61.7266 62.0879 61.7266 63.3945V63.5439C61.7266 64.4404 61.5537 65.2432 61.208 65.9521C60.8623 66.6553 60.3643 67.2031 59.7139 67.5957C59.0693 67.9824 58.3252 68.1758 57.4814 68.1758C56.2041 68.1758 55.1758 67.751 54.3965 66.9014C53.6172 66.0459 53.2275 64.9004 53.2275 63.4648V62.6738C53.2275 60.6758 53.5967 59.0879 54.335 57.9102C55.0791 56.7324 56.1748 56.0146 57.6221 55.7568C58.4424 55.6104 58.9961 55.4316 59.2832 55.2207C59.5703 55.0098 59.7139 54.7197 59.7139 54.3506H61.0498C61.0498 55.083 60.8828 55.6543 60.5488 56.0645C60.2207 56.4746 59.6934 56.7646 58.9668 56.9346L57.7539 57.207C56.7871 57.4355 56.0605 57.8223 55.5742 58.3672C55.0938 58.9062 54.7803 59.627 54.6338 60.5293C55.4951 59.5332 56.5439 59.0352 57.7803 59.0352ZM57.4639 60.3711C56.667 60.3711 56.0342 60.6406 55.5654 61.1797C55.0967 61.7129 54.8623 62.4541 54.8623 63.4033V63.5439C54.8623 64.5635 55.0967 65.3721 55.5654 65.9697C56.04 66.5615 56.6787 66.8574 57.4814 66.8574C58.29 66.8574 58.9287 66.5586 59.3975 65.9609C59.8662 65.3633 60.1006 64.4902 60.1006 63.3418C60.1006 62.4453 59.8633 61.7275 59.3887 61.1885C58.9199 60.6436 58.2783 60.3711 57.4639 60.3711ZM65.0752 58.4902V66.6729H68.5557V58.4902H70.1816V66.6729H73.6533V58.4902H75.2881V66.6729H76.624L76.4658 70.8213H75.0068V68H63.4404V58.4902H65.0752ZM82.3369 68.1758C81.0479 68.1758 79.999 67.7539 79.1904 66.9102C78.3818 66.0605 77.9775 64.9268 77.9775 63.5088V63.21C77.9775 62.2666 78.1562 61.4258 78.5137 60.6875C78.877 59.9434 79.3809 59.3633 80.0254 58.9473C80.6758 58.5254 81.3789 58.3145 82.1348 58.3145C83.3711 58.3145 84.332 58.7217 85.0176 59.5361C85.7031 60.3506 86.0459 61.5166 86.0459 63.0342V63.7109H79.6035C79.627 64.6484 79.8994 65.4072 80.4209 65.9873C80.9482 66.5615 81.6162 66.8486 82.4248 66.8486C82.999 66.8486 83.4854 66.7314 83.8838 66.4971C84.2822 66.2627 84.6309 65.9521 84.9297 65.5654L85.9229 66.3389C85.126 67.5635 83.9307 68.1758 82.3369 68.1758ZM82.1348 59.6504C81.4785 59.6504 80.9277 59.8906 80.4824 60.3711C80.0371 60.8457 79.7617 61.5137 79.6562 62.375H84.4199V62.252C84.373 61.4258 84.1504 60.7871 83.752 60.3359C83.3535 59.8789 82.8145 59.6504 82.1348 59.6504ZM91.75 66.8486C92.3301 66.8486 92.8369 66.6729 93.2705 66.3213C93.7041 65.9697 93.9443 65.5303 93.9912 65.0029H95.5293C95.5 65.5479 95.3125 66.0664 94.9668 66.5586C94.6211 67.0508 94.1582 67.4434 93.5781 67.7363C93.0039 68.0293 92.3945 68.1758 91.75 68.1758C90.4551 68.1758 89.4238 67.7451 88.6562 66.8838C87.8945 66.0166 87.5137 64.833 87.5137 63.333V63.0605C87.5137 62.1348 87.6836 61.3115 88.0234 60.5908C88.3633 59.8701 88.8496 59.3105 89.4824 58.9121C90.1211 58.5137 90.874 58.3145 91.7412 58.3145C92.8076 58.3145 93.6924 58.6338 94.3955 59.2725C95.1045 59.9111 95.4824 60.7402 95.5293 61.7598H93.9912C93.9443 61.1445 93.71 60.6406 93.2881 60.248C92.8721 59.8496 92.3564 59.6504 91.7412 59.6504C90.915 59.6504 90.2734 59.9492 89.8164 60.5469C89.3652 61.1387 89.1396 61.9971 89.1396 63.1221V63.4297C89.1396 64.5254 89.3652 65.3691 89.8164 65.9609C90.2676 66.5527 90.9121 66.8486 91.75 66.8486ZM104.424 59.8086H101.233V68H99.6074V59.8086H96.4785V58.4902H104.424V59.8086ZM106.155 68V58.4902H109.864C111.13 58.4902 112.1 58.7129 112.773 59.1582C113.453 59.5977 113.793 60.2451 113.793 61.1006C113.793 61.54 113.661 61.9385 113.397 62.2959C113.134 62.6475 112.744 62.917 112.229 63.1045C112.803 63.2393 113.263 63.5029 113.608 63.8955C113.96 64.2881 114.136 64.7568 114.136 65.3018C114.136 66.1748 113.813 66.8428 113.169 67.3057C112.53 67.7686 111.625 68 110.453 68H106.155ZM107.781 63.8252V66.6904H110.471C111.15 66.6904 111.657 66.5645 111.991 66.3125C112.331 66.0605 112.501 65.7061 112.501 65.249C112.501 64.2998 111.804 63.8252 110.409 63.8252H107.781ZM107.781 62.5244H109.882C111.405 62.5244 112.167 62.0791 112.167 61.1885C112.167 60.2979 111.446 59.8379 110.005 59.8086H107.781V62.5244ZM120.235 68.1758C118.946 68.1758 117.897 67.7539 117.089 66.9102C116.28 66.0605 115.876 64.9268 115.876 63.5088V63.21C115.876 62.2666 116.055 61.4258 116.412 60.6875C116.775 59.9434 117.279 59.3633 117.924 58.9473C118.574 58.5254 119.277 58.3145 120.033 58.3145C121.27 58.3145 122.23 58.7217 122.916 59.5361C123.602 60.3506 123.944 61.5166 123.944 63.0342V63.7109H117.502C117.525 64.6484 117.798 65.4072 118.319 65.9873C118.847 66.5615 119.515 66.8486 120.323 66.8486C120.897 66.8486 121.384 66.7314 121.782 66.4971C122.181 66.2627 122.529 65.9521 122.828 65.5654L123.821 66.3389C123.024 67.5635 121.829 68.1758 120.235 68.1758ZM120.033 59.6504C119.377 59.6504 118.826 59.8906 118.381 60.3711C117.936 60.8457 117.66 61.5137 117.555 62.375H122.318V62.252C122.271 61.4258 122.049 60.7871 121.65 60.3359C121.252 59.8789 120.713 59.6504 120.033 59.6504ZM133.604 68H131.978V63.9395H127.609V68H125.975V58.4902H127.609V62.6123H131.978V58.4902H133.604V68ZM143.992 68H142.366V63.9395H137.998V68H136.363V58.4902H137.998V62.6123H142.366V58.4902H143.992V68ZM146.181 63.1572C146.181 62.2256 146.362 61.3877 146.726 60.6436C147.095 59.8994 147.604 59.3252 148.255 58.9209C148.911 58.5166 149.658 58.3145 150.496 58.3145C151.791 58.3145 152.837 58.7627 153.634 59.6592C154.437 60.5557 154.838 61.748 154.838 63.2363V63.3506C154.838 64.2764 154.659 65.1084 154.302 65.8467C153.95 66.5791 153.443 67.1504 152.781 67.5605C152.125 67.9707 151.369 68.1758 150.514 68.1758C149.225 68.1758 148.179 67.7275 147.376 66.8311C146.579 65.9346 146.181 64.748 146.181 63.2715V63.1572ZM147.815 63.3506C147.815 64.4053 148.059 65.252 148.545 65.8906C149.037 66.5293 149.693 66.8486 150.514 66.8486C151.34 66.8486 151.996 66.5264 152.482 65.8818C152.969 65.2314 153.212 64.3232 153.212 63.1572C153.212 62.1143 152.963 61.2705 152.465 60.626C151.973 59.9756 151.316 59.6504 150.496 59.6504C149.693 59.6504 149.046 59.9697 148.554 60.6084C148.062 61.2471 147.815 62.1611 147.815 63.3506ZM160.823 68.1758C159.534 68.1758 158.485 67.7539 157.677 66.9102C156.868 66.0605 156.464 64.9268 156.464 63.5088V63.21C156.464 62.2666 156.643 61.4258 157 60.6875C157.363 59.9434 157.867 59.3633 158.512 58.9473C159.162 58.5254 159.865 58.3145 160.621 58.3145C161.857 58.3145 162.818 58.7217 163.504 59.5361C164.189 60.3506 164.532 61.5166 164.532 63.0342V63.7109H158.09C158.113 64.6484 158.386 65.4072 158.907 65.9873C159.435 66.5615 160.103 66.8486 160.911 66.8486C161.485 66.8486 161.972 66.7314 162.37 66.4971C162.769 66.2627 163.117 65.9521 163.416 65.5654L164.409 66.3389C163.612 67.5635 162.417 68.1758 160.823 68.1758ZM160.621 59.6504C159.965 59.6504 159.414 59.8906 158.969 60.3711C158.523 60.8457 158.248 61.5137 158.143 62.375H162.906V62.252C162.859 61.4258 162.637 60.7871 162.238 60.3359C161.84 59.8789 161.301 59.6504 160.621 59.6504ZM178.665 68H177.039V59.835H172.662V68H171.027V58.4902H178.665V68ZM187.428 58.4902H189.054V68H187.428V61.0654L183.042 68H181.416V58.4902H183.042V65.4336L187.428 58.4902ZM198.73 59.8086H195.54V68H193.914V59.8086H190.785V58.4902H198.73V59.8086ZM206.043 68C205.949 67.8125 205.873 67.4785 205.814 66.998C205.059 67.7832 204.156 68.1758 203.107 68.1758C202.17 68.1758 201.399 67.9121 200.796 67.3848C200.198 66.8516 199.899 66.1777 199.899 65.3633C199.899 64.373 200.274 63.6055 201.024 63.0605C201.78 62.5098 202.841 62.2344 204.206 62.2344H205.788V61.4873C205.788 60.9189 205.618 60.4678 205.278 60.1338C204.938 59.7939 204.438 59.624 203.775 59.624C203.195 59.624 202.709 59.7705 202.316 60.0635C201.924 60.3564 201.728 60.7109 201.728 61.127H200.093C200.093 60.6523 200.26 60.1953 200.594 59.7559C200.934 59.3105 201.391 58.959 201.965 58.7012C202.545 58.4434 203.181 58.3145 203.872 58.3145C204.968 58.3145 205.826 58.5898 206.447 59.1406C207.068 59.6855 207.391 60.4385 207.414 61.3994V65.7764C207.414 66.6494 207.525 67.3438 207.748 67.8594V68H206.043ZM203.345 66.7607C203.854 66.7607 204.338 66.6289 204.795 66.3652C205.252 66.1016 205.583 65.7588 205.788 65.3369V63.3857H204.514C202.521 63.3857 201.525 63.9688 201.525 65.1348C201.525 65.6445 201.695 66.043 202.035 66.3301C202.375 66.6172 202.812 66.7607 203.345 66.7607ZM217.732 68H216.106V63.9395H211.738V68H210.104V58.4902H211.738V62.6123H216.106V58.4902H217.732V68ZM226.504 58.4902H228.13V68H226.504V61.0654L222.118 68H220.492V58.4902H222.118V65.4336L226.504 58.4902ZM234.687 68.1758C233.397 68.1758 232.349 67.7539 231.54 66.9102C230.731 66.0605 230.327 64.9268 230.327 63.5088V63.21C230.327 62.2666 230.506 61.4258 230.863 60.6875C231.227 59.9434 231.73 59.3633 232.375 58.9473C233.025 58.5254 233.729 58.3145 234.484 58.3145C235.721 58.3145 236.682 58.7217 237.367 59.5361C238.053 60.3506 238.396 61.5166 238.396 63.0342V63.7109H231.953C231.977 64.6484 232.249 65.4072 232.771 65.9873C233.298 66.5615 233.966 66.8486 234.774 66.8486C235.349 66.8486 235.835 66.7314 236.233 66.4971C236.632 66.2627 236.98 65.9521 237.279 65.5654L238.272 66.3389C237.476 67.5635 236.28 68.1758 234.687 68.1758ZM234.484 59.6504C233.828 59.6504 233.277 59.8906 232.832 60.3711C232.387 60.8457 232.111 61.5137 232.006 62.375H236.77V62.252C236.723 61.4258 236.5 60.7871 236.102 60.3359C235.703 59.8789 235.164 59.6504 234.484 59.6504Z" fill="#3E3E41"/>
<rect y="48" width="30" height="30" rx="10" fill="#C6292A"/>
<path d="M49.29 105.592H43.1201V109.424H46.3018C47.6377 109.441 48.6807 109.784 49.4307 110.452C50.1807 111.12 50.5557 112.028 50.5557 113.177C50.5557 114.331 50.1777 115.251 49.4219 115.937C48.666 116.622 47.6348 116.977 46.3281 117H41.4238V104.203H49.29V105.592ZM43.1201 110.812V115.62H46.2051C47.043 115.62 47.6934 115.397 48.1562 114.952C48.625 114.507 48.8594 113.909 48.8594 113.159C48.8594 112.438 48.6338 111.87 48.1826 111.454C47.7373 111.038 47.1016 110.824 46.2754 110.812H43.1201ZM54.3613 110.769H56.8311C57.9092 110.78 58.7617 111.062 59.3887 111.612C60.0156 112.163 60.3291 112.91 60.3291 113.854C60.3291 114.803 60.0068 115.564 59.3623 116.139C58.7178 116.713 57.8506 117 56.7607 117H52.7354V107.49H54.3613V110.769ZM63.7217 117H62.0869V107.49H63.7217V117ZM54.3613 112.096V115.673H56.7783C57.3877 115.673 57.8594 115.518 58.1934 115.207C58.5273 114.891 58.6943 114.46 58.6943 113.915C58.6943 113.388 58.5303 112.957 58.2021 112.623C57.8799 112.283 57.4258 112.107 56.8398 112.096H54.3613ZM73.627 108.809H70.4365V117H68.8105V108.809H65.6816V107.49H73.627V108.809ZM74.4092 112.157C74.4092 111.226 74.5908 110.388 74.9541 109.644C75.3232 108.899 75.833 108.325 76.4834 107.921C77.1396 107.517 77.8867 107.314 78.7246 107.314C80.0195 107.314 81.0654 107.763 81.8623 108.659C82.665 109.556 83.0664 110.748 83.0664 112.236V112.351C83.0664 113.276 82.8877 114.108 82.5303 114.847C82.1787 115.579 81.6719 116.15 81.0098 116.561C80.3535 116.971 79.5977 117.176 78.7422 117.176C77.4531 117.176 76.4072 116.728 75.6045 115.831C74.8076 114.935 74.4092 113.748 74.4092 112.271V112.157ZM76.0439 112.351C76.0439 113.405 76.2871 114.252 76.7734 114.891C77.2656 115.529 77.9219 115.849 78.7422 115.849C79.5684 115.849 80.2246 115.526 80.7109 114.882C81.1973 114.231 81.4404 113.323 81.4404 112.157C81.4404 111.114 81.1914 110.271 80.6934 109.626C80.2012 108.976 79.5449 108.65 78.7246 108.65C77.9219 108.65 77.2744 108.97 76.7822 109.608C76.29 110.247 76.0439 111.161 76.0439 112.351ZM85.2549 117V107.49H88.9639C90.2295 107.49 91.1992 107.713 91.873 108.158C92.5527 108.598 92.8926 109.245 92.8926 110.101C92.8926 110.54 92.7607 110.938 92.4971 111.296C92.2334 111.647 91.8438 111.917 91.3281 112.104C91.9023 112.239 92.3623 112.503 92.708 112.896C93.0596 113.288 93.2354 113.757 93.2354 114.302C93.2354 115.175 92.9131 115.843 92.2686 116.306C91.6299 116.769 90.7246 117 89.5527 117H85.2549ZM86.8809 112.825V115.69H89.5703C90.25 115.69 90.7568 115.564 91.0908 115.312C91.4307 115.061 91.6006 114.706 91.6006 114.249C91.6006 113.3 90.9033 112.825 89.5088 112.825H86.8809ZM86.8809 111.524H88.9814C90.5049 111.524 91.2666 111.079 91.2666 110.188C91.2666 109.298 90.5459 108.838 89.1045 108.809H86.8809V111.524ZM97.1641 110.769H99.6338C100.712 110.78 101.564 111.062 102.191 111.612C102.818 112.163 103.132 112.91 103.132 113.854C103.132 114.803 102.81 115.564 102.165 116.139C101.521 116.713 100.653 117 99.5635 117H95.5381V107.49H97.1641V110.769ZM106.524 117H104.89V107.49H106.524V117ZM97.1641 112.096V115.673H99.5811C100.19 115.673 100.662 115.518 100.996 115.207C101.33 114.891 101.497 114.46 101.497 113.915C101.497 113.388 101.333 112.957 101.005 112.623C100.683 112.283 100.229 112.107 99.6426 112.096H97.1641ZM113.31 117.176C112.021 117.176 110.972 116.754 110.163 115.91C109.354 115.061 108.95 113.927 108.95 112.509V112.21C108.95 111.267 109.129 110.426 109.486 109.688C109.85 108.943 110.354 108.363 110.998 107.947C111.648 107.525 112.352 107.314 113.107 107.314C114.344 107.314 115.305 107.722 115.99 108.536C116.676 109.351 117.019 110.517 117.019 112.034V112.711H110.576C110.6 113.648 110.872 114.407 111.394 114.987C111.921 115.562 112.589 115.849 113.397 115.849C113.972 115.849 114.458 115.731 114.856 115.497C115.255 115.263 115.604 114.952 115.902 114.565L116.896 115.339C116.099 116.563 114.903 117.176 113.31 117.176ZM113.107 108.65C112.451 108.65 111.9 108.891 111.455 109.371C111.01 109.846 110.734 110.514 110.629 111.375H115.393V111.252C115.346 110.426 115.123 109.787 114.725 109.336C114.326 108.879 113.787 108.65 113.107 108.65ZM126.484 114.618L128.699 107.49H130.439L126.616 118.468C126.024 120.05 125.084 120.841 123.795 120.841L123.487 120.814L122.881 120.7V119.382L123.32 119.417C123.871 119.417 124.299 119.306 124.604 119.083C124.914 118.86 125.169 118.453 125.368 117.861L125.729 116.895L122.336 107.49H124.111L126.484 114.618ZM135.59 115.849C136.17 115.849 136.677 115.673 137.11 115.321C137.544 114.97 137.784 114.53 137.831 114.003H139.369C139.34 114.548 139.152 115.066 138.807 115.559C138.461 116.051 137.998 116.443 137.418 116.736C136.844 117.029 136.234 117.176 135.59 117.176C134.295 117.176 133.264 116.745 132.496 115.884C131.734 115.017 131.354 113.833 131.354 112.333V112.061C131.354 111.135 131.523 110.312 131.863 109.591C132.203 108.87 132.689 108.311 133.322 107.912C133.961 107.514 134.714 107.314 135.581 107.314C136.647 107.314 137.532 107.634 138.235 108.272C138.944 108.911 139.322 109.74 139.369 110.76H137.831C137.784 110.145 137.55 109.641 137.128 109.248C136.712 108.85 136.196 108.65 135.581 108.65C134.755 108.65 134.113 108.949 133.656 109.547C133.205 110.139 132.979 110.997 132.979 112.122V112.43C132.979 113.525 133.205 114.369 133.656 114.961C134.107 115.553 134.752 115.849 135.59 115.849ZM148.993 107.49V117H147.358V108.835H144.124L143.931 112.395C143.825 114.029 143.55 115.198 143.104 115.901C142.665 116.604 141.965 116.971 141.004 117H140.354V115.567L140.819 115.532C141.347 115.474 141.725 115.169 141.953 114.618C142.182 114.067 142.328 113.048 142.393 111.56L142.568 107.49H148.993ZM154.715 114.618L156.93 107.49H158.67L154.847 118.468C154.255 120.05 153.314 120.841 152.025 120.841L151.718 120.814L151.111 120.7V119.382L151.551 119.417C152.102 119.417 152.529 119.306 152.834 119.083C153.145 118.86 153.399 118.453 153.599 117.861L153.959 116.895L150.566 107.49H152.342L154.715 114.618ZM166.272 108.835H161.887V117H160.252V107.49H166.272V108.835ZM173.84 107.49H175.466V117H173.84V110.065L169.454 117H167.828V107.49H169.454V114.434L173.84 107.49ZM190.311 117H188.685V112.939H184.316V117H182.682V107.49H184.316V111.612H188.685V107.49H190.311V117ZM198.801 117C198.707 116.812 198.631 116.479 198.572 115.998C197.816 116.783 196.914 117.176 195.865 117.176C194.928 117.176 194.157 116.912 193.554 116.385C192.956 115.852 192.657 115.178 192.657 114.363C192.657 113.373 193.032 112.605 193.782 112.061C194.538 111.51 195.599 111.234 196.964 111.234H198.546V110.487C198.546 109.919 198.376 109.468 198.036 109.134C197.696 108.794 197.195 108.624 196.533 108.624C195.953 108.624 195.467 108.771 195.074 109.063C194.682 109.356 194.485 109.711 194.485 110.127H192.851C192.851 109.652 193.018 109.195 193.352 108.756C193.691 108.311 194.148 107.959 194.723 107.701C195.303 107.443 195.938 107.314 196.63 107.314C197.726 107.314 198.584 107.59 199.205 108.141C199.826 108.686 200.148 109.438 200.172 110.399V114.776C200.172 115.649 200.283 116.344 200.506 116.859V117H198.801ZM196.103 115.761C196.612 115.761 197.096 115.629 197.553 115.365C198.01 115.102 198.341 114.759 198.546 114.337V112.386H197.271C195.279 112.386 194.283 112.969 194.283 114.135C194.283 114.645 194.453 115.043 194.793 115.33C195.133 115.617 195.569 115.761 196.103 115.761ZM206.535 115.849C207.115 115.849 207.622 115.673 208.056 115.321C208.489 114.97 208.729 114.53 208.776 114.003H210.314C210.285 114.548 210.098 115.066 209.752 115.559C209.406 116.051 208.943 116.443 208.363 116.736C207.789 117.029 207.18 117.176 206.535 117.176C205.24 117.176 204.209 116.745 203.441 115.884C202.68 115.017 202.299 113.833 202.299 112.333V112.061C202.299 111.135 202.469 110.312 202.809 109.591C203.148 108.87 203.635 108.311 204.268 107.912C204.906 107.514 205.659 107.314 206.526 107.314C207.593 107.314 208.478 107.634 209.181 108.272C209.89 108.911 210.268 109.74 210.314 110.76H208.776C208.729 110.145 208.495 109.641 208.073 109.248C207.657 108.85 207.142 108.65 206.526 108.65C205.7 108.65 205.059 108.949 204.602 109.547C204.15 110.139 203.925 110.997 203.925 112.122V112.43C203.925 113.525 204.15 114.369 204.602 114.961C205.053 115.553 205.697 115.849 206.535 115.849ZM216.089 117.176C214.8 117.176 213.751 116.754 212.942 115.91C212.134 115.061 211.729 113.927 211.729 112.509V112.21C211.729 111.267 211.908 110.426 212.266 109.688C212.629 108.943 213.133 108.363 213.777 107.947C214.428 107.525 215.131 107.314 215.887 107.314C217.123 107.314 218.084 107.722 218.77 108.536C219.455 109.351 219.798 110.517 219.798 112.034V112.711H213.355C213.379 113.648 213.651 114.407 214.173 114.987C214.7 115.562 215.368 115.849 216.177 115.849C216.751 115.849 217.237 115.731 217.636 115.497C218.034 115.263 218.383 114.952 218.682 114.565L219.675 115.339C218.878 116.563 217.683 117.176 216.089 117.176ZM215.887 108.65C215.23 108.65 214.68 108.891 214.234 109.371C213.789 109.846 213.514 110.514 213.408 111.375H218.172V111.252C218.125 110.426 217.902 109.787 217.504 109.336C217.105 108.879 216.566 108.65 215.887 108.65ZM229.483 107.49V117H227.849V108.835H224.614L224.421 112.395C224.315 114.029 224.04 115.198 223.595 115.901C223.155 116.604 222.455 116.971 221.494 117H220.844V115.567L221.31 115.532C221.837 115.474 222.215 115.169 222.443 114.618C222.672 114.067 222.818 113.048 222.883 111.56L223.059 107.49H229.483ZM236.04 117.176C234.751 117.176 233.702 116.754 232.894 115.91C232.085 115.061 231.681 113.927 231.681 112.509V112.21C231.681 111.267 231.859 110.426 232.217 109.688C232.58 108.943 233.084 108.363 233.729 107.947C234.379 107.525 235.082 107.314 235.838 107.314C237.074 107.314 238.035 107.722 238.721 108.536C239.406 109.351 239.749 110.517 239.749 112.034V112.711H233.307C233.33 113.648 233.603 114.407 234.124 114.987C234.651 115.562 235.319 115.849 236.128 115.849C236.702 115.849 237.188 115.731 237.587 115.497C237.985 115.263 238.334 114.952 238.633 114.565L239.626 115.339C238.829 116.563 237.634 117.176 236.04 117.176ZM235.838 108.65C235.182 108.65 234.631 108.891 234.186 109.371C233.74 109.846 233.465 110.514 233.359 111.375H238.123V111.252C238.076 110.426 237.854 109.787 237.455 109.336C237.057 108.879 236.518 108.65 235.838 108.65ZM249.408 117H247.782V112.939H243.414V117H241.779V107.49H243.414V111.612H247.782V107.49H249.408V117ZM258.18 107.49H259.806V117H258.18V110.065L253.794 117H252.168V107.49H253.794V114.434L258.18 107.49ZM264.191 111.524H266.477C266.6 110.259 267.048 109.242 267.821 108.475C268.601 107.701 269.582 107.314 270.766 107.314C272.008 107.314 273.024 107.733 273.815 108.571C274.606 109.409 275.034 110.499 275.099 111.841L275.107 112.351C275.107 113.276 274.926 114.111 274.562 114.855C274.199 115.6 273.689 116.174 273.033 116.578C272.377 116.977 271.627 117.176 270.783 117.176C269.559 117.176 268.557 116.777 267.777 115.98C266.998 115.178 266.562 114.138 266.468 112.86H264.191V117H262.565V107.49H264.191V111.524ZM268.076 112.351C268.076 113.405 268.319 114.252 268.806 114.891C269.298 115.529 269.957 115.849 270.783 115.849C271.609 115.849 272.263 115.523 272.743 114.873C273.229 114.223 273.473 113.317 273.473 112.157C273.473 111.12 273.227 110.276 272.734 109.626C272.242 108.976 271.586 108.65 270.766 108.65C269.957 108.65 269.307 108.97 268.814 109.608C268.322 110.247 268.076 111.161 268.076 112.351Z" fill="#3E3E41"/>
<rect y="96" width="30" height="30" rx="10" fill="#B5292C"/>
<path d="M50.3271 153.592H46.2139V165H44.5352V153.592H40.4307V152.203H50.3271V153.592ZM54.4492 162.618L56.6641 155.49H58.4043L54.5811 166.468C53.9893 168.05 53.0488 168.841 51.7598 168.841L51.4521 168.814L50.8457 168.7V167.382L51.2852 167.417C51.8359 167.417 52.2637 167.306 52.5684 167.083C52.8789 166.86 53.1338 166.453 53.333 165.861L53.6934 164.895L50.3008 155.49H52.0762L54.4492 162.618ZM67.8965 160.351C67.8965 161.798 67.5654 162.964 66.9033 163.849C66.2412 164.733 65.3447 165.176 64.2139 165.176C63.0596 165.176 62.1514 164.81 61.4893 164.077V168.656H59.8633V155.49H61.3486L61.4277 156.545C62.0898 155.725 63.0098 155.314 64.1875 155.314C65.3301 155.314 66.2324 155.745 66.8945 156.606C67.5625 157.468 67.8965 158.666 67.8965 160.201V160.351ZM66.2705 160.166C66.2705 159.094 66.042 158.247 65.585 157.626C65.1279 157.005 64.501 156.694 63.7041 156.694C62.7197 156.694 61.9814 157.131 61.4893 158.004V162.548C61.9756 163.415 62.7197 163.849 63.7217 163.849C64.501 163.849 65.1191 163.541 65.5762 162.926C66.0391 162.305 66.2705 161.385 66.2705 160.166ZM76.123 155.49H77.749V165H76.123V158.065L71.7373 165H70.1113V155.49H71.7373V162.434L76.123 155.49ZM85.5889 158.092C85.5889 157.646 85.4189 157.295 85.0791 157.037C84.7393 156.773 84.2734 156.642 83.6816 156.642C83.1074 156.642 82.627 156.791 82.2402 157.09C81.8594 157.389 81.6689 157.74 81.6689 158.145H80.0518C80.0518 157.318 80.3975 156.642 81.0889 156.114C81.7803 155.587 82.6445 155.323 83.6816 155.323C84.7949 155.323 85.6621 155.563 86.2832 156.044C86.9043 156.519 87.2148 157.198 87.2148 158.083C87.2148 158.511 87.0859 158.903 86.8281 159.261C86.5703 159.618 86.2041 159.902 85.7295 160.113C86.8369 160.488 87.3906 161.227 87.3906 162.328C87.3906 163.201 87.0537 163.893 86.3799 164.402C85.7061 164.912 84.8066 165.167 83.6816 165.167C82.5859 165.167 81.6807 164.9 80.9658 164.367C80.2568 163.828 79.9023 163.102 79.9023 162.188H81.5195C81.5195 162.65 81.7246 163.049 82.1348 163.383C82.5508 163.711 83.0664 163.875 83.6816 163.875C84.3027 163.875 84.8037 163.731 85.1846 163.444C85.5654 163.157 85.7559 162.785 85.7559 162.328C85.7559 161.795 85.5947 161.414 85.2725 161.186C84.9561 160.951 84.4609 160.834 83.7871 160.834H82.1611V159.463H83.9277C85.0352 159.434 85.5889 158.977 85.5889 158.092ZM94.9756 162.847L98.21 155.49H100.24V165H98.6143V158.083L95.5381 165H94.4131L91.2754 157.934V165H89.6494V155.49H91.7588L94.9756 162.847Z" fill="#3E3E41"/>
<rect y="144" width="30" height="30" rx="10" fill="#B02A2D"/>
<path d="M51.3291 207.015C51.3291 208.269 51.1182 209.364 50.6963 210.302C50.2744 211.233 49.6768 211.945 48.9033 212.438C48.1299 212.93 47.2275 213.176 46.1963 213.176C45.1885 213.176 44.2949 212.93 43.5156 212.438C42.7363 211.939 42.1299 211.233 41.6963 210.319C41.2686 209.399 41.0488 208.336 41.0371 207.129V206.206C41.0371 204.976 41.251 203.889 41.6787 202.945C42.1064 202.002 42.71 201.281 43.4893 200.783C44.2744 200.279 45.1709 200.027 46.1787 200.027C47.2041 200.027 48.1064 200.276 48.8857 200.774C49.6709 201.267 50.2744 201.984 50.6963 202.928C51.1182 203.865 51.3291 204.958 51.3291 206.206V207.015ZM49.6504 206.188C49.6504 204.671 49.3457 203.508 48.7363 202.699C48.127 201.885 47.2744 201.478 46.1787 201.478C45.1123 201.478 44.2715 201.885 43.6562 202.699C43.0469 203.508 42.7334 204.633 42.7158 206.074V207.015C42.7158 208.485 43.0234 209.643 43.6387 210.486C44.2598 211.324 45.1123 211.743 46.1963 211.743C47.2861 211.743 48.1299 211.348 48.7275 210.557C49.3252 209.76 49.6328 208.62 49.6504 207.138V206.188ZM57.7803 204.035C58.9756 204.035 59.9307 204.437 60.6455 205.239C61.3662 206.036 61.7266 207.088 61.7266 208.395V208.544C61.7266 209.44 61.5537 210.243 61.208 210.952C60.8623 211.655 60.3643 212.203 59.7139 212.596C59.0693 212.982 58.3252 213.176 57.4814 213.176C56.2041 213.176 55.1758 212.751 54.3965 211.901C53.6172 211.046 53.2275 209.9 53.2275 208.465V207.674C53.2275 205.676 53.5967 204.088 54.335 202.91C55.0791 201.732 56.1748 201.015 57.6221 200.757C58.4424 200.61 58.9961 200.432 59.2832 200.221C59.5703 200.01 59.7139 199.72 59.7139 199.351H61.0498C61.0498 200.083 60.8828 200.654 60.5488 201.064C60.2207 201.475 59.6934 201.765 58.9668 201.935L57.7539 202.207C56.7871 202.436 56.0605 202.822 55.5742 203.367C55.0938 203.906 54.7803 204.627 54.6338 205.529C55.4951 204.533 56.5439 204.035 57.7803 204.035ZM57.4639 205.371C56.667 205.371 56.0342 205.641 55.5654 206.18C55.0967 206.713 54.8623 207.454 54.8623 208.403V208.544C54.8623 209.563 55.0967 210.372 55.5654 210.97C56.04 211.562 56.6787 211.857 57.4814 211.857C58.29 211.857 58.9287 211.559 59.3975 210.961C59.8662 210.363 60.1006 209.49 60.1006 208.342C60.1006 207.445 59.8633 206.728 59.3887 206.188C58.9199 205.644 58.2783 205.371 57.4639 205.371ZM71.4297 208.351C71.4297 209.798 71.0986 210.964 70.4365 211.849C69.7744 212.733 68.8779 213.176 67.7471 213.176C66.5928 213.176 65.6846 212.81 65.0225 212.077V216.656H63.3965V203.49H64.8818L64.9609 204.545C65.623 203.725 66.543 203.314 67.7207 203.314C68.8633 203.314 69.7656 203.745 70.4277 204.606C71.0957 205.468 71.4297 206.666 71.4297 208.201V208.351ZM69.8037 208.166C69.8037 207.094 69.5752 206.247 69.1182 205.626C68.6611 205.005 68.0342 204.694 67.2373 204.694C66.2529 204.694 65.5146 205.131 65.0225 206.004V210.548C65.5088 211.415 66.2529 211.849 67.2549 211.849C68.0342 211.849 68.6523 211.541 69.1094 210.926C69.5723 210.305 69.8037 209.385 69.8037 208.166ZM79.375 213C79.2812 212.812 79.2051 212.479 79.1465 211.998C78.3906 212.783 77.4883 213.176 76.4395 213.176C75.502 213.176 74.7314 212.912 74.1279 212.385C73.5303 211.852 73.2314 211.178 73.2314 210.363C73.2314 209.373 73.6064 208.605 74.3564 208.061C75.1123 207.51 76.1729 207.234 77.5381 207.234H79.1201V206.487C79.1201 205.919 78.9502 205.468 78.6104 205.134C78.2705 204.794 77.7695 204.624 77.1074 204.624C76.5273 204.624 76.041 204.771 75.6484 205.063C75.2559 205.356 75.0596 205.711 75.0596 206.127H73.4248C73.4248 205.652 73.5918 205.195 73.9258 204.756C74.2656 204.311 74.7227 203.959 75.2969 203.701C75.877 203.443 76.5127 203.314 77.2041 203.314C78.2998 203.314 79.1582 203.59 79.7793 204.141C80.4004 204.686 80.7227 205.438 80.7461 206.399V210.776C80.7461 211.649 80.8574 212.344 81.0801 212.859V213H79.375ZM76.6768 211.761C77.1865 211.761 77.6699 211.629 78.127 211.365C78.584 211.102 78.915 210.759 79.1201 210.337V208.386H77.8457C75.8535 208.386 74.8574 208.969 74.8574 210.135C74.8574 210.645 75.0273 211.043 75.3672 211.33C75.707 211.617 76.1436 211.761 76.6768 211.761ZM88.5244 206.092C88.5244 205.646 88.3545 205.295 88.0146 205.037C87.6748 204.773 87.209 204.642 86.6172 204.642C86.043 204.642 85.5625 204.791 85.1758 205.09C84.7949 205.389 84.6045 205.74 84.6045 206.145H82.9873C82.9873 205.318 83.333 204.642 84.0244 204.114C84.7158 203.587 85.5801 203.323 86.6172 203.323C87.7305 203.323 88.5977 203.563 89.2188 204.044C89.8398 204.519 90.1504 205.198 90.1504 206.083C90.1504 206.511 90.0215 206.903 89.7637 207.261C89.5059 207.618 89.1396 207.902 88.665 208.113C89.7725 208.488 90.3262 209.227 90.3262 210.328C90.3262 211.201 89.9893 211.893 89.3154 212.402C88.6416 212.912 87.7422 213.167 86.6172 213.167C85.5215 213.167 84.6162 212.9 83.9014 212.367C83.1924 211.828 82.8379 211.102 82.8379 210.188H84.4551C84.4551 210.65 84.6602 211.049 85.0703 211.383C85.4863 211.711 86.002 211.875 86.6172 211.875C87.2383 211.875 87.7393 211.731 88.1201 211.444C88.501 211.157 88.6914 210.785 88.6914 210.328C88.6914 209.795 88.5303 209.414 88.208 209.186C87.8916 208.951 87.3965 208.834 86.7227 208.834H85.0967V207.463H86.8633C87.9707 207.434 88.5244 206.977 88.5244 206.092ZM92.0049 208.157C92.0049 207.226 92.1865 206.388 92.5498 205.644C92.9189 204.899 93.4287 204.325 94.0791 203.921C94.7354 203.517 95.4824 203.314 96.3203 203.314C97.6152 203.314 98.6611 203.763 99.458 204.659C100.261 205.556 100.662 206.748 100.662 208.236V208.351C100.662 209.276 100.483 210.108 100.126 210.847C99.7744 211.579 99.2676 212.15 98.6055 212.561C97.9492 212.971 97.1934 213.176 96.3379 213.176C95.0488 213.176 94.0029 212.728 93.2002 211.831C92.4033 210.935 92.0049 209.748 92.0049 208.271V208.157ZM93.6396 208.351C93.6396 209.405 93.8828 210.252 94.3691 210.891C94.8613 211.529 95.5176 211.849 96.3379 211.849C97.1641 211.849 97.8203 211.526 98.3066 210.882C98.793 210.231 99.0361 209.323 99.0361 208.157C99.0361 207.114 98.7871 206.271 98.2891 205.626C97.7969 204.976 97.1406 204.65 96.3203 204.65C95.5176 204.65 94.8701 204.97 94.3779 205.608C93.8857 206.247 93.6396 207.161 93.6396 208.351ZM102.851 213V203.49H106.56C107.825 203.49 108.795 203.713 109.469 204.158C110.148 204.598 110.488 205.245 110.488 206.101C110.488 206.54 110.356 206.938 110.093 207.296C109.829 207.647 109.439 207.917 108.924 208.104C109.498 208.239 109.958 208.503 110.304 208.896C110.655 209.288 110.831 209.757 110.831 210.302C110.831 211.175 110.509 211.843 109.864 212.306C109.226 212.769 108.32 213 107.148 213H102.851ZM104.477 208.825V211.69H107.166C107.846 211.69 108.353 211.564 108.687 211.312C109.026 211.061 109.196 210.706 109.196 210.249C109.196 209.3 108.499 208.825 107.104 208.825H104.477ZM104.477 207.524H106.577C108.101 207.524 108.862 207.079 108.862 206.188C108.862 205.298 108.142 204.838 106.7 204.809H104.477V207.524ZM118.855 213C118.762 212.812 118.686 212.479 118.627 211.998C117.871 212.783 116.969 213.176 115.92 213.176C114.982 213.176 114.212 212.912 113.608 212.385C113.011 211.852 112.712 211.178 112.712 210.363C112.712 209.373 113.087 208.605 113.837 208.061C114.593 207.51 115.653 207.234 117.019 207.234H118.601V206.487C118.601 205.919 118.431 205.468 118.091 205.134C117.751 204.794 117.25 204.624 116.588 204.624C116.008 204.624 115.521 204.771 115.129 205.063C114.736 205.356 114.54 205.711 114.54 206.127H112.905C112.905 205.652 113.072 205.195 113.406 204.756C113.746 204.311 114.203 203.959 114.777 203.701C115.357 203.443 115.993 203.314 116.685 203.314C117.78 203.314 118.639 203.59 119.26 204.141C119.881 204.686 120.203 205.438 120.227 206.399V210.776C120.227 211.649 120.338 212.344 120.561 212.859V213H118.855ZM116.157 211.761C116.667 211.761 117.15 211.629 117.607 211.365C118.064 211.102 118.396 210.759 118.601 210.337V208.386H117.326C115.334 208.386 114.338 208.969 114.338 210.135C114.338 210.645 114.508 211.043 114.848 211.33C115.188 211.617 115.624 211.761 116.157 211.761ZM130.545 213H128.919V208.939H124.551V213H122.916V203.49H124.551V207.612H128.919V203.49H130.545V213ZM139.316 203.49H140.942V213H139.316V206.065L134.931 213H133.305V203.49H134.931V210.434L139.316 203.49ZM147.499 213.176C146.21 213.176 145.161 212.754 144.353 211.91C143.544 211.061 143.14 209.927 143.14 208.509V208.21C143.14 207.267 143.318 206.426 143.676 205.688C144.039 204.943 144.543 204.363 145.188 203.947C145.838 203.525 146.541 203.314 147.297 203.314C148.533 203.314 149.494 203.722 150.18 204.536C150.865 205.351 151.208 206.517 151.208 208.034V208.711H144.766C144.789 209.648 145.062 210.407 145.583 210.987C146.11 211.562 146.778 211.849 147.587 211.849C148.161 211.849 148.647 211.731 149.046 211.497C149.444 211.263 149.793 210.952 150.092 210.565L151.085 211.339C150.288 212.563 149.093 213.176 147.499 213.176ZM147.297 204.65C146.641 204.65 146.09 204.891 145.645 205.371C145.199 205.846 144.924 206.514 144.818 207.375H149.582V207.252C149.535 206.426 149.312 205.787 148.914 205.336C148.516 204.879 147.977 204.65 147.297 204.65Z" fill="#3E3E41"/>
<rect y="192" width="30" height="30" rx="10" fill="#AF2B2D"/>
<path d="M51.2588 261H49.5625V249.592H43.252V261H41.5645V248.203H51.2588V261ZM62.1133 256.351C62.1133 257.798 61.7822 258.964 61.1201 259.849C60.458 260.733 59.5615 261.176 58.4307 261.176C57.2764 261.176 56.3682 260.81 55.7061 260.077V264.656H54.0801V251.49H55.5654L55.6445 252.545C56.3066 251.725 57.2266 251.314 58.4043 251.314C59.5469 251.314 60.4492 251.745 61.1113 252.606C61.7793 253.468 62.1133 254.666 62.1133 256.201V256.351ZM60.4873 256.166C60.4873 255.094 60.2588 254.247 59.8018 253.626C59.3447 253.005 58.7178 252.694 57.9209 252.694C56.9365 252.694 56.1982 253.131 55.7061 254.004V258.548C56.1924 259.415 56.9365 259.849 57.9385 259.849C58.7178 259.849 59.3359 259.541 59.793 258.926C60.2559 258.305 60.4873 257.385 60.4873 256.166ZM63.7568 256.157C63.7568 255.226 63.9385 254.388 64.3018 253.644C64.6709 252.899 65.1807 252.325 65.8311 251.921C66.4873 251.517 67.2344 251.314 68.0723 251.314C69.3672 251.314 70.4131 251.763 71.21 252.659C72.0127 253.556 72.4141 254.748 72.4141 256.236V256.351C72.4141 257.276 72.2354 258.108 71.8779 258.847C71.5264 259.579 71.0195 260.15 70.3574 260.561C69.7012 260.971 68.9453 261.176 68.0898 261.176C66.8008 261.176 65.7549 260.728 64.9521 259.831C64.1553 258.935 63.7568 257.748 63.7568 256.271V256.157ZM65.3916 256.351C65.3916 257.405 65.6348 258.252 66.1211 258.891C66.6133 259.529 67.2695 259.849 68.0898 259.849C68.916 259.849 69.5723 259.526 70.0586 258.882C70.5449 258.231 70.7881 257.323 70.7881 256.157C70.7881 255.114 70.5391 254.271 70.041 253.626C69.5488 252.976 68.8926 252.65 68.0723 252.65C67.2695 252.65 66.6221 252.97 66.1299 253.608C65.6377 254.247 65.3916 255.161 65.3916 256.351ZM80.6055 251.49H82.2314V261H80.6055V254.065L76.2197 261H74.5938V251.49H76.2197V258.434L80.6055 251.49ZM90.0713 254.092C90.0713 253.646 89.9014 253.295 89.5615 253.037C89.2217 252.773 88.7559 252.642 88.1641 252.642C87.5898 252.642 87.1094 252.791 86.7227 253.09C86.3418 253.389 86.1514 253.74 86.1514 254.145H84.5342C84.5342 253.318 84.8799 252.642 85.5713 252.114C86.2627 251.587 87.127 251.323 88.1641 251.323C89.2773 251.323 90.1445 251.563 90.7656 252.044C91.3867 252.519 91.6973 253.198 91.6973 254.083C91.6973 254.511 91.5684 254.903 91.3105 255.261C91.0527 255.618 90.6865 255.902 90.2119 256.113C91.3193 256.488 91.873 257.227 91.873 258.328C91.873 259.201 91.5361 259.893 90.8623 260.402C90.1885 260.912 89.2891 261.167 88.1641 261.167C87.0684 261.167 86.1631 260.9 85.4482 260.367C84.7393 259.828 84.3848 259.102 84.3848 258.188H86.002C86.002 258.65 86.207 259.049 86.6172 259.383C87.0332 259.711 87.5488 259.875 88.1641 259.875C88.7852 259.875 89.2861 259.731 89.667 259.444C90.0479 259.157 90.2383 258.785 90.2383 258.328C90.2383 257.795 90.0771 257.414 89.7549 257.186C89.4385 256.951 88.9434 256.834 88.2695 256.834H86.6436V255.463H88.4102C89.5176 255.434 90.0713 254.977 90.0713 254.092ZM94.1318 261V251.49H97.8408C99.1064 251.49 100.076 251.713 100.75 252.158C101.43 252.598 101.77 253.245 101.77 254.101C101.77 254.54 101.638 254.938 101.374 255.296C101.11 255.647 100.721 255.917 100.205 256.104C100.779 256.239 101.239 256.503 101.585 256.896C101.937 257.288 102.112 257.757 102.112 258.302C102.112 259.175 101.79 259.843 101.146 260.306C100.507 260.769 99.6016 261 98.4297 261H94.1318ZM95.7578 256.825V259.69H98.4473C99.127 259.69 99.6338 259.564 99.9678 259.312C100.308 259.061 100.478 258.706 100.478 258.249C100.478 257.3 99.7803 256.825 98.3857 256.825H95.7578ZM95.7578 255.524H97.8584C99.3818 255.524 100.144 255.079 100.144 254.188C100.144 253.298 99.4229 252.838 97.9814 252.809H95.7578V255.524ZM103.835 256.157C103.835 255.226 104.017 254.388 104.38 253.644C104.749 252.899 105.259 252.325 105.909 251.921C106.565 251.517 107.312 251.314 108.15 251.314C109.445 251.314 110.491 251.763 111.288 252.659C112.091 253.556 112.492 254.748 112.492 256.236V256.351C112.492 257.276 112.313 258.108 111.956 258.847C111.604 259.579 111.098 260.15 110.436 260.561C109.779 260.971 109.023 261.176 108.168 261.176C106.879 261.176 105.833 260.728 105.03 259.831C104.233 258.935 103.835 257.748 103.835 256.271V256.157ZM105.47 256.351C105.47 257.405 105.713 258.252 106.199 258.891C106.691 259.529 107.348 259.849 108.168 259.849C108.994 259.849 109.65 259.526 110.137 258.882C110.623 258.231 110.866 257.323 110.866 256.157C110.866 255.114 110.617 254.271 110.119 253.626C109.627 252.976 108.971 252.65 108.15 252.65C107.348 252.65 106.7 252.97 106.208 253.608C105.716 254.247 105.47 255.161 105.47 256.351ZM113.819 259.673L114.382 258.979C115.015 258.158 115.375 256.928 115.463 255.287L115.612 251.49H121.738V259.673H122.96V263.795H121.334V261H114.698V263.795H113.072L113.081 259.673H113.819ZM115.744 259.673H120.112V252.993H117.186L117.089 255.261C116.989 257.153 116.541 258.624 115.744 259.673ZM128.576 259.849C129.156 259.849 129.663 259.673 130.097 259.321C130.53 258.97 130.771 258.53 130.817 258.003H132.355C132.326 258.548 132.139 259.066 131.793 259.559C131.447 260.051 130.984 260.443 130.404 260.736C129.83 261.029 129.221 261.176 128.576 261.176C127.281 261.176 126.25 260.745 125.482 259.884C124.721 259.017 124.34 257.833 124.34 256.333V256.061C124.34 255.135 124.51 254.312 124.85 253.591C125.189 252.87 125.676 252.311 126.309 251.912C126.947 251.514 127.7 251.314 128.567 251.314C129.634 251.314 130.519 251.634 131.222 252.272C131.931 252.911 132.309 253.74 132.355 254.76H130.817C130.771 254.145 130.536 253.641 130.114 253.248C129.698 252.85 129.183 252.65 128.567 252.65C127.741 252.65 127.1 252.949 126.643 253.547C126.191 254.139 125.966 254.997 125.966 256.122V256.43C125.966 257.525 126.191 258.369 126.643 258.961C127.094 259.553 127.738 259.849 128.576 259.849ZM141.25 252.809H138.06V261H136.434V252.809H133.305V251.49H141.25V252.809ZM142.981 261V251.49H146.69C147.956 251.49 148.926 251.713 149.6 252.158C150.279 252.598 150.619 253.245 150.619 254.101C150.619 254.54 150.487 254.938 150.224 255.296C149.96 255.647 149.57 255.917 149.055 256.104C149.629 256.239 150.089 256.503 150.435 256.896C150.786 257.288 150.962 257.757 150.962 258.302C150.962 259.175 150.64 259.843 149.995 260.306C149.356 260.769 148.451 261 147.279 261H142.981ZM144.607 256.825V259.69H147.297C147.977 259.69 148.483 259.564 148.817 259.312C149.157 259.061 149.327 258.706 149.327 258.249C149.327 257.3 148.63 256.825 147.235 256.825H144.607ZM144.607 255.524H146.708C148.231 255.524 148.993 255.079 148.993 254.188C148.993 253.298 148.272 252.838 146.831 252.809H144.607V255.524ZM152.685 256.157C152.685 255.226 152.866 254.388 153.229 253.644C153.599 252.899 154.108 252.325 154.759 251.921C155.415 251.517 156.162 251.314 157 251.314C158.295 251.314 159.341 251.763 160.138 252.659C160.94 253.556 161.342 254.748 161.342 256.236V256.351C161.342 257.276 161.163 258.108 160.806 258.847C160.454 259.579 159.947 260.15 159.285 260.561C158.629 260.971 157.873 261.176 157.018 261.176C155.729 261.176 154.683 260.728 153.88 259.831C153.083 258.935 152.685 257.748 152.685 256.271V256.157ZM154.319 256.351C154.319 257.405 154.562 258.252 155.049 258.891C155.541 259.529 156.197 259.849 157.018 259.849C157.844 259.849 158.5 259.526 158.986 258.882C159.473 258.231 159.716 257.323 159.716 256.157C159.716 255.114 159.467 254.271 158.969 253.626C158.477 252.976 157.82 252.65 157 252.65C156.197 252.65 155.55 252.97 155.058 253.608C154.565 254.247 154.319 255.161 154.319 256.351Z" fill="#3E3E41"/>
<rect y="240" width="30" height="30" rx="10" fill="#A93035"/>
<path d="M51.2588 309H49.5625V297.592H43.252V309H41.5645V296.203H51.2588V309ZM58.0264 309.176C56.7373 309.176 55.6885 308.754 54.8799 307.91C54.0713 307.061 53.667 305.927 53.667 304.509V304.21C53.667 303.267 53.8457 302.426 54.2031 301.688C54.5664 300.943 55.0703 300.363 55.7148 299.947C56.3652 299.525 57.0684 299.314 57.8242 299.314C59.0605 299.314 60.0215 299.722 60.707 300.536C61.3926 301.351 61.7354 302.517 61.7354 304.034V304.711H55.293C55.3164 305.648 55.5889 306.407 56.1104 306.987C56.6377 307.562 57.3057 307.849 58.1143 307.849C58.6885 307.849 59.1748 307.731 59.5732 307.497C59.9717 307.263 60.3203 306.952 60.6191 306.565L61.6123 307.339C60.8154 308.563 59.6201 309.176 58.0264 309.176ZM57.8242 300.65C57.168 300.65 56.6172 300.891 56.1719 301.371C55.7266 301.846 55.4512 302.514 55.3457 303.375H60.1094V303.252C60.0625 302.426 59.8398 301.787 59.4414 301.336C59.043 300.879 58.5039 300.65 57.8242 300.65ZM71.6582 304.351C71.6582 305.798 71.3271 306.964 70.665 307.849C70.0029 308.733 69.1064 309.176 67.9756 309.176C66.8213 309.176 65.9131 308.81 65.251 308.077V312.656H63.625V299.49H65.1104L65.1895 300.545C65.8516 299.725 66.7715 299.314 67.9492 299.314C69.0918 299.314 69.9941 299.745 70.6562 300.606C71.3242 301.468 71.6582 302.666 71.6582 304.201V304.351ZM70.0322 304.166C70.0322 303.094 69.8037 302.247 69.3467 301.626C68.8896 301.005 68.2627 300.694 67.4658 300.694C66.4814 300.694 65.7432 301.131 65.251 302.004V306.548C65.7373 307.415 66.4814 307.849 67.4834 307.849C68.2627 307.849 68.8809 307.541 69.3379 306.926C69.8008 306.305 70.0322 305.385 70.0322 304.166ZM77.6787 309.176C76.3896 309.176 75.3408 308.754 74.5322 307.91C73.7236 307.061 73.3193 305.927 73.3193 304.509V304.21C73.3193 303.267 73.498 302.426 73.8555 301.688C74.2188 300.943 74.7227 300.363 75.3672 299.947C76.0176 299.525 76.7207 299.314 77.4766 299.314C78.7129 299.314 79.6738 299.722 80.3594 300.536C81.0449 301.351 81.3877 302.517 81.3877 304.034V304.711H74.9453C74.9688 305.648 75.2412 306.407 75.7627 306.987C76.29 307.562 76.958 307.849 77.7666 307.849C78.3408 307.849 78.8271 307.731 79.2256 307.497C79.624 307.263 79.9727 306.952 80.2715 306.565L81.2646 307.339C80.4678 308.563 79.2725 309.176 77.6787 309.176ZM77.4766 300.65C76.8203 300.65 76.2695 300.891 75.8242 301.371C75.3789 301.846 75.1035 302.514 74.998 303.375H79.7617V303.252C79.7148 302.426 79.4922 301.787 79.0938 301.336C78.6953 300.879 78.1562 300.65 77.4766 300.65ZM83.4268 309V299.49H87.1357C88.4014 299.49 89.3711 299.713 90.0449 300.158C90.7246 300.598 91.0645 301.245 91.0645 302.101C91.0645 302.54 90.9326 302.938 90.6689 303.296C90.4053 303.647 90.0156 303.917 89.5 304.104C90.0742 304.239 90.5342 304.503 90.8799 304.896C91.2314 305.288 91.4072 305.757 91.4072 306.302C91.4072 307.175 91.085 307.843 90.4404 308.306C89.8018 308.769 88.8965 309 87.7246 309H83.4268ZM85.0527 304.825V307.69H87.7422C88.4219 307.69 88.9287 307.564 89.2627 307.312C89.6025 307.061 89.7725 306.706 89.7725 306.249C89.7725 305.3 89.0752 304.825 87.6807 304.825H85.0527ZM85.0527 303.524H87.1533C88.6768 303.524 89.4385 303.079 89.4385 302.188C89.4385 301.298 88.7178 300.838 87.2764 300.809H85.0527V303.524ZM93.1299 304.157C93.1299 303.226 93.3115 302.388 93.6748 301.644C94.0439 300.899 94.5537 300.325 95.2041 299.921C95.8604 299.517 96.6074 299.314 97.4453 299.314C98.7402 299.314 99.7861 299.763 100.583 300.659C101.386 301.556 101.787 302.748 101.787 304.236V304.351C101.787 305.276 101.608 306.108 101.251 306.847C100.899 307.579 100.393 308.15 99.7305 308.561C99.0742 308.971 98.3184 309.176 97.4629 309.176C96.1738 309.176 95.1279 308.728 94.3252 307.831C93.5283 306.935 93.1299 305.748 93.1299 304.271V304.157ZM94.7646 304.351C94.7646 305.405 95.0078 306.252 95.4941 306.891C95.9863 307.529 96.6426 307.849 97.4629 307.849C98.2891 307.849 98.9453 307.526 99.4316 306.882C99.918 306.231 100.161 305.323 100.161 304.157C100.161 303.114 99.9121 302.271 99.4141 301.626C98.9219 300.976 98.2656 300.65 97.4453 300.65C96.6426 300.65 95.9951 300.97 95.5029 301.608C95.0107 302.247 94.7646 303.161 94.7646 304.351ZM109.056 302.092C109.056 301.646 108.886 301.295 108.546 301.037C108.206 300.773 107.74 300.642 107.148 300.642C106.574 300.642 106.094 300.791 105.707 301.09C105.326 301.389 105.136 301.74 105.136 302.145H103.519C103.519 301.318 103.864 300.642 104.556 300.114C105.247 299.587 106.111 299.323 107.148 299.323C108.262 299.323 109.129 299.563 109.75 300.044C110.371 300.519 110.682 301.198 110.682 302.083C110.682 302.511 110.553 302.903 110.295 303.261C110.037 303.618 109.671 303.902 109.196 304.113C110.304 304.488 110.857 305.227 110.857 306.328C110.857 307.201 110.521 307.893 109.847 308.402C109.173 308.912 108.273 309.167 107.148 309.167C106.053 309.167 105.147 308.9 104.433 308.367C103.724 307.828 103.369 307.102 103.369 306.188H104.986C104.986 306.65 105.191 307.049 105.602 307.383C106.018 307.711 106.533 307.875 107.148 307.875C107.77 307.875 108.271 307.731 108.651 307.444C109.032 307.157 109.223 306.785 109.223 306.328C109.223 305.795 109.062 305.414 108.739 305.186C108.423 304.951 107.928 304.834 107.254 304.834H105.628V303.463H107.395C108.502 303.434 109.056 302.977 109.056 302.092ZM115.929 304.948H114.742V309H113.107V299.49H114.742V303.516H115.806L119.005 299.49H120.974L117.212 304.061L121.29 309H119.225L115.929 304.948ZM128.84 299.49H130.466V309H128.84V302.065L124.454 309H122.828V299.49H124.454V306.434L128.84 299.49Z" fill="#3E3E41"/>
<rect y="288" width="30" height="30" rx="10" fill="#A24750"/>
<path d="M51.3291 341.015C51.3291 342.269 51.1182 343.364 50.6963 344.302C50.2744 345.233 49.6768 345.945 48.9033 346.438C48.1299 346.93 47.2275 347.176 46.1963 347.176C45.1885 347.176 44.2949 346.93 43.5156 346.438C42.7363 345.939 42.1299 345.233 41.6963 344.319C41.2686 343.399 41.0488 342.336 41.0371 341.129V340.206C41.0371 338.976 41.251 337.889 41.6787 336.945C42.1064 336.002 42.71 335.281 43.4893 334.783C44.2744 334.279 45.1709 334.027 46.1787 334.027C47.2041 334.027 48.1064 334.276 48.8857 334.774C49.6709 335.267 50.2744 335.984 50.6963 336.928C51.1182 337.865 51.3291 338.958 51.3291 340.206V341.015ZM49.6504 340.188C49.6504 338.671 49.3457 337.508 48.7363 336.699C48.127 335.885 47.2744 335.478 46.1787 335.478C45.1123 335.478 44.2715 335.885 43.6562 336.699C43.0469 337.508 42.7334 338.633 42.7158 340.074V341.015C42.7158 342.485 43.0234 343.643 43.6387 344.486C44.2598 345.324 45.1123 345.743 46.1963 345.743C47.2861 345.743 48.1299 345.348 48.7275 344.557C49.3252 343.76 49.6328 342.62 49.6504 341.138V340.188ZM61.3838 347H59.7578V338.835H55.3809V347H53.7461V337.49H61.3838V347ZM67.9404 347.176C66.6514 347.176 65.6025 346.754 64.7939 345.91C63.9854 345.061 63.5811 343.927 63.5811 342.509V342.21C63.5811 341.267 63.7598 340.426 64.1172 339.688C64.4805 338.943 64.9844 338.363 65.6289 337.947C66.2793 337.525 66.9824 337.314 67.7383 337.314C68.9746 337.314 69.9355 337.722 70.6211 338.536C71.3066 339.351 71.6494 340.517 71.6494 342.034V342.711H65.207C65.2305 343.648 65.5029 344.407 66.0244 344.987C66.5518 345.562 67.2197 345.849 68.0283 345.849C68.6025 345.849 69.0889 345.731 69.4873 345.497C69.8857 345.263 70.2344 344.952 70.5332 344.565L71.5264 345.339C70.7295 346.563 69.5342 347.176 67.9404 347.176ZM67.7383 338.65C67.082 338.65 66.5312 338.891 66.0859 339.371C65.6406 339.846 65.3652 340.514 65.2598 341.375H70.0234V341.252C69.9766 340.426 69.7539 339.787 69.3555 339.336C68.957 338.879 68.418 338.65 67.7383 338.65ZM81.5723 342.351C81.5723 343.798 81.2412 344.964 80.5791 345.849C79.917 346.733 79.0205 347.176 77.8896 347.176C76.7354 347.176 75.8271 346.81 75.165 346.077V350.656H73.5391V337.49H75.0244L75.1035 338.545C75.7656 337.725 76.6855 337.314 77.8633 337.314C79.0059 337.314 79.9082 337.745 80.5703 338.606C81.2383 339.468 81.5723 340.666 81.5723 342.201V342.351ZM79.9463 342.166C79.9463 341.094 79.7178 340.247 79.2607 339.626C78.8037 339.005 78.1768 338.694 77.3799 338.694C76.3955 338.694 75.6572 339.131 75.165 340.004V344.548C75.6514 345.415 76.3955 345.849 77.3975 345.849C78.1768 345.849 78.7949 345.541 79.252 344.926C79.7148 344.305 79.9463 343.385 79.9463 342.166ZM89.5176 347C89.4238 346.812 89.3477 346.479 89.2891 345.998C88.5332 346.783 87.6309 347.176 86.582 347.176C85.6445 347.176 84.874 346.912 84.2705 346.385C83.6729 345.852 83.374 345.178 83.374 344.363C83.374 343.373 83.749 342.605 84.499 342.061C85.2549 341.51 86.3154 341.234 87.6807 341.234H89.2627V340.487C89.2627 339.919 89.0928 339.468 88.7529 339.134C88.4131 338.794 87.9121 338.624 87.25 338.624C86.6699 338.624 86.1836 338.771 85.791 339.063C85.3984 339.356 85.2021 339.711 85.2021 340.127H83.5674C83.5674 339.652 83.7344 339.195 84.0684 338.756C84.4082 338.311 84.8652 337.959 85.4395 337.701C86.0195 337.443 86.6553 337.314 87.3467 337.314C88.4424 337.314 89.3008 337.59 89.9219 338.141C90.543 338.686 90.8652 339.438 90.8887 340.399V344.776C90.8887 345.649 91 346.344 91.2227 346.859V347H89.5176ZM86.8193 345.761C87.3291 345.761 87.8125 345.629 88.2695 345.365C88.7266 345.102 89.0576 344.759 89.2627 344.337V342.386H87.9883C85.9961 342.386 85 342.969 85 344.135C85 344.645 85.1699 345.043 85.5098 345.33C85.8496 345.617 86.2861 345.761 86.8193 345.761ZM93.5781 337.49H95.2129V345.673H99.5898V337.49H101.216V345.673H102.35L102.191 349.821H100.732V347H93.5781V337.49ZM110.26 337.49H111.886V347H110.26V340.065L105.874 347H104.248V337.49H105.874V344.434L110.26 337.49ZM120.648 337.49H122.274V347H120.648V340.065L116.263 347H114.637V337.49H116.263V344.434L120.648 337.49ZM133.164 345.849C133.744 345.849 134.251 345.673 134.685 345.321C135.118 344.97 135.358 344.53 135.405 344.003H136.943C136.914 344.548 136.727 345.066 136.381 345.559C136.035 346.051 135.572 346.443 134.992 346.736C134.418 347.029 133.809 347.176 133.164 347.176C131.869 347.176 130.838 346.745 130.07 345.884C129.309 345.017 128.928 343.833 128.928 342.333V342.061C128.928 341.135 129.098 340.312 129.438 339.591C129.777 338.87 130.264 338.311 130.896 337.912C131.535 337.514 132.288 337.314 133.155 337.314C134.222 337.314 135.106 337.634 135.81 338.272C136.519 338.911 136.896 339.74 136.943 340.76H135.405C135.358 340.145 135.124 339.641 134.702 339.248C134.286 338.85 133.771 338.65 133.155 338.65C132.329 338.65 131.688 338.949 131.23 339.547C130.779 340.139 130.554 340.997 130.554 342.122V342.43C130.554 343.525 130.779 344.369 131.23 344.961C131.682 345.553 132.326 345.849 133.164 345.849ZM151.006 347H149.38V342.939H145.012V347H143.377V337.49H145.012V341.612H149.38V337.49H151.006V347ZM157.571 347.176C156.282 347.176 155.233 346.754 154.425 345.91C153.616 345.061 153.212 343.927 153.212 342.509V342.21C153.212 341.267 153.391 340.426 153.748 339.688C154.111 338.943 154.615 338.363 155.26 337.947C155.91 337.525 156.613 337.314 157.369 337.314C158.605 337.314 159.566 337.722 160.252 338.536C160.938 339.351 161.28 340.517 161.28 342.034V342.711H154.838C154.861 343.648 155.134 344.407 155.655 344.987C156.183 345.562 156.851 345.849 157.659 345.849C158.233 345.849 158.72 345.731 159.118 345.497C159.517 345.263 159.865 344.952 160.164 344.565L161.157 345.339C160.36 346.563 159.165 347.176 157.571 347.176ZM157.369 338.65C156.713 338.65 156.162 338.891 155.717 339.371C155.271 339.846 154.996 340.514 154.891 341.375H159.654V341.252C159.607 340.426 159.385 339.787 158.986 339.336C158.588 338.879 158.049 338.65 157.369 338.65ZM163.091 345.673L163.653 344.979C164.286 344.158 164.646 342.928 164.734 341.287L164.884 337.49H171.01V345.673H172.231V349.795H170.605V347H163.97V349.795H162.344L162.353 345.673H163.091ZM165.016 345.673H169.384V338.993H166.457L166.36 341.261C166.261 343.153 165.812 344.624 165.016 345.673ZM174.183 347V337.49H177.892C179.157 337.49 180.127 337.713 180.801 338.158C181.48 338.598 181.82 339.245 181.82 340.101C181.82 340.54 181.688 340.938 181.425 341.296C181.161 341.647 180.771 341.917 180.256 342.104C180.83 342.239 181.29 342.503 181.636 342.896C181.987 343.288 182.163 343.757 182.163 344.302C182.163 345.175 181.841 345.843 181.196 346.306C180.558 346.769 179.652 347 178.48 347H174.183ZM175.809 342.825V345.69H178.498C179.178 345.69 179.685 345.564 180.019 345.312C180.358 345.061 180.528 344.706 180.528 344.249C180.528 343.3 179.831 342.825 178.437 342.825H175.809ZM175.809 341.524H177.909C179.433 341.524 180.194 341.079 180.194 340.188C180.194 339.298 179.474 338.838 178.032 338.809H175.809V341.524ZM190.469 337.49H192.095V347H190.469V340.065L186.083 347H184.457V337.49H186.083V344.434L190.469 337.49ZM202.29 342.869H201.147V347H199.521V342.869H198.379L195.716 347H193.659L197.061 342.078L193.984 337.49H195.953L198.405 341.428H199.521V337.49H201.147V341.428H202.255L204.725 337.49H206.693L203.608 342.087L207.01 347H204.953L202.29 342.869ZM214.639 337.49H216.265V347H214.639V340.065L210.253 347H208.627V337.49H210.253V344.434L214.639 337.49ZM224.351 344.847L227.585 337.49H229.615V347H227.989V340.083L224.913 347H223.788L220.65 339.934V347H219.024V337.49H221.134L224.351 344.847ZM234.01 340.769H236.479C237.558 340.78 238.41 341.062 239.037 341.612C239.664 342.163 239.978 342.91 239.978 343.854C239.978 344.803 239.655 345.564 239.011 346.139C238.366 346.713 237.499 347 236.409 347H232.384V337.49H234.01V340.769ZM243.37 347H241.735V337.49H243.37V347ZM234.01 342.096V345.673H236.427C237.036 345.673 237.508 345.518 237.842 345.207C238.176 344.891 238.343 344.46 238.343 343.915C238.343 343.388 238.179 342.957 237.851 342.623C237.528 342.283 237.074 342.107 236.488 342.096H234.01ZM251.685 344.847L254.919 337.49H256.949V347H255.323V340.083L252.247 347H251.122L247.984 339.934V347H246.358V337.49H248.468L251.685 344.847ZM47.3828 358.49H49.0088V368H47.3828V361.065L42.9971 368H41.3711V358.49H42.9971V365.434L47.3828 358.49ZM57.0947 365.847L60.3291 358.49H62.3594V368H60.7334V361.083L57.6572 368H56.5322L53.3945 360.934V368H51.7686V358.49H53.8779L57.0947 365.847ZM70.4541 365.847L73.6885 358.49H75.7188V368H74.0928V361.083L71.0166 368H69.8916L66.7539 360.934V368H65.1279V358.49H67.2373L70.4541 365.847ZM81.4492 365.618L83.6641 358.49H85.4043L81.5811 369.468C80.9893 371.05 80.0488 371.841 78.7598 371.841L78.4521 371.814L77.8457 371.7V370.382L78.2852 370.417C78.8359 370.417 79.2637 370.306 79.5684 370.083C79.8789 369.86 80.1338 369.453 80.333 368.861L80.6934 367.895L77.3008 358.49H79.0762L81.4492 365.618ZM88.542 358.49V366.673H92.0225V358.49H93.6484V366.673H97.1201V358.49H98.7549V366.673H100.091L99.9326 370.821H98.4736V368H86.9072V358.49H88.542ZM105.804 368.176C104.515 368.176 103.466 367.754 102.657 366.91C101.849 366.061 101.444 364.927 101.444 363.509V363.21C101.444 362.267 101.623 361.426 101.98 360.688C102.344 359.943 102.848 359.363 103.492 358.947C104.143 358.525 104.846 358.314 105.602 358.314C106.838 358.314 107.799 358.722 108.484 359.536C109.17 360.351 109.513 361.517 109.513 363.034V363.711H103.07C103.094 364.648 103.366 365.407 103.888 365.987C104.415 366.562 105.083 366.849 105.892 366.849C106.466 366.849 106.952 366.731 107.351 366.497C107.749 366.263 108.098 365.952 108.396 365.565L109.39 366.339C108.593 367.563 107.397 368.176 105.804 368.176ZM105.602 359.65C104.945 359.65 104.395 359.891 103.949 360.371C103.504 360.846 103.229 361.514 103.123 362.375H107.887V362.252C107.84 361.426 107.617 360.787 107.219 360.336C106.82 359.879 106.281 359.65 105.602 359.65ZM115.217 366.849C115.797 366.849 116.304 366.673 116.737 366.321C117.171 365.97 117.411 365.53 117.458 365.003H118.996C118.967 365.548 118.779 366.066 118.434 366.559C118.088 367.051 117.625 367.443 117.045 367.736C116.471 368.029 115.861 368.176 115.217 368.176C113.922 368.176 112.891 367.745 112.123 366.884C111.361 366.017 110.98 364.833 110.98 363.333V363.061C110.98 362.135 111.15 361.312 111.49 360.591C111.83 359.87 112.316 359.311 112.949 358.912C113.588 358.514 114.341 358.314 115.208 358.314C116.274 358.314 117.159 358.634 117.862 359.272C118.571 359.911 118.949 360.74 118.996 361.76H117.458C117.411 361.145 117.177 360.641 116.755 360.248C116.339 359.85 115.823 359.65 115.208 359.65C114.382 359.65 113.74 359.949 113.283 360.547C112.832 361.139 112.606 361.997 112.606 363.122V363.43C112.606 364.525 112.832 365.369 113.283 365.961C113.734 366.553 114.379 366.849 115.217 366.849ZM127.891 359.809H124.7V368H123.074V359.809H119.945V358.49H127.891V359.809ZM129.622 368V358.49H133.331C134.597 358.49 135.566 358.713 136.24 359.158C136.92 359.598 137.26 360.245 137.26 361.101C137.26 361.54 137.128 361.938 136.864 362.296C136.601 362.647 136.211 362.917 135.695 363.104C136.27 363.239 136.729 363.503 137.075 363.896C137.427 364.288 137.603 364.757 137.603 365.302C137.603 366.175 137.28 366.843 136.636 367.306C135.997 367.769 135.092 368 133.92 368H129.622ZM131.248 363.825V366.69H133.938C134.617 366.69 135.124 366.564 135.458 366.312C135.798 366.061 135.968 365.706 135.968 365.249C135.968 364.3 135.271 363.825 133.876 363.825H131.248ZM131.248 362.524H133.349C134.872 362.524 135.634 362.079 135.634 361.188C135.634 360.298 134.913 359.838 133.472 359.809H131.248V362.524ZM139.325 363.157C139.325 362.226 139.507 361.388 139.87 360.644C140.239 359.899 140.749 359.325 141.399 358.921C142.056 358.517 142.803 358.314 143.641 358.314C144.936 358.314 145.981 358.763 146.778 359.659C147.581 360.556 147.982 361.748 147.982 363.236V363.351C147.982 364.276 147.804 365.108 147.446 365.847C147.095 366.579 146.588 367.15 145.926 367.561C145.27 367.971 144.514 368.176 143.658 368.176C142.369 368.176 141.323 367.728 140.521 366.831C139.724 365.935 139.325 364.748 139.325 363.271V363.157ZM140.96 363.351C140.96 364.405 141.203 365.252 141.689 365.891C142.182 366.529 142.838 366.849 143.658 366.849C144.484 366.849 145.141 366.526 145.627 365.882C146.113 365.231 146.356 364.323 146.356 363.157C146.356 362.114 146.107 361.271 145.609 360.626C145.117 359.976 144.461 359.65 143.641 359.65C142.838 359.65 142.19 359.97 141.698 360.608C141.206 361.247 140.96 362.161 140.96 363.351ZM155.497 365.847L158.731 358.49H160.762V368H159.136V361.083L156.06 368H154.935L151.797 360.934V368H150.171V358.49H152.28L155.497 365.847ZM163.328 370.549L162.405 369.916C162.956 369.148 163.243 368.357 163.267 367.543V366.075H164.857V367.35C164.857 367.941 164.711 368.533 164.418 369.125C164.131 369.717 163.768 370.191 163.328 370.549ZM177.25 368C177.156 367.812 177.08 367.479 177.021 366.998C176.266 367.783 175.363 368.176 174.314 368.176C173.377 368.176 172.606 367.912 172.003 367.385C171.405 366.852 171.106 366.178 171.106 365.363C171.106 364.373 171.481 363.605 172.231 363.061C172.987 362.51 174.048 362.234 175.413 362.234H176.995V361.487C176.995 360.919 176.825 360.468 176.485 360.134C176.146 359.794 175.645 359.624 174.982 359.624C174.402 359.624 173.916 359.771 173.523 360.063C173.131 360.356 172.935 360.711 172.935 361.127H171.3C171.3 360.652 171.467 360.195 171.801 359.756C172.141 359.311 172.598 358.959 173.172 358.701C173.752 358.443 174.388 358.314 175.079 358.314C176.175 358.314 177.033 358.59 177.654 359.141C178.275 359.686 178.598 360.438 178.621 361.399V365.776C178.621 366.649 178.732 367.344 178.955 367.859V368H177.25ZM174.552 366.761C175.062 366.761 175.545 366.629 176.002 366.365C176.459 366.102 176.79 365.759 176.995 365.337V363.386H175.721C173.729 363.386 172.732 363.969 172.732 365.135C172.732 365.645 172.902 366.043 173.242 366.33C173.582 366.617 174.019 366.761 174.552 366.761ZM189.203 363.351C189.203 364.798 188.872 365.964 188.21 366.849C187.548 367.733 186.651 368.176 185.521 368.176C184.366 368.176 183.458 367.81 182.796 367.077V371.656H181.17V358.49H182.655L182.734 359.545C183.396 358.725 184.316 358.314 185.494 358.314C186.637 358.314 187.539 358.745 188.201 359.606C188.869 360.468 189.203 361.666 189.203 363.201V363.351ZM187.577 363.166C187.577 362.094 187.349 361.247 186.892 360.626C186.435 360.005 185.808 359.694 185.011 359.694C184.026 359.694 183.288 360.131 182.796 361.004V365.548C183.282 366.415 184.026 366.849 185.028 366.849C185.808 366.849 186.426 366.541 186.883 365.926C187.346 365.305 187.577 364.385 187.577 363.166ZM195.224 368.176C193.935 368.176 192.886 367.754 192.077 366.91C191.269 366.061 190.864 364.927 190.864 363.509V363.21C190.864 362.267 191.043 361.426 191.4 360.688C191.764 359.943 192.268 359.363 192.912 358.947C193.562 358.525 194.266 358.314 195.021 358.314C196.258 358.314 197.219 358.722 197.904 359.536C198.59 360.351 198.933 361.517 198.933 363.034V363.711H192.49C192.514 364.648 192.786 365.407 193.308 365.987C193.835 366.562 194.503 366.849 195.312 366.849C195.886 366.849 196.372 366.731 196.771 366.497C197.169 366.263 197.518 365.952 197.816 365.565L198.81 366.339C198.013 367.563 196.817 368.176 195.224 368.176ZM195.021 359.65C194.365 359.65 193.814 359.891 193.369 360.371C192.924 360.846 192.648 361.514 192.543 362.375H197.307V362.252C197.26 361.426 197.037 360.787 196.639 360.336C196.24 359.879 195.701 359.65 195.021 359.65ZM208.592 368H206.966V363.939H202.598V368H200.963V358.49H202.598V362.612H206.966V358.49H208.592V368ZM211.132 366.673L211.694 365.979C212.327 365.158 212.688 363.928 212.775 362.287L212.925 358.49H219.051V366.673H220.272V370.795H218.646V368H212.011V370.795H210.385L210.394 366.673H211.132ZM213.057 366.673H217.425V359.993H214.498L214.401 362.261C214.302 364.153 213.854 365.624 213.057 366.673ZM227.945 368C227.852 367.812 227.775 367.479 227.717 366.998C226.961 367.783 226.059 368.176 225.01 368.176C224.072 368.176 223.302 367.912 222.698 367.385C222.101 366.852 221.802 366.178 221.802 365.363C221.802 364.373 222.177 363.605 222.927 363.061C223.683 362.51 224.743 362.234 226.108 362.234H227.69V361.487C227.69 360.919 227.521 360.468 227.181 360.134C226.841 359.794 226.34 359.624 225.678 359.624C225.098 359.624 224.611 359.771 224.219 360.063C223.826 360.356 223.63 360.711 223.63 361.127H221.995C221.995 360.652 222.162 360.195 222.496 359.756C222.836 359.311 223.293 358.959 223.867 358.701C224.447 358.443 225.083 358.314 225.774 358.314C226.87 358.314 227.729 358.59 228.35 359.141C228.971 359.686 229.293 360.438 229.316 361.399V365.776C229.316 366.649 229.428 367.344 229.65 367.859V368H227.945ZM225.247 366.761C225.757 366.761 226.24 366.629 226.697 366.365C227.154 366.102 227.485 365.759 227.69 365.337V363.386H226.416C224.424 363.386 223.428 363.969 223.428 365.135C223.428 365.645 223.598 366.043 223.938 366.33C224.277 366.617 224.714 366.761 225.247 366.761Z" fill="#3E3E41"/>
<rect y="336" width="30" height="30" rx="10" fill="#9D6672"/>
</svg>
