<svg width="266" height="126" viewBox="0 0 266 126" fill="none" xmlns="http://www.w3.org/2000/svg">
<path d="M51.0508 11.6396C51.0508 10.96 50.8018 10.4209 50.3037 10.0225C49.8115 9.61816 49.1172 9.41602 48.2207 9.41602C47.4707 9.41602 46.8408 9.62402 46.3311 10.04C45.8271 10.4502 45.5752 10.96 45.5752 11.5693H43.8877C43.8877 10.8896 44.0723 10.2803 44.4414 9.74121C44.8164 9.20215 45.3379 8.7832 46.0059 8.48438C46.6738 8.17969 47.4121 8.02734 48.2207 8.02734C49.6504 8.02734 50.7607 8.34961 51.5518 8.99414C52.3428 9.63281 52.7383 10.5234 52.7383 11.666C52.7383 12.2578 52.5566 12.7969 52.1934 13.2832C51.8301 13.7695 51.3232 14.1533 50.6729 14.4346C52.1787 14.9385 52.9316 15.9375 52.9316 17.4316C52.9316 18.5801 52.5039 19.4912 51.6484 20.165C50.793 20.8389 49.6504 21.1758 48.2207 21.1758C47.3711 21.1758 46.5977 21.0264 45.9004 20.7275C45.209 20.4229 44.6699 19.9922 44.2832 19.4355C43.8965 18.8789 43.7031 18.2168 43.7031 17.4492H45.3906C45.3906 18.123 45.6572 18.6855 46.1904 19.1367C46.7236 19.582 47.4004 19.8047 48.2207 19.8047C49.1406 19.8047 49.873 19.5908 50.418 19.1631C50.9688 18.7354 51.2441 18.1699 51.2441 17.4668C51.2441 15.9668 50.3154 15.2021 48.458 15.1729H46.876V13.7842H48.4492C49.3047 13.7666 49.9521 13.5732 50.3916 13.2041C50.8311 12.835 51.0508 12.3135 51.0508 11.6396ZM55.0674 21V11.4902H58.7764C60.042 11.4902 61.0117 11.7129 61.6855 12.1582C62.3652 12.5977 62.7051 13.2451 62.7051 14.1006C62.7051 14.54 62.5732 14.9385 62.3096 15.2959C62.0459 15.6475 61.6562 15.917 61.1406 16.1045C61.7148 16.2393 62.1748 16.5029 62.5205 16.8955C62.8721 17.2881 63.0479 17.7568 63.0479 18.3018C63.0479 19.1748 62.7256 19.8428 62.0811 20.3057C61.4424 20.7686 60.5371 21 59.3652 21H55.0674ZM56.6934 16.8252V19.6904H59.3828C60.0625 19.6904 60.5693 19.5645 60.9033 19.3125C61.2432 19.0605 61.4131 18.7061 61.4131 18.249C61.4131 17.2998 60.7158 16.8252 59.3213 16.8252H56.6934ZM56.6934 15.5244H58.7939C60.3174 15.5244 61.0791 15.0791 61.0791 14.1885C61.0791 13.2979 60.3584 12.8379 58.917 12.8086H56.6934V15.5244ZM64.7705 16.1572C64.7705 15.2256 64.9521 14.3877 65.3154 13.6436C65.6846 12.8994 66.1943 12.3252 66.8447 11.9209C67.501 11.5166 68.248 11.3145 69.0859 11.3145C70.3809 11.3145 71.4268 11.7627 72.2236 12.6592C73.0264 13.5557 73.4277 14.748 73.4277 16.2363V16.3506C73.4277 17.2764 73.249 18.1084 72.8916 18.8467C72.54 19.5791 72.0332 20.1504 71.3711 20.5605C70.7148 20.9707 69.959 21.1758 69.1035 21.1758C67.8145 21.1758 66.7686 20.7275 65.9658 19.8311C65.1689 18.9346 64.7705 17.748 64.7705 16.2715V16.1572ZM66.4053 16.3506C66.4053 17.4053 66.6484 18.252 67.1348 18.8906C67.627 19.5293 68.2832 19.8486 69.1035 19.8486C69.9297 19.8486 70.5859 19.5264 71.0723 18.8818C71.5586 18.2314 71.8018 17.3232 71.8018 16.1572C71.8018 15.1143 71.5527 14.2705 71.0547 13.626C70.5625 12.9756 69.9062 12.6504 69.0859 12.6504C68.2832 12.6504 67.6357 12.9697 67.1436 13.6084C66.6514 14.2471 66.4053 15.1611 66.4053 16.3506ZM83.2363 21H81.6104V16.9395H77.2422V21H75.6074V11.4902H77.2422V15.6123H81.6104V11.4902H83.2363V21ZM88.8174 16.9482H87.6309V21H85.9961V11.4902H87.6309V15.5156H88.6943L91.8936 11.4902H93.8623L90.1006 16.0605L94.1787 21H92.1133L88.8174 16.9482ZM101.729 11.4902H103.354V21H101.729V14.0654L97.3428 21H95.7168V11.4902H97.3428V18.4336L101.729 11.4902ZM118.199 21H116.573V16.9395H112.205V21H110.57V11.4902H112.205V15.6123H116.573V11.4902H118.199V21ZM126.689 21C126.596 20.8125 126.52 20.4785 126.461 19.998C125.705 20.7832 124.803 21.1758 123.754 21.1758C122.816 21.1758 122.046 20.9121 121.442 20.3848C120.845 19.8516 120.546 19.1777 120.546 18.3633C120.546 17.373 120.921 16.6055 121.671 16.0605C122.427 15.5098 123.487 15.2344 124.853 15.2344H126.435V14.4873C126.435 13.9189 126.265 13.4678 125.925 13.1338C125.585 12.7939 125.084 12.624 124.422 12.624C123.842 12.624 123.355 12.7705 122.963 13.0635C122.57 13.3564 122.374 13.7109 122.374 14.127H120.739C120.739 13.6523 120.906 13.1953 121.24 12.7559C121.58 12.3105 122.037 11.959 122.611 11.7012C123.191 11.4434 123.827 11.3145 124.519 11.3145C125.614 11.3145 126.473 11.5898 127.094 12.1406C127.715 12.6855 128.037 13.4385 128.061 14.3994V18.7764C128.061 19.6494 128.172 20.3438 128.395 20.8594V21H126.689ZM123.991 19.7607C124.501 19.7607 124.984 19.6289 125.441 19.3652C125.898 19.1016 126.229 18.7588 126.435 18.3369V16.3857H125.16C123.168 16.3857 122.172 16.9688 122.172 18.1348C122.172 18.6445 122.342 19.043 122.682 19.3301C123.021 19.6172 123.458 19.7607 123.991 19.7607ZM141.218 12.835H136.832V21H135.197V11.4902H141.218V12.835ZM142.026 16.1572C142.026 15.2256 142.208 14.3877 142.571 13.6436C142.94 12.8994 143.45 12.3252 144.101 11.9209C144.757 11.5166 145.504 11.3145 146.342 11.3145C147.637 11.3145 148.683 11.7627 149.479 12.6592C150.282 13.5557 150.684 14.748 150.684 16.2363V16.3506C150.684 17.2764 150.505 18.1084 150.147 18.8467C149.796 19.5791 149.289 20.1504 148.627 20.5605C147.971 20.9707 147.215 21.1758 146.359 21.1758C145.07 21.1758 144.024 20.7275 143.222 19.8311C142.425 18.9346 142.026 17.748 142.026 16.2715V16.1572ZM143.661 16.3506C143.661 17.4053 143.904 18.252 144.391 18.8906C144.883 19.5293 145.539 19.8486 146.359 19.8486C147.186 19.8486 147.842 19.5264 148.328 18.8818C148.814 18.2314 149.058 17.3232 149.058 16.1572C149.058 15.1143 148.809 14.2705 148.311 13.626C147.818 12.9756 147.162 12.6504 146.342 12.6504C145.539 12.6504 144.892 12.9697 144.399 13.6084C143.907 14.2471 143.661 15.1611 143.661 16.3506ZM160.756 16.3506C160.756 17.7979 160.425 18.9639 159.763 19.8486C159.101 20.7334 158.204 21.1758 157.073 21.1758C155.919 21.1758 155.011 20.8096 154.349 20.0771V24.6562H152.723V11.4902H154.208L154.287 12.5449C154.949 11.7246 155.869 11.3145 157.047 11.3145C158.189 11.3145 159.092 11.7451 159.754 12.6064C160.422 13.4678 160.756 14.666 160.756 16.2012V16.3506ZM159.13 16.166C159.13 15.0938 158.901 14.2471 158.444 13.626C157.987 13.0049 157.36 12.6943 156.563 12.6943C155.579 12.6943 154.841 13.1309 154.349 14.0039V18.5479C154.835 19.415 155.579 19.8486 156.581 19.8486C157.36 19.8486 157.979 19.541 158.436 18.9258C158.898 18.3047 159.13 17.3848 159.13 16.166ZM170.099 11.4902V21H168.464V17.2998H166.012L163.771 21H162.013L164.403 17.0537C163.794 16.8311 163.325 16.4883 162.997 16.0254C162.675 15.5566 162.514 15.0117 162.514 14.3906C162.514 13.5234 162.839 12.8262 163.489 12.2988C164.14 11.7656 165.01 11.4961 166.1 11.4902H170.099ZM164.148 14.4082C164.148 14.8711 164.307 15.2461 164.623 15.5332C164.939 15.8145 165.358 15.958 165.88 15.9639H168.464V12.8086H166.126C165.522 12.8086 165.042 12.958 164.685 13.2568C164.327 13.5498 164.148 13.9336 164.148 14.4082ZM179.89 21H178.255V17.5547C177.54 17.7422 176.808 17.8359 176.058 17.8359C174.868 17.8359 173.96 17.5312 173.333 16.9219C172.712 16.3125 172.396 15.4453 172.384 14.3203V11.4814H174.01V14.373C174.039 15.791 174.722 16.5 176.058 16.5C176.808 16.5 177.54 16.4062 178.255 16.2188V11.4902H179.89V21ZM185.611 18.6182L187.826 11.4902H189.566L185.743 22.4678C185.151 24.0498 184.211 24.8408 182.922 24.8408L182.614 24.8145L182.008 24.7002V23.3818L182.447 23.417C182.998 23.417 183.426 23.3057 183.73 23.083C184.041 22.8604 184.296 22.4531 184.495 21.8613L184.855 20.8945L181.463 11.4902H183.238L185.611 18.6182ZM192.801 15.5244H195.086C195.209 14.2588 195.657 13.2422 196.431 12.4746C197.21 11.7012 198.191 11.3145 199.375 11.3145C200.617 11.3145 201.634 11.7334 202.425 12.5713C203.216 13.4092 203.644 14.499 203.708 15.8408L203.717 16.3506C203.717 17.2764 203.535 18.1113 203.172 18.8555C202.809 19.5996 202.299 20.1738 201.643 20.5781C200.986 20.9766 200.236 21.1758 199.393 21.1758C198.168 21.1758 197.166 20.7773 196.387 19.9805C195.607 19.1777 195.171 18.1377 195.077 16.8604H192.801V21H191.175V11.4902H192.801V15.5244ZM196.686 16.3506C196.686 17.4053 196.929 18.252 197.415 18.8906C197.907 19.5293 198.566 19.8486 199.393 19.8486C200.219 19.8486 200.872 19.5234 201.353 18.873C201.839 18.2227 202.082 17.3174 202.082 16.1572C202.082 15.1201 201.836 14.2764 201.344 13.626C200.852 12.9756 200.195 12.6504 199.375 12.6504C198.566 12.6504 197.916 12.9697 197.424 13.6084C196.932 14.2471 196.686 15.1611 196.686 16.3506ZM217.981 11.4902V21H216.347V12.835H213.112L212.919 16.3945C212.813 18.0293 212.538 19.1982 212.093 19.9014C211.653 20.6045 210.953 20.9707 209.992 21H209.342V19.5674L209.808 19.5322C210.335 19.4736 210.713 19.1689 210.941 18.6182C211.17 18.0674 211.316 17.0479 211.381 15.5596L211.557 11.4902H217.981ZM226.744 11.4902H228.37V21H226.744V14.0654L222.358 21H220.732V11.4902H222.358V18.4336L226.744 11.4902ZM238.75 21H237.124V16.9395H232.756V21H231.121V11.4902H232.756V15.6123H237.124V11.4902H238.75V21ZM247.521 11.4902H249.147V21H247.521V14.0654L243.136 21H241.51V11.4902H243.136V18.4336L247.521 11.4902ZM253.533 15.5244H255.818C255.941 14.2588 256.39 13.2422 257.163 12.4746C257.942 11.7012 258.924 11.3145 260.107 11.3145C261.35 11.3145 262.366 11.7334 263.157 12.5713C263.948 13.4092 264.376 14.499 264.44 15.8408L264.449 16.3506C264.449 17.2764 264.268 18.1113 263.904 18.8555C263.541 19.5996 263.031 20.1738 262.375 20.5781C261.719 20.9766 260.969 21.1758 260.125 21.1758C258.9 21.1758 257.898 20.7773 257.119 19.9805C256.34 19.1777 255.903 18.1377 255.81 16.8604H253.533V21H251.907V11.4902H253.533V15.5244ZM257.418 16.3506C257.418 17.4053 257.661 18.252 258.147 18.8906C258.64 19.5293 259.299 19.8486 260.125 19.8486C260.951 19.8486 261.604 19.5234 262.085 18.873C262.571 18.2227 262.814 17.3174 262.814 16.1572C262.814 15.1201 262.568 14.2764 262.076 13.626C261.584 12.9756 260.928 12.6504 260.107 12.6504C259.299 12.6504 258.648 12.9697 258.156 13.6084C257.664 14.2471 257.418 15.1611 257.418 16.3506Z" fill="#3E3E41"/>
<path d="M54.3291 62.0146C54.3291 63.2686 54.1182 64.3643 53.6963 65.3018C53.2744 66.2334 52.6768 66.9453 51.9033 67.4375C51.1299 67.9297 50.2275 68.1758 49.1963 68.1758C48.1885 68.1758 47.2949 67.9297 46.5156 67.4375C45.7363 66.9395 45.1299 66.2334 44.6963 65.3193C44.2686 64.3994 44.0488 63.3359 44.0371 62.1289V61.2061C44.0371 59.9756 44.251 58.8887 44.6787 57.9453C45.1064 57.002 45.71 56.2812 46.4893 55.7832C47.2744 55.2793 48.1709 55.0273 49.1787 55.0273C50.2041 55.0273 51.1064 55.2764 51.8857 55.7744C52.6709 56.2666 53.2744 56.9844 53.6963 57.9277C54.1182 58.8652 54.3291 59.958 54.3291 61.2061V62.0146ZM52.6504 61.1885C52.6504 59.6709 52.3457 58.5078 51.7363 57.6992C51.127 56.8848 50.2744 56.4775 49.1787 56.4775C48.1123 56.4775 47.2715 56.8848 46.6562 57.6992C46.0469 58.5078 45.7334 59.6328 45.7158 61.0742V62.0146C45.7158 63.4854 46.0234 64.6426 46.6387 65.4863C47.2598 66.3242 48.1123 66.7432 49.1963 66.7432C50.2861 66.7432 51.1299 66.3477 51.7275 65.5566C52.3252 64.7598 52.6328 63.6201 52.6504 62.1377V61.1885ZM64.375 68H62.749V63.9395H58.3809V68H56.7461V58.4902H58.3809V62.6123H62.749V58.4902H64.375V68ZM74.79 58.4902V68H73.1553V59.835H69.9209L69.7275 63.3945C69.6221 65.0293 69.3467 66.1982 68.9014 66.9014C68.4619 67.6045 67.7617 67.9707 66.8008 68H66.1504V66.5674L66.6162 66.5322C67.1436 66.4736 67.5215 66.1689 67.75 65.6182C67.9785 65.0674 68.125 64.0479 68.1895 62.5596L68.3652 58.4902H74.79ZM83.2715 68C83.1777 67.8125 83.1016 67.4785 83.043 66.998C82.2871 67.7832 81.3848 68.1758 80.3359 68.1758C79.3984 68.1758 78.6279 67.9121 78.0244 67.3848C77.4268 66.8516 77.1279 66.1777 77.1279 65.3633C77.1279 64.373 77.5029 63.6055 78.2529 63.0605C79.0088 62.5098 80.0693 62.2344 81.4346 62.2344H83.0166V61.4873C83.0166 60.9189 82.8467 60.4678 82.5068 60.1338C82.167 59.7939 81.666 59.624 81.0039 59.624C80.4238 59.624 79.9375 59.7705 79.5449 60.0635C79.1523 60.3564 78.9561 60.7109 78.9561 61.127H77.3213C77.3213 60.6523 77.4883 60.1953 77.8223 59.7559C78.1621 59.3105 78.6191 58.959 79.1934 58.7012C79.7734 58.4434 80.4092 58.3145 81.1006 58.3145C82.1963 58.3145 83.0547 58.5898 83.6758 59.1406C84.2969 59.6855 84.6191 60.4385 84.6426 61.3994V65.7764C84.6426 66.6494 84.7539 67.3438 84.9766 67.8594V68H83.2715ZM80.5732 66.7607C81.083 66.7607 81.5664 66.6289 82.0234 66.3652C82.4805 66.1016 82.8115 65.7588 83.0166 65.3369V63.3857H81.7422C79.75 63.3857 78.7539 63.9688 78.7539 65.1348C78.7539 65.6445 78.9238 66.043 79.2637 66.3301C79.6035 66.6172 80.04 66.7607 80.5732 66.7607ZM93.3438 58.4902H94.9697V68H93.3438V61.0654L88.958 68H87.332V58.4902H88.958V65.4336L93.3438 58.4902ZM93.7832 55.0273C93.7832 55.7363 93.54 56.3076 93.0537 56.7412C92.5732 57.1689 91.9404 57.3828 91.1553 57.3828C90.3701 57.3828 89.7344 57.166 89.248 56.7324C88.7617 56.2988 88.5186 55.7305 88.5186 55.0273H89.8457C89.8457 55.4375 89.957 55.7598 90.1797 55.9941C90.4023 56.2227 90.7275 56.3369 91.1553 56.3369C91.5654 56.3369 91.8848 56.2227 92.1133 55.9941C92.3477 55.7656 92.4648 55.4434 92.4648 55.0273H93.7832ZM105.35 68H103.724V63.9395H99.3555V68H97.7207V58.4902H99.3555V62.6123H103.724V58.4902H105.35V68ZM111.353 63.2275H107.063V61.9004H111.353V63.2275ZM118.814 68C118.721 67.8125 118.645 67.4785 118.586 66.998C117.83 67.7832 116.928 68.1758 115.879 68.1758C114.941 68.1758 114.171 67.9121 113.567 67.3848C112.97 66.8516 112.671 66.1777 112.671 65.3633C112.671 64.373 113.046 63.6055 113.796 63.0605C114.552 62.5098 115.612 62.2344 116.978 62.2344H118.56V61.4873C118.56 60.9189 118.39 60.4678 118.05 60.1338C117.71 59.7939 117.209 59.624 116.547 59.624C115.967 59.624 115.48 59.7705 115.088 60.0635C114.695 60.3564 114.499 60.7109 114.499 61.127H112.864C112.864 60.6523 113.031 60.1953 113.365 59.7559C113.705 59.3105 114.162 58.959 114.736 58.7012C115.316 58.4434 115.952 58.3145 116.644 58.3145C117.739 58.3145 118.598 58.5898 119.219 59.1406C119.84 59.6855 120.162 60.4385 120.186 61.3994V65.7764C120.186 66.6494 120.297 67.3438 120.52 67.8594V68H118.814ZM116.116 66.7607C116.626 66.7607 117.109 66.6289 117.566 66.3652C118.023 66.1016 118.354 65.7588 118.56 65.3369V63.3857H117.285C115.293 63.3857 114.297 63.9688 114.297 65.1348C114.297 65.6445 114.467 66.043 114.807 66.3301C115.146 66.6172 115.583 66.7607 116.116 66.7607ZM130.504 68H128.878V63.9395H124.51V68H122.875V58.4902H124.51V62.6123H128.878V58.4902H130.504V68ZM136.085 63.9482H134.898V68H133.264V58.4902H134.898V62.5156H135.962L139.161 58.4902H141.13L137.368 63.0605L141.446 68H139.381L136.085 63.9482ZM146.649 68.1758C145.36 68.1758 144.312 67.7539 143.503 66.9102C142.694 66.0605 142.29 64.9268 142.29 63.5088V63.21C142.29 62.2666 142.469 61.4258 142.826 60.6875C143.189 59.9434 143.693 59.3633 144.338 58.9473C144.988 58.5254 145.691 58.3145 146.447 58.3145C147.684 58.3145 148.645 58.7217 149.33 59.5361C150.016 60.3506 150.358 61.5166 150.358 63.0342V63.7109H143.916C143.939 64.6484 144.212 65.4072 144.733 65.9873C145.261 66.5615 145.929 66.8486 146.737 66.8486C147.312 66.8486 147.798 66.7314 148.196 66.4971C148.595 66.2627 148.943 65.9521 149.242 65.5654L150.235 66.3389C149.438 67.5635 148.243 68.1758 146.649 68.1758ZM146.447 59.6504C145.791 59.6504 145.24 59.8906 144.795 60.3711C144.35 60.8457 144.074 61.5137 143.969 62.375H148.732V62.252C148.686 61.4258 148.463 60.7871 148.064 60.3359C147.666 59.8789 147.127 59.6504 146.447 59.6504ZM159.209 59.8086H156.019V68H154.393V59.8086H151.264V58.4902H159.209V59.8086ZM162.566 61.7686H165.036C166.114 61.7803 166.967 62.0615 167.594 62.6123C168.221 63.1631 168.534 63.9102 168.534 64.8535C168.534 65.8027 168.212 66.5645 167.567 67.1387C166.923 67.7129 166.056 68 164.966 68H160.94V58.4902H162.566V61.7686ZM171.927 68H170.292V58.4902H171.927V68ZM162.566 63.0957V66.6729H164.983C165.593 66.6729 166.064 66.5176 166.398 66.207C166.732 65.8906 166.899 65.46 166.899 64.915C166.899 64.3877 166.735 63.957 166.407 63.623C166.085 63.2832 165.631 63.1074 165.045 63.0957H162.566Z" fill="#3E3E41"/>
<path d="M54.3291 109.015C54.3291 110.269 54.1182 111.364 53.6963 112.302C53.2744 113.233 52.6768 113.945 51.9033 114.438C51.1299 114.93 50.2275 115.176 49.1963 115.176C48.1885 115.176 47.2949 114.93 46.5156 114.438C45.7363 113.939 45.1299 113.233 44.6963 112.319C44.2686 111.399 44.0488 110.336 44.0371 109.129V108.206C44.0371 106.976 44.251 105.889 44.6787 104.945C45.1064 104.002 45.71 103.281 46.4893 102.783C47.2744 102.279 48.1709 102.027 49.1787 102.027C50.2041 102.027 51.1064 102.276 51.8857 102.774C52.6709 103.267 53.2744 103.984 53.6963 104.928C54.1182 105.865 54.3291 106.958 54.3291 108.206V109.015ZM52.6504 108.188C52.6504 106.671 52.3457 105.508 51.7363 104.699C51.127 103.885 50.2744 103.478 49.1787 103.478C48.1123 103.478 47.2715 103.885 46.6562 104.699C46.0469 105.508 45.7334 106.633 45.7158 108.074V109.015C45.7158 110.485 46.0234 111.643 46.6387 112.486C47.2598 113.324 48.1123 113.743 49.1963 113.743C50.2861 113.743 51.1299 113.348 51.7275 112.557C52.3252 111.76 52.6328 110.62 52.6504 109.138V108.188ZM60.7803 106.035C61.9756 106.035 62.9307 106.437 63.6455 107.239C64.3662 108.036 64.7266 109.088 64.7266 110.395V110.544C64.7266 111.44 64.5537 112.243 64.208 112.952C63.8623 113.655 63.3643 114.203 62.7139 114.596C62.0693 114.982 61.3252 115.176 60.4814 115.176C59.2041 115.176 58.1758 114.751 57.3965 113.901C56.6172 113.046 56.2275 111.9 56.2275 110.465V109.674C56.2275 107.676 56.5967 106.088 57.335 104.91C58.0791 103.732 59.1748 103.015 60.6221 102.757C61.4424 102.61 61.9961 102.432 62.2832 102.221C62.5703 102.01 62.7139 101.72 62.7139 101.351H64.0498C64.0498 102.083 63.8828 102.654 63.5488 103.064C63.2207 103.475 62.6934 103.765 61.9668 103.935L60.7539 104.207C59.7871 104.436 59.0605 104.822 58.5742 105.367C58.0938 105.906 57.7803 106.627 57.6338 107.529C58.4951 106.533 59.5439 106.035 60.7803 106.035ZM60.4639 107.371C59.667 107.371 59.0342 107.641 58.5654 108.18C58.0967 108.713 57.8623 109.454 57.8623 110.403V110.544C57.8623 111.563 58.0967 112.372 58.5654 112.97C59.04 113.562 59.6787 113.857 60.4814 113.857C61.29 113.857 61.9287 113.559 62.3975 112.961C62.8662 112.363 63.1006 111.49 63.1006 110.342C63.1006 109.445 62.8633 108.728 62.3887 108.188C61.9199 107.644 61.2783 107.371 60.4639 107.371ZM74.4297 110.351C74.4297 111.798 74.0986 112.964 73.4365 113.849C72.7744 114.733 71.8779 115.176 70.7471 115.176C69.5928 115.176 68.6846 114.81 68.0225 114.077V118.656H66.3965V105.49H67.8818L67.9609 106.545C68.623 105.725 69.543 105.314 70.7207 105.314C71.8633 105.314 72.7656 105.745 73.4277 106.606C74.0957 107.468 74.4297 108.666 74.4297 110.201V110.351ZM72.8037 110.166C72.8037 109.094 72.5752 108.247 72.1182 107.626C71.6611 107.005 71.0342 106.694 70.2373 106.694C69.2529 106.694 68.5146 107.131 68.0225 108.004V112.548C68.5088 113.415 69.2529 113.849 70.2549 113.849C71.0342 113.849 71.6523 113.541 72.1094 112.926C72.5723 112.305 72.8037 111.385 72.8037 110.166ZM82.375 115C82.2812 114.812 82.2051 114.479 82.1465 113.998C81.3906 114.783 80.4883 115.176 79.4395 115.176C78.502 115.176 77.7314 114.912 77.1279 114.385C76.5303 113.852 76.2314 113.178 76.2314 112.363C76.2314 111.373 76.6064 110.605 77.3564 110.061C78.1123 109.51 79.1729 109.234 80.5381 109.234H82.1201V108.487C82.1201 107.919 81.9502 107.468 81.6104 107.134C81.2705 106.794 80.7695 106.624 80.1074 106.624C79.5273 106.624 79.041 106.771 78.6484 107.063C78.2559 107.356 78.0596 107.711 78.0596 108.127H76.4248C76.4248 107.652 76.5918 107.195 76.9258 106.756C77.2656 106.311 77.7227 105.959 78.2969 105.701C78.877 105.443 79.5127 105.314 80.2041 105.314C81.2998 105.314 82.1582 105.59 82.7793 106.141C83.4004 106.686 83.7227 107.438 83.7461 108.399V112.776C83.7461 113.649 83.8574 114.344 84.0801 114.859V115H82.375ZM79.6768 113.761C80.1865 113.761 80.6699 113.629 81.127 113.365C81.584 113.102 81.915 112.759 82.1201 112.337V110.386H80.8457C78.8535 110.386 77.8574 110.969 77.8574 112.135C77.8574 112.645 78.0273 113.043 78.3672 113.33C78.707 113.617 79.1436 113.761 79.6768 113.761ZM87.9736 105.49V113.673H91.4541V105.49H93.0801V113.673H96.5518V105.49H98.1865V113.673H99.5225L99.3643 117.821H97.9053V115H86.3389V105.49H87.9736ZM105.235 115.176C103.946 115.176 102.897 114.754 102.089 113.91C101.28 113.061 100.876 111.927 100.876 110.509V110.21C100.876 109.267 101.055 108.426 101.412 107.688C101.775 106.943 102.279 106.363 102.924 105.947C103.574 105.525 104.277 105.314 105.033 105.314C106.27 105.314 107.23 105.722 107.916 106.536C108.602 107.351 108.944 108.517 108.944 110.034V110.711H102.502C102.525 111.648 102.798 112.407 103.319 112.987C103.847 113.562 104.515 113.849 105.323 113.849C105.897 113.849 106.384 113.731 106.782 113.497C107.181 113.263 107.529 112.952 107.828 112.565L108.821 113.339C108.024 114.563 106.829 115.176 105.235 115.176ZM105.033 106.65C104.377 106.65 103.826 106.891 103.381 107.371C102.936 107.846 102.66 108.514 102.555 109.375H107.318V109.252C107.271 108.426 107.049 107.787 106.65 107.336C106.252 106.879 105.713 106.65 105.033 106.65ZM118.604 115H116.978V110.939H112.609V115H110.975V105.49H112.609V109.612H116.978V105.49H118.604V115ZM127.375 105.49H129.001V115H127.375V108.065L122.989 115H121.363V105.49H122.989V112.434L127.375 105.49ZM138.88 105.49V115H137.245V111.3H134.793L132.552 115H130.794L133.185 111.054C132.575 110.831 132.106 110.488 131.778 110.025C131.456 109.557 131.295 109.012 131.295 108.391C131.295 107.523 131.62 106.826 132.271 106.299C132.921 105.766 133.791 105.496 134.881 105.49H138.88ZM132.93 108.408C132.93 108.871 133.088 109.246 133.404 109.533C133.721 109.814 134.14 109.958 134.661 109.964H137.245V106.809H134.907C134.304 106.809 133.823 106.958 133.466 107.257C133.108 107.55 132.93 107.934 132.93 108.408ZM146.104 115V105.49H149.813C151.079 105.49 152.049 105.713 152.723 106.158C153.402 106.598 153.742 107.245 153.742 108.101C153.742 108.54 153.61 108.938 153.347 109.296C153.083 109.647 152.693 109.917 152.178 110.104C152.752 110.239 153.212 110.503 153.558 110.896C153.909 111.288 154.085 111.757 154.085 112.302C154.085 113.175 153.763 113.843 153.118 114.306C152.479 114.769 151.574 115 150.402 115H146.104ZM147.73 110.825V113.69H150.42C151.1 113.69 151.606 113.564 151.94 113.312C152.28 113.061 152.45 112.706 152.45 112.249C152.45 111.3 151.753 110.825 150.358 110.825H147.73ZM147.73 109.524H149.831C151.354 109.524 152.116 109.079 152.116 108.188C152.116 107.298 151.396 106.838 149.954 106.809H147.73V109.524ZM172.472 118.138H170.793V115H161.608V118.146H159.921L159.912 113.62H160.958C161.509 112.999 161.945 112.167 162.268 111.124C162.596 110.075 162.801 108.927 162.883 107.679L163.164 102.203H170.819V113.62H172.489L172.472 118.138ZM162.883 113.62H169.123V103.592H164.79L164.605 107.354C164.529 108.824 164.333 110.078 164.017 111.115C163.706 112.152 163.328 112.987 162.883 113.62ZM175.996 110.939C176.16 111.994 176.491 112.735 176.989 113.163C177.493 113.585 178.214 113.796 179.151 113.796C180.165 113.796 180.965 113.4 181.551 112.609C182.143 111.818 182.444 110.72 182.456 109.313H177.42V107.925H182.456C182.456 106.536 182.151 105.438 181.542 104.629C180.938 103.82 180.092 103.416 179.002 103.416C178.123 103.416 177.438 103.645 176.945 104.102C176.459 104.559 176.143 105.297 175.996 106.316H174.3C174.435 104.975 174.912 103.926 175.732 103.17C176.553 102.408 177.643 102.027 179.002 102.027C180.033 102.027 180.938 102.273 181.718 102.766C182.503 103.252 183.104 103.949 183.52 104.857C183.941 105.76 184.152 106.8 184.152 107.978V109.252C184.152 110.43 183.944 111.47 183.528 112.372C183.112 113.274 182.523 113.969 181.762 114.455C181.006 114.936 180.136 115.176 179.151 115.176C177.757 115.176 176.638 114.81 175.794 114.077C174.956 113.339 174.458 112.293 174.3 110.939H175.996ZM196.396 115H194.699V103.592H188.389V115H186.701V102.203H196.396V115ZM205.369 105.49H206.995V115H205.369V108.065L200.983 115H199.357V105.49H200.983V112.434L205.369 105.49ZM211.548 109.99V115H209.86V102.203H214.58C215.98 102.203 217.076 102.561 217.867 103.275C218.664 103.99 219.062 104.937 219.062 106.114C219.062 107.356 218.673 108.314 217.894 108.988C217.12 109.656 216.01 109.99 214.562 109.99H211.548ZM211.548 108.61H214.58C215.482 108.61 216.174 108.399 216.654 107.978C217.135 107.55 217.375 106.935 217.375 106.132C217.375 105.37 217.135 104.761 216.654 104.304C216.174 103.847 215.515 103.609 214.677 103.592H211.548V108.61Z" fill="#3E3E41"/>
<rect width="30" height="30" rx="10" fill="#AA2C2E"/>
<rect y="48" width="30" height="30" rx="10" fill="#9B7A87"/>
<rect y="96" width="30" height="30" rx="10" fill="#939AA4"/>
</svg>
