<svg width="363" height="366" viewBox="0 0 363 366" fill="none" xmlns="http://www.w3.org/2000/svg">
<path d="M51.3291 101.015C51.3291 102.269 51.1182 103.364 50.6963 104.302C50.2744 105.233 49.6768 105.945 48.9033 106.438C48.1299 106.93 47.2275 107.176 46.1963 107.176C45.1885 107.176 44.2949 106.93 43.5156 106.438C42.7363 105.939 42.1299 105.233 41.6963 104.319C41.2686 103.399 41.0488 102.336 41.0371 101.129V100.206C41.0371 98.9756 41.251 97.8887 41.6787 96.9453C42.1064 96.002 42.71 95.2812 43.4893 94.7832C44.2744 94.2793 45.1709 94.0273 46.1787 94.0273C47.2041 94.0273 48.1064 94.2764 48.8857 94.7744C49.6709 95.2666 50.2744 95.9844 50.6963 96.9277C51.1182 97.8652 51.3291 98.958 51.3291 100.206V101.015ZM49.6504 100.188C49.6504 98.6709 49.3457 97.5078 48.7363 96.6992C48.127 95.8848 47.2744 95.4775 46.1787 95.4775C45.1123 95.4775 44.2715 95.8848 43.6562 96.6992C43.0469 97.5078 42.7334 98.6328 42.7158 100.074V101.015C42.7158 102.485 43.0234 103.643 43.6387 104.486C44.2598 105.324 45.1123 105.743 46.1963 105.743C47.2861 105.743 48.1299 105.348 48.7275 104.557C49.3252 103.76 49.6328 102.62 49.6504 101.138V100.188ZM61.6387 102.351C61.6387 103.798 61.3076 104.964 60.6455 105.849C59.9834 106.733 59.0869 107.176 57.9561 107.176C56.8018 107.176 55.8936 106.81 55.2314 106.077V110.656H53.6055V97.4902H55.0908L55.1699 98.5449C55.832 97.7246 56.752 97.3145 57.9297 97.3145C59.0723 97.3145 59.9746 97.7451 60.6367 98.6064C61.3047 99.4678 61.6387 100.666 61.6387 102.201V102.351ZM60.0127 102.166C60.0127 101.094 59.7842 100.247 59.3271 99.626C58.8701 99.0049 58.2432 98.6943 57.4463 98.6943C56.4619 98.6943 55.7236 99.1309 55.2314 100.004V104.548C55.7178 105.415 56.4619 105.849 57.4639 105.849C58.2432 105.849 58.8613 105.541 59.3184 104.926C59.7812 104.305 60.0127 103.385 60.0127 102.166ZM69.8564 98.835H65.4707V107H63.8359V97.4902H69.8564V98.835ZM77.1426 107C77.0488 106.812 76.9727 106.479 76.9141 105.998C76.1582 106.783 75.2559 107.176 74.207 107.176C73.2695 107.176 72.499 106.912 71.8955 106.385C71.2979 105.852 70.999 105.178 70.999 104.363C70.999 103.373 71.374 102.605 72.124 102.061C72.8799 101.51 73.9404 101.234 75.3057 101.234H76.8877V100.487C76.8877 99.9189 76.7178 99.4678 76.3779 99.1338C76.0381 98.7939 75.5371 98.624 74.875 98.624C74.2949 98.624 73.8086 98.7705 73.416 99.0635C73.0234 99.3564 72.8271 99.7109 72.8271 100.127H71.1924C71.1924 99.6523 71.3594 99.1953 71.6934 98.7559C72.0332 98.3105 72.4902 97.959 73.0645 97.7012C73.6445 97.4434 74.2803 97.3145 74.9717 97.3145C76.0674 97.3145 76.9258 97.5898 77.5469 98.1406C78.168 98.6855 78.4902 99.4385 78.5137 100.399V104.776C78.5137 105.649 78.625 106.344 78.8477 106.859V107H77.1426ZM74.4443 105.761C74.9541 105.761 75.4375 105.629 75.8945 105.365C76.3516 105.102 76.6826 104.759 76.8877 104.337V102.386H75.6133C73.6211 102.386 72.625 102.969 72.625 104.135C72.625 104.645 72.7949 105.043 73.1348 105.33C73.4746 105.617 73.9111 105.761 74.4443 105.761ZM88.832 107H87.2061V102.939H82.8379V107H81.2031V97.4902H82.8379V101.612H87.2061V97.4902H88.832V107ZM97.6035 97.4902H99.2295V107H97.6035V100.065L93.2178 107H91.5918V97.4902H93.2178V104.434L97.6035 97.4902ZM107.069 100.092C107.069 99.6465 106.899 99.2949 106.56 99.0371C106.22 98.7734 105.754 98.6416 105.162 98.6416C104.588 98.6416 104.107 98.791 103.721 99.0898C103.34 99.3887 103.149 99.7402 103.149 100.145H101.532C101.532 99.3184 101.878 98.6416 102.569 98.1143C103.261 97.5869 104.125 97.3232 105.162 97.3232C106.275 97.3232 107.143 97.5635 107.764 98.0439C108.385 98.5186 108.695 99.1982 108.695 100.083C108.695 100.511 108.566 100.903 108.309 101.261C108.051 101.618 107.685 101.902 107.21 102.113C108.317 102.488 108.871 103.227 108.871 104.328C108.871 105.201 108.534 105.893 107.86 106.402C107.187 106.912 106.287 107.167 105.162 107.167C104.066 107.167 103.161 106.9 102.446 106.367C101.737 105.828 101.383 105.102 101.383 104.188H103C103 104.65 103.205 105.049 103.615 105.383C104.031 105.711 104.547 105.875 105.162 105.875C105.783 105.875 106.284 105.731 106.665 105.444C107.046 105.157 107.236 104.785 107.236 104.328C107.236 103.795 107.075 103.414 106.753 103.186C106.437 102.951 105.941 102.834 105.268 102.834H103.642V101.463H105.408C106.516 101.434 107.069 100.977 107.069 100.092ZM116.852 107C116.758 106.812 116.682 106.479 116.623 105.998C115.867 106.783 114.965 107.176 113.916 107.176C112.979 107.176 112.208 106.912 111.604 106.385C111.007 105.852 110.708 105.178 110.708 104.363C110.708 103.373 111.083 102.605 111.833 102.061C112.589 101.51 113.649 101.234 115.015 101.234H116.597V100.487C116.597 99.9189 116.427 99.4678 116.087 99.1338C115.747 98.7939 115.246 98.624 114.584 98.624C114.004 98.624 113.518 98.7705 113.125 99.0635C112.732 99.3564 112.536 99.7109 112.536 100.127H110.901C110.901 99.6523 111.068 99.1953 111.402 98.7559C111.742 98.3105 112.199 97.959 112.773 97.7012C113.354 97.4434 113.989 97.3145 114.681 97.3145C115.776 97.3145 116.635 97.5898 117.256 98.1406C117.877 98.6855 118.199 99.4385 118.223 100.399V104.776C118.223 105.649 118.334 106.344 118.557 106.859V107H116.852ZM114.153 105.761C114.663 105.761 115.146 105.629 115.604 105.365C116.061 105.102 116.392 104.759 116.597 104.337V102.386H115.322C113.33 102.386 112.334 102.969 112.334 104.135C112.334 104.645 112.504 105.043 112.844 105.33C113.184 105.617 113.62 105.761 114.153 105.761ZM120.912 97.4902H122.547V105.673H126.924V97.4902H128.55V105.673H129.684L129.525 109.821H128.066V107H120.912V97.4902ZM137.594 97.4902H139.22V107H137.594V100.065L133.208 107H131.582V97.4902H133.208V104.434L137.594 97.4902ZM149.099 97.4902V107H147.464V103.3H145.012L142.771 107H141.013L143.403 103.054C142.794 102.831 142.325 102.488 141.997 102.025C141.675 101.557 141.514 101.012 141.514 100.391C141.514 99.5234 141.839 98.8262 142.489 98.2988C143.14 97.7656 144.01 97.4961 145.1 97.4902H149.099ZM143.148 100.408C143.148 100.871 143.307 101.246 143.623 101.533C143.939 101.814 144.358 101.958 144.88 101.964H147.464V98.8086H145.126C144.522 98.8086 144.042 98.958 143.685 99.2568C143.327 99.5498 143.148 99.9336 143.148 100.408ZM161.649 104.847L164.884 97.4902H166.914V107H165.288V100.083L162.212 107H161.087L157.949 99.9336V107H156.323V97.4902H158.433L161.649 104.847ZM173.479 107.176C172.19 107.176 171.142 106.754 170.333 105.91C169.524 105.061 169.12 103.927 169.12 102.509V102.21C169.12 101.267 169.299 100.426 169.656 99.6875C170.02 98.9434 170.523 98.3633 171.168 97.9473C171.818 97.5254 172.521 97.3145 173.277 97.3145C174.514 97.3145 175.475 97.7217 176.16 98.5361C176.846 99.3506 177.188 100.517 177.188 102.034V102.711H170.746C170.77 103.648 171.042 104.407 171.563 104.987C172.091 105.562 172.759 105.849 173.567 105.849C174.142 105.849 174.628 105.731 175.026 105.497C175.425 105.263 175.773 104.952 176.072 104.565L177.065 105.339C176.269 106.563 175.073 107.176 173.479 107.176ZM173.277 98.6504C172.621 98.6504 172.07 98.8906 171.625 99.3711C171.18 99.8457 170.904 100.514 170.799 101.375H175.562V101.252C175.516 100.426 175.293 99.7871 174.895 99.3359C174.496 98.8789 173.957 98.6504 173.277 98.6504ZM187.111 102.351C187.111 103.798 186.78 104.964 186.118 105.849C185.456 106.733 184.56 107.176 183.429 107.176C182.274 107.176 181.366 106.81 180.704 106.077V110.656H179.078V97.4902H180.563L180.643 98.5449C181.305 97.7246 182.225 97.3145 183.402 97.3145C184.545 97.3145 185.447 97.7451 186.109 98.6064C186.777 99.4678 187.111 100.666 187.111 102.201V102.351ZM185.485 102.166C185.485 101.094 185.257 100.247 184.8 99.626C184.343 99.0049 183.716 98.6943 182.919 98.6943C181.935 98.6943 181.196 99.1309 180.704 100.004V104.548C181.19 105.415 181.935 105.849 182.937 105.849C183.716 105.849 184.334 105.541 184.791 104.926C185.254 104.305 185.485 103.385 185.485 102.166ZM188.755 102.157C188.755 101.226 188.937 100.388 189.3 99.6436C189.669 98.8994 190.179 98.3252 190.829 97.9209C191.485 97.5166 192.232 97.3145 193.07 97.3145C194.365 97.3145 195.411 97.7627 196.208 98.6592C197.011 99.5557 197.412 100.748 197.412 102.236V102.351C197.412 103.276 197.233 104.108 196.876 104.847C196.524 105.579 196.018 106.15 195.355 106.561C194.699 106.971 193.943 107.176 193.088 107.176C191.799 107.176 190.753 106.728 189.95 105.831C189.153 104.935 188.755 103.748 188.755 102.271V102.157ZM190.39 102.351C190.39 103.405 190.633 104.252 191.119 104.891C191.611 105.529 192.268 105.849 193.088 105.849C193.914 105.849 194.57 105.526 195.057 104.882C195.543 104.231 195.786 103.323 195.786 102.157C195.786 101.114 195.537 100.271 195.039 99.626C194.547 98.9756 193.891 98.6504 193.07 98.6504C192.268 98.6504 191.62 98.9697 191.128 99.6084C190.636 100.247 190.39 101.161 190.39 102.351ZM207.229 107H205.604V98.835H201.227V107H199.592V97.4902H207.229V107ZM217.873 102.351C217.873 103.798 217.542 104.964 216.88 105.849C216.218 106.733 215.321 107.176 214.19 107.176C213.036 107.176 212.128 106.81 211.466 106.077V110.656H209.84V97.4902H211.325L211.404 98.5449C212.066 97.7246 212.986 97.3145 214.164 97.3145C215.307 97.3145 216.209 97.7451 216.871 98.6064C217.539 99.4678 217.873 100.666 217.873 102.201V102.351ZM216.247 102.166C216.247 101.094 216.019 100.247 215.562 99.626C215.104 99.0049 214.478 98.6943 213.681 98.6943C212.696 98.6943 211.958 99.1309 211.466 100.004V104.548C211.952 105.415 212.696 105.849 213.698 105.849C214.478 105.849 215.096 105.541 215.553 104.926C216.016 104.305 216.247 103.385 216.247 102.166ZM226.1 97.4902H227.726V107H226.1V100.065L221.714 107H220.088V97.4902H221.714V104.434L226.1 97.4902ZM237.604 97.4902V107H235.97V103.3H233.518L231.276 107H229.519L231.909 103.054C231.3 102.831 230.831 102.488 230.503 102.025C230.181 101.557 230.02 101.012 230.02 100.391C230.02 99.5234 230.345 98.8262 230.995 98.2988C231.646 97.7656 232.516 97.4961 233.605 97.4902H237.604ZM231.654 100.408C231.654 100.871 231.812 101.246 232.129 101.533C232.445 101.814 232.864 101.958 233.386 101.964H235.97V98.8086H233.632C233.028 98.8086 232.548 98.958 232.19 99.2568C231.833 99.5498 231.654 99.9336 231.654 100.408ZM247.281 98.8086H244.091V107H242.465V98.8086H239.336V97.4902H247.281V98.8086ZM255.016 97.4902H256.642V107H255.016V100.065L250.63 107H249.004V97.4902H250.63V104.434L255.016 97.4902ZM265.404 97.4902H267.03V107H265.404V100.065L261.019 107H259.393V97.4902H261.019V104.434L265.404 97.4902ZM265.844 94.0273C265.844 94.7363 265.601 95.3076 265.114 95.7412C264.634 96.1689 264.001 96.3828 263.216 96.3828C262.431 96.3828 261.795 96.166 261.309 95.7324C260.822 95.2988 260.579 94.7305 260.579 94.0273H261.906C261.906 94.4375 262.018 94.7598 262.24 94.9941C262.463 95.2227 262.788 95.3369 263.216 95.3369C263.626 95.3369 263.945 95.2227 264.174 94.9941C264.408 94.7656 264.525 94.4434 264.525 94.0273H265.844ZM269.588 109.549L268.665 108.916C269.216 108.148 269.503 107.357 269.526 106.543V105.075H271.117V106.35C271.117 106.941 270.971 107.533 270.678 108.125C270.391 108.717 270.027 109.191 269.588 109.549ZM41.3799 128V118.49H45.0889C46.3545 118.49 47.3242 118.713 47.998 119.158C48.6777 119.598 49.0176 120.245 49.0176 121.101C49.0176 121.54 48.8857 121.938 48.6221 122.296C48.3584 122.647 47.9688 122.917 47.4531 123.104C48.0273 123.239 48.4873 123.503 48.833 123.896C49.1846 124.288 49.3604 124.757 49.3604 125.302C49.3604 126.175 49.0381 126.843 48.3936 127.306C47.7549 127.769 46.8496 128 45.6777 128H41.3799ZM43.0059 123.825V126.69H45.6953C46.375 126.69 46.8818 126.564 47.2158 126.312C47.5557 126.061 47.7256 125.706 47.7256 125.249C47.7256 124.3 47.0283 123.825 45.6338 123.825H43.0059ZM43.0059 122.524H45.1064C46.6299 122.524 47.3916 122.079 47.3916 121.188C47.3916 120.298 46.6709 119.838 45.2295 119.809H43.0059V122.524ZM53.2891 121.769H55.7588C56.8369 121.78 57.6895 122.062 58.3164 122.612C58.9434 123.163 59.2568 123.91 59.2568 124.854C59.2568 125.803 58.9346 126.564 58.29 127.139C57.6455 127.713 56.7783 128 55.6885 128H51.6631V118.49H53.2891V121.769ZM62.6494 128H61.0146V118.49H62.6494V128ZM53.2891 123.096V126.673H55.7061C56.3154 126.673 56.7871 126.518 57.1211 126.207C57.4551 125.891 57.6221 125.46 57.6221 124.915C57.6221 124.388 57.458 123.957 57.1299 123.623C56.8076 123.283 56.3535 123.107 55.7676 123.096H53.2891ZM69.3027 126.849C69.8828 126.849 70.3896 126.673 70.8232 126.321C71.2568 125.97 71.4971 125.53 71.5439 125.003H73.082C73.0527 125.548 72.8652 126.066 72.5195 126.559C72.1738 127.051 71.7109 127.443 71.1309 127.736C70.5566 128.029 69.9473 128.176 69.3027 128.176C68.0078 128.176 66.9766 127.745 66.209 126.884C65.4473 126.017 65.0664 124.833 65.0664 123.333V123.061C65.0664 122.135 65.2363 121.312 65.5762 120.591C65.916 119.87 66.4023 119.311 67.0352 118.912C67.6738 118.514 68.4268 118.314 69.2939 118.314C70.3604 118.314 71.2451 118.634 71.9482 119.272C72.6572 119.911 73.0352 120.74 73.082 121.76H71.5439C71.4971 121.145 71.2627 120.641 70.8408 120.248C70.4248 119.85 69.9092 119.65 69.2939 119.65C68.4678 119.65 67.8262 119.949 67.3691 120.547C66.918 121.139 66.6924 121.997 66.6924 123.122V123.43C66.6924 124.525 66.918 125.369 67.3691 125.961C67.8203 126.553 68.4648 126.849 69.3027 126.849ZM81.9766 119.809H78.7861V128H77.1602V119.809H74.0312V118.49H81.9766V119.809ZM89.2891 128C89.1953 127.812 89.1191 127.479 89.0605 126.998C88.3047 127.783 87.4023 128.176 86.3535 128.176C85.416 128.176 84.6455 127.912 84.042 127.385C83.4443 126.852 83.1455 126.178 83.1455 125.363C83.1455 124.373 83.5205 123.605 84.2705 123.061C85.0264 122.51 86.0869 122.234 87.4521 122.234H89.0342V121.487C89.0342 120.919 88.8643 120.468 88.5244 120.134C88.1846 119.794 87.6836 119.624 87.0215 119.624C86.4414 119.624 85.9551 119.771 85.5625 120.063C85.1699 120.356 84.9736 120.711 84.9736 121.127H83.3389C83.3389 120.652 83.5059 120.195 83.8398 119.756C84.1797 119.311 84.6367 118.959 85.2109 118.701C85.791 118.443 86.4268 118.314 87.1182 118.314C88.2139 118.314 89.0723 118.59 89.6934 119.141C90.3145 119.686 90.6367 120.438 90.6602 121.399V125.776C90.6602 126.649 90.7715 127.344 90.9941 127.859V128H89.2891ZM86.5908 126.761C87.1006 126.761 87.584 126.629 88.041 126.365C88.498 126.102 88.8291 125.759 89.0342 125.337V123.386H87.7598C85.7676 123.386 84.7715 123.969 84.7715 125.135C84.7715 125.645 84.9414 126.043 85.2812 126.33C85.6211 126.617 86.0576 126.761 86.5908 126.761ZM93.3584 128V118.49H97.0674C98.333 118.49 99.3027 118.713 99.9766 119.158C100.656 119.598 100.996 120.245 100.996 121.101C100.996 121.54 100.864 121.938 100.601 122.296C100.337 122.647 99.9473 122.917 99.4316 123.104C100.006 123.239 100.466 123.503 100.812 123.896C101.163 124.288 101.339 124.757 101.339 125.302C101.339 126.175 101.017 126.843 100.372 127.306C99.7334 127.769 98.8281 128 97.6562 128H93.3584ZM94.9844 123.825V126.69H97.6738C98.3535 126.69 98.8604 126.564 99.1943 126.312C99.5342 126.061 99.7041 125.706 99.7041 125.249C99.7041 124.3 99.0068 123.825 97.6123 123.825H94.9844ZM94.9844 122.524H97.085C98.6084 122.524 99.3701 122.079 99.3701 121.188C99.3701 120.298 98.6494 119.838 97.208 119.809H94.9844V122.524ZM106.454 123.948H105.268V128H103.633V118.49H105.268V122.516H106.331L109.53 118.49H111.499L107.737 123.061L111.815 128H109.75L106.454 123.948ZM119.365 118.49H120.991V128H119.365V121.065L114.979 128H113.354V118.49H114.979V125.434L119.365 118.49Z" fill="#3E3E41"/>
<rect x="1" y="96" width="30" height="30" rx="10" fill="#997F8B"/>
<path d="M49.5537 152.203H51.2412V165H49.5537V155.139L43.252 165H41.5557V152.203H43.252V162.064L49.5537 152.203ZM62.8955 153.592H58.7822V165H57.1035V153.592H52.999V152.203H62.8955V153.592Z" fill="#3E3E41"/>
<rect x="1" y="144" width="30" height="30" rx="10" fill="#968893"/>
<path d="M44.8076 207.252H43.252V213H41.5645V200.203H43.252V205.846H44.5703L49.0439 200.203H51.1445L46.2578 206.408L51.5049 213H49.4395L44.8076 207.252ZM55.5566 210.618L57.7715 203.49H59.5117L55.6885 214.468C55.0967 216.05 54.1562 216.841 52.8672 216.841L52.5596 216.814L51.9531 216.7V215.382L52.3926 215.417C52.9434 215.417 53.3711 215.306 53.6758 215.083C53.9863 214.86 54.2412 214.453 54.4404 213.861L54.8008 212.895L51.4082 203.49H53.1836L55.5566 210.618ZM68.3975 203.49V213H66.7627V204.835H63.5283L63.335 208.395C63.2295 210.029 62.9541 211.198 62.5088 211.901C62.0693 212.604 61.3691 212.971 60.4082 213H59.7578V211.567L60.2236 211.532C60.751 211.474 61.1289 211.169 61.3574 210.618C61.5859 210.067 61.7324 209.048 61.7969 207.56L61.9727 203.49H68.3975ZM72.7832 206.769H75.2529C76.3311 206.78 77.1836 207.062 77.8105 207.612C78.4375 208.163 78.751 208.91 78.751 209.854C78.751 210.803 78.4287 211.564 77.7842 212.139C77.1396 212.713 76.2725 213 75.1826 213H71.1572V203.49H72.7832V206.769ZM72.7832 208.096V211.673H75.2002C75.8096 211.673 76.2812 211.518 76.6152 211.207C76.9492 210.891 77.1162 210.46 77.1162 209.915C77.1162 209.388 76.9521 208.957 76.624 208.623C76.3018 208.283 75.8477 208.107 75.2617 208.096H72.7832ZM87.2324 204.809H84.042V213H82.416V204.809H79.2871V203.49H87.2324V204.809ZM92.0312 210.618L94.2461 203.49H95.9863L92.1631 214.468C91.5713 216.05 90.6309 216.841 89.3418 216.841L89.0342 216.814L88.4277 216.7V215.382L88.8672 215.417C89.418 215.417 89.8457 215.306 90.1504 215.083C90.4609 214.86 90.7158 214.453 90.915 213.861L91.2754 212.895L87.8828 203.49H89.6582L92.0312 210.618ZM105.479 208.351C105.479 209.798 105.147 210.964 104.485 211.849C103.823 212.733 102.927 213.176 101.796 213.176C100.642 213.176 99.7334 212.81 99.0713 212.077V216.656H97.4453V203.49H98.9307L99.0098 204.545C99.6719 203.725 100.592 203.314 101.77 203.314C102.912 203.314 103.814 203.745 104.477 204.606C105.145 205.468 105.479 206.666 105.479 208.201V208.351ZM103.853 208.166C103.853 207.094 103.624 206.247 103.167 205.626C102.71 205.005 102.083 204.694 101.286 204.694C100.302 204.694 99.5635 205.131 99.0713 206.004V210.548C99.5576 211.415 100.302 211.849 101.304 211.849C102.083 211.849 102.701 211.541 103.158 210.926C103.621 210.305 103.853 209.385 103.853 208.166ZM113.424 213C113.33 212.812 113.254 212.479 113.195 211.998C112.439 212.783 111.537 213.176 110.488 213.176C109.551 213.176 108.78 212.912 108.177 212.385C107.579 211.852 107.28 211.178 107.28 210.363C107.28 209.373 107.655 208.605 108.405 208.061C109.161 207.51 110.222 207.234 111.587 207.234H113.169V206.487C113.169 205.919 112.999 205.468 112.659 205.134C112.319 204.794 111.818 204.624 111.156 204.624C110.576 204.624 110.09 204.771 109.697 205.063C109.305 205.356 109.108 205.711 109.108 206.127H107.474C107.474 205.652 107.641 205.195 107.975 204.756C108.314 204.311 108.771 203.959 109.346 203.701C109.926 203.443 110.562 203.314 111.253 203.314C112.349 203.314 113.207 203.59 113.828 204.141C114.449 204.686 114.771 205.438 114.795 206.399V210.776C114.795 211.649 114.906 212.344 115.129 212.859V213H113.424ZM110.726 211.761C111.235 211.761 111.719 211.629 112.176 211.365C112.633 211.102 112.964 210.759 113.169 210.337V208.386H111.895C109.902 208.386 108.906 208.969 108.906 210.135C108.906 210.645 109.076 211.043 109.416 211.33C109.756 211.617 110.192 211.761 110.726 211.761ZM117.291 215.549L116.368 214.916C116.919 214.148 117.206 213.357 117.229 212.543V211.075H118.82V212.35C118.82 212.941 118.674 213.533 118.381 214.125C118.094 214.717 117.73 215.191 117.291 215.549ZM125.263 211.673L125.825 210.979C126.458 210.158 126.818 208.928 126.906 207.287L127.056 203.49H133.182V211.673H134.403V215.795H132.777V213H126.142V215.795H124.516L124.524 211.673H125.263ZM127.188 211.673H131.556V204.993H128.629L128.532 207.261C128.433 209.153 127.984 210.624 127.188 211.673ZM135.774 208.157C135.774 207.226 135.956 206.388 136.319 205.644C136.688 204.899 137.198 204.325 137.849 203.921C138.505 203.517 139.252 203.314 140.09 203.314C141.385 203.314 142.431 203.763 143.228 204.659C144.03 205.556 144.432 206.748 144.432 208.236V208.351C144.432 209.276 144.253 210.108 143.896 210.847C143.544 211.579 143.037 212.15 142.375 212.561C141.719 212.971 140.963 213.176 140.107 213.176C138.818 213.176 137.772 212.728 136.97 211.831C136.173 210.935 135.774 209.748 135.774 208.271V208.157ZM137.409 208.351C137.409 209.405 137.652 210.252 138.139 210.891C138.631 211.529 139.287 211.849 140.107 211.849C140.934 211.849 141.59 211.526 142.076 210.882C142.562 210.231 142.806 209.323 142.806 208.157C142.806 207.114 142.557 206.271 142.059 205.626C141.566 204.976 140.91 204.65 140.09 204.65C139.287 204.65 138.64 204.97 138.147 205.608C137.655 206.247 137.409 207.161 137.409 208.351ZM150.285 211.849C150.865 211.849 151.372 211.673 151.806 211.321C152.239 210.97 152.479 210.53 152.526 210.003H154.064C154.035 210.548 153.848 211.066 153.502 211.559C153.156 212.051 152.693 212.443 152.113 212.736C151.539 213.029 150.93 213.176 150.285 213.176C148.99 213.176 147.959 212.745 147.191 211.884C146.43 211.017 146.049 209.833 146.049 208.333V208.061C146.049 207.135 146.219 206.312 146.559 205.591C146.898 204.87 147.385 204.311 148.018 203.912C148.656 203.514 149.409 203.314 150.276 203.314C151.343 203.314 152.228 203.634 152.931 204.272C153.64 204.911 154.018 205.74 154.064 206.76H152.526C152.479 206.145 152.245 205.641 151.823 205.248C151.407 204.85 150.892 204.65 150.276 204.65C149.45 204.65 148.809 204.949 148.352 205.547C147.9 206.139 147.675 206.997 147.675 208.122V208.43C147.675 209.525 147.9 210.369 148.352 210.961C148.803 211.553 149.447 211.849 150.285 211.849ZM159.004 210.618L161.219 203.49H162.959L159.136 214.468C158.544 216.05 157.604 216.841 156.314 216.841L156.007 216.814L155.4 216.7V215.382L155.84 215.417C156.391 215.417 156.818 215.306 157.123 215.083C157.434 214.86 157.688 214.453 157.888 213.861L158.248 212.895L154.855 203.49H156.631L159.004 210.618ZM170.562 204.835H166.176V213H164.541V203.49H170.562V204.835Z" fill="#3E3E41"/>
<rect x="1" y="192" width="30" height="30" rx="10" fill="#958D97"/>
<path d="M47.8047 239.486H48.0771C49.0439 239.492 49.9258 239.718 50.7227 240.163C51.5195 240.608 52.1377 241.224 52.5771 242.009C53.0225 242.788 53.2451 243.661 53.2451 244.628C53.2451 245.601 53.0225 246.482 52.5771 247.273C52.1318 248.064 51.5166 248.683 50.7314 249.128C49.9463 249.567 49.0732 249.793 48.1123 249.805H47.8047V251.527H46.1699V249.805H45.9238C44.9453 249.805 44.0547 249.582 43.252 249.137C42.4551 248.691 41.834 248.076 41.3887 247.291C40.9492 246.506 40.7295 245.624 40.7295 244.646C40.7295 243.667 40.9492 242.785 41.3887 242C41.834 241.215 42.4551 240.6 43.252 240.154C44.0547 239.709 44.9453 239.486 45.9238 239.486H46.1699V237.676H47.8047V239.486ZM45.9238 240.813C44.8223 240.813 43.9492 241.153 43.3047 241.833C42.666 242.507 42.3467 243.444 42.3467 244.646C42.3467 245.853 42.666 246.793 43.3047 247.467C43.9434 248.135 44.8223 248.469 45.9414 248.469H46.1699V240.813H45.9238ZM47.8047 240.813V248.469H48.0508C49.1699 248.469 50.043 248.126 50.6699 247.44C51.3027 246.749 51.6191 245.812 51.6191 244.628C51.6191 243.456 51.3027 242.527 50.6699 241.842C50.043 241.156 49.1582 240.813 48.0156 240.813H47.8047ZM61.2695 241.49H62.8955V251H61.2695V244.065L56.8838 251H55.2578V241.49H56.8838V248.434L61.2695 241.49ZM70.7354 244.092C70.7354 243.646 70.5654 243.295 70.2256 243.037C69.8857 242.773 69.4199 242.642 68.8281 242.642C68.2539 242.642 67.7734 242.791 67.3867 243.09C67.0059 243.389 66.8154 243.74 66.8154 244.145H65.1982C65.1982 243.318 65.5439 242.642 66.2354 242.114C66.9268 241.587 67.791 241.323 68.8281 241.323C69.9414 241.323 70.8086 241.563 71.4297 242.044C72.0508 242.519 72.3613 243.198 72.3613 244.083C72.3613 244.511 72.2324 244.903 71.9746 245.261C71.7168 245.618 71.3506 245.902 70.876 246.113C71.9834 246.488 72.5371 247.227 72.5371 248.328C72.5371 249.201 72.2002 249.893 71.5264 250.402C70.8525 250.912 69.9531 251.167 68.8281 251.167C67.7324 251.167 66.8271 250.9 66.1123 250.367C65.4033 249.828 65.0488 249.102 65.0488 248.188H66.666C66.666 248.65 66.8711 249.049 67.2812 249.383C67.6973 249.711 68.2129 249.875 68.8281 249.875C69.4492 249.875 69.9502 249.731 70.3311 249.444C70.7119 249.157 70.9023 248.785 70.9023 248.328C70.9023 247.795 70.7412 247.414 70.4189 247.186C70.1025 246.951 69.6074 246.834 68.9336 246.834H67.3076V245.463H69.0742C70.1816 245.434 70.7354 244.977 70.7354 244.092ZM77.6084 246.948H76.4219V251H74.7871V241.49H76.4219V245.516H77.4854L80.6846 241.49H82.6533L78.8916 246.061L82.9697 251H80.9043L77.6084 246.948ZM87.4785 248.618L89.6934 241.49H91.4336L87.6104 252.468C87.0186 254.05 86.0781 254.841 84.7891 254.841L84.4814 254.814L83.875 254.7V253.382L84.3145 253.417C84.8652 253.417 85.293 253.306 85.5977 253.083C85.9082 252.86 86.1631 252.453 86.3623 251.861L86.7227 250.895L83.3301 241.49H85.1055L87.4785 248.618ZM100.319 241.49V251H98.6846V242.835H95.4502L95.2568 246.395C95.1514 248.029 94.876 249.198 94.4307 249.901C93.9912 250.604 93.291 250.971 92.3301 251H91.6797V249.567L92.1455 249.532C92.6729 249.474 93.0508 249.169 93.2793 248.618C93.5078 248.067 93.6543 247.048 93.7188 245.56L93.8945 241.49H100.319ZM104.705 244.769H107.175C108.253 244.78 109.105 245.062 109.732 245.612C110.359 246.163 110.673 246.91 110.673 247.854C110.673 248.803 110.351 249.564 109.706 250.139C109.062 250.713 108.194 251 107.104 251H103.079V241.49H104.705V244.769ZM104.705 246.096V249.673H107.122C107.731 249.673 108.203 249.518 108.537 249.207C108.871 248.891 109.038 248.46 109.038 247.915C109.038 247.388 108.874 246.957 108.546 246.623C108.224 246.283 107.77 246.107 107.184 246.096H104.705ZM119.154 242.809H115.964V251H114.338V242.809H111.209V241.49H119.154V242.809ZM123.953 248.618L126.168 241.49H127.908L124.085 252.468C123.493 254.05 122.553 254.841 121.264 254.841L120.956 254.814L120.35 254.7V253.382L120.789 253.417C121.34 253.417 121.768 253.306 122.072 253.083C122.383 252.86 122.638 252.453 122.837 251.861L123.197 250.895L119.805 241.49H121.58L123.953 248.618ZM137.4 246.351C137.4 247.798 137.069 248.964 136.407 249.849C135.745 250.733 134.849 251.176 133.718 251.176C132.563 251.176 131.655 250.81 130.993 250.077V254.656H129.367V241.49H130.853L130.932 242.545C131.594 241.725 132.514 241.314 133.691 241.314C134.834 241.314 135.736 241.745 136.398 242.606C137.066 243.468 137.4 244.666 137.4 246.201V246.351ZM135.774 246.166C135.774 245.094 135.546 244.247 135.089 243.626C134.632 243.005 134.005 242.694 133.208 242.694C132.224 242.694 131.485 243.131 130.993 244.004V248.548C131.479 249.415 132.224 249.849 133.226 249.849C134.005 249.849 134.623 249.541 135.08 248.926C135.543 248.305 135.774 247.385 135.774 246.166ZM147.244 251H145.618V246.939H141.25V251H139.615V241.49H141.25V245.612H145.618V241.49H147.244V251ZM149.433 246.157C149.433 245.226 149.614 244.388 149.978 243.644C150.347 242.899 150.856 242.325 151.507 241.921C152.163 241.517 152.91 241.314 153.748 241.314C155.043 241.314 156.089 241.763 156.886 242.659C157.688 243.556 158.09 244.748 158.09 246.236V246.351C158.09 247.276 157.911 248.108 157.554 248.847C157.202 249.579 156.695 250.15 156.033 250.561C155.377 250.971 154.621 251.176 153.766 251.176C152.477 251.176 151.431 250.728 150.628 249.831C149.831 248.935 149.433 247.748 149.433 246.271V246.157ZM151.067 246.351C151.067 247.405 151.311 248.252 151.797 248.891C152.289 249.529 152.945 249.849 153.766 249.849C154.592 249.849 155.248 249.526 155.734 248.882C156.221 248.231 156.464 247.323 156.464 246.157C156.464 245.114 156.215 244.271 155.717 243.626C155.225 242.976 154.568 242.65 153.748 242.65C152.945 242.65 152.298 242.97 151.806 243.608C151.313 244.247 151.067 245.161 151.067 246.351ZM163.513 246.228H159.224V244.9H163.513V246.228ZM164.673 246.157C164.673 245.226 164.854 244.388 165.218 243.644C165.587 242.899 166.097 242.325 166.747 241.921C167.403 241.517 168.15 241.314 168.988 241.314C170.283 241.314 171.329 241.763 172.126 242.659C172.929 243.556 173.33 244.748 173.33 246.236V246.351C173.33 247.276 173.151 248.108 172.794 248.847C172.442 249.579 171.936 250.15 171.273 250.561C170.617 250.971 169.861 251.176 169.006 251.176C167.717 251.176 166.671 250.728 165.868 249.831C165.071 248.935 164.673 247.748 164.673 246.271V246.157ZM166.308 246.351C166.308 247.405 166.551 248.252 167.037 248.891C167.529 249.529 168.186 249.849 169.006 249.849C169.832 249.849 170.488 249.526 170.975 248.882C171.461 248.231 171.704 247.323 171.704 246.157C171.704 245.114 171.455 244.271 170.957 243.626C170.465 242.976 169.809 242.65 168.988 242.65C168.186 242.65 167.538 242.97 167.046 243.608C166.554 244.247 166.308 245.161 166.308 246.351ZM180.599 244.092C180.599 243.646 180.429 243.295 180.089 243.037C179.749 242.773 179.283 242.642 178.691 242.642C178.117 242.642 177.637 242.791 177.25 243.09C176.869 243.389 176.679 243.74 176.679 244.145H175.062C175.062 243.318 175.407 242.642 176.099 242.114C176.79 241.587 177.654 241.323 178.691 241.323C179.805 241.323 180.672 241.563 181.293 242.044C181.914 242.519 182.225 243.198 182.225 244.083C182.225 244.511 182.096 244.903 181.838 245.261C181.58 245.618 181.214 245.902 180.739 246.113C181.847 246.488 182.4 247.227 182.4 248.328C182.4 249.201 182.063 249.893 181.39 250.402C180.716 250.912 179.816 251.167 178.691 251.167C177.596 251.167 176.69 250.9 175.976 250.367C175.267 249.828 174.912 249.102 174.912 248.188H176.529C176.529 248.65 176.734 249.049 177.145 249.383C177.561 249.711 178.076 249.875 178.691 249.875C179.312 249.875 179.813 249.731 180.194 249.444C180.575 249.157 180.766 248.785 180.766 248.328C180.766 247.795 180.604 247.414 180.282 247.186C179.966 246.951 179.471 246.834 178.797 246.834H177.171V245.463H178.938C180.045 245.434 180.599 244.977 180.599 244.092ZM184.431 249.673L184.993 248.979C185.626 248.158 185.986 246.928 186.074 245.287L186.224 241.49H192.35V249.673H193.571V253.795H191.945V251H185.31V253.795H183.684L183.692 249.673H184.431ZM186.355 249.673H190.724V242.993H187.797L187.7 245.261C187.601 247.153 187.152 248.624 186.355 249.673ZM194.942 246.157C194.942 245.226 195.124 244.388 195.487 243.644C195.856 242.899 196.366 242.325 197.017 241.921C197.673 241.517 198.42 241.314 199.258 241.314C200.553 241.314 201.599 241.763 202.396 242.659C203.198 243.556 203.6 244.748 203.6 246.236V246.351C203.6 247.276 203.421 248.108 203.063 248.847C202.712 249.579 202.205 250.15 201.543 250.561C200.887 250.971 200.131 251.176 199.275 251.176C197.986 251.176 196.94 250.728 196.138 249.831C195.341 248.935 194.942 247.748 194.942 246.271V246.157ZM196.577 246.351C196.577 247.405 196.82 248.252 197.307 248.891C197.799 249.529 198.455 249.849 199.275 249.849C200.102 249.849 200.758 249.526 201.244 248.882C201.73 248.231 201.974 247.323 201.974 246.157C201.974 245.114 201.725 244.271 201.227 243.626C200.734 242.976 200.078 242.65 199.258 242.65C198.455 242.65 197.808 242.97 197.315 243.608C196.823 244.247 196.577 245.161 196.577 246.351ZM213.672 246.351C213.672 247.798 213.341 248.964 212.679 249.849C212.017 250.733 211.12 251.176 209.989 251.176C208.835 251.176 207.927 250.81 207.265 250.077V254.656H205.639V241.49H207.124L207.203 242.545C207.865 241.725 208.785 241.314 209.963 241.314C211.105 241.314 212.008 241.745 212.67 242.606C213.338 243.468 213.672 244.666 213.672 246.201V246.351ZM212.046 246.166C212.046 245.094 211.817 244.247 211.36 243.626C210.903 243.005 210.276 242.694 209.479 242.694C208.495 242.694 207.757 243.131 207.265 244.004V248.548C207.751 249.415 208.495 249.849 209.497 249.849C210.276 249.849 210.895 249.541 211.352 248.926C211.814 248.305 212.046 247.385 212.046 246.166ZM215.315 246.157C215.315 245.226 215.497 244.388 215.86 243.644C216.229 242.899 216.739 242.325 217.39 241.921C218.046 241.517 218.793 241.314 219.631 241.314C220.926 241.314 221.972 241.763 222.769 242.659C223.571 243.556 223.973 244.748 223.973 246.236V246.351C223.973 247.276 223.794 248.108 223.437 248.847C223.085 249.579 222.578 250.15 221.916 250.561C221.26 250.971 220.504 251.176 219.648 251.176C218.359 251.176 217.313 250.728 216.511 249.831C215.714 248.935 215.315 247.748 215.315 246.271V246.157ZM216.95 246.351C216.95 247.405 217.193 248.252 217.68 248.891C218.172 249.529 218.828 249.849 219.648 249.849C220.475 249.849 221.131 249.526 221.617 248.882C222.104 248.231 222.347 247.323 222.347 246.157C222.347 245.114 222.098 244.271 221.6 243.626C221.107 242.976 220.451 242.65 219.631 242.65C218.828 242.65 218.181 242.97 217.688 243.608C217.196 244.247 216.95 245.161 216.95 246.351ZM226.161 251V241.49H229.87C231.136 241.49 232.105 241.713 232.779 242.158C233.459 242.598 233.799 243.245 233.799 244.101C233.799 244.54 233.667 244.938 233.403 245.296C233.14 245.647 232.75 245.917 232.234 246.104C232.809 246.239 233.269 246.503 233.614 246.896C233.966 247.288 234.142 247.757 234.142 248.302C234.142 249.175 233.819 249.843 233.175 250.306C232.536 250.769 231.631 251 230.459 251H226.161ZM227.787 246.825V249.69H230.477C231.156 249.69 231.663 249.564 231.997 249.312C232.337 249.061 232.507 248.706 232.507 248.249C232.507 247.3 231.81 246.825 230.415 246.825H227.787ZM227.787 245.524H229.888C231.411 245.524 232.173 245.079 232.173 244.188C232.173 243.298 231.452 242.838 230.011 242.809H227.787V245.524ZM242.447 241.49H244.073V251H242.447V244.065L238.062 251H236.436V241.49H238.062V248.434L242.447 241.49ZM253.75 242.809H250.56V251H248.934V242.809H245.805V241.49H253.75V242.809ZM258.575 251.176C257.286 251.176 256.237 250.754 255.429 249.91C254.62 249.061 254.216 247.927 254.216 246.509V246.21C254.216 245.267 254.395 244.426 254.752 243.688C255.115 242.943 255.619 242.363 256.264 241.947C256.914 241.525 257.617 241.314 258.373 241.314C259.609 241.314 260.57 241.722 261.256 242.536C261.941 243.351 262.284 244.517 262.284 246.034V246.711H255.842C255.865 247.648 256.138 248.407 256.659 248.987C257.187 249.562 257.854 249.849 258.663 249.849C259.237 249.849 259.724 249.731 260.122 249.497C260.521 249.263 260.869 248.952 261.168 248.565L262.161 249.339C261.364 250.563 260.169 251.176 258.575 251.176ZM258.373 242.65C257.717 242.65 257.166 242.891 256.721 243.371C256.275 243.846 256 244.514 255.895 245.375H260.658V245.252C260.611 244.426 260.389 243.787 259.99 243.336C259.592 242.879 259.053 242.65 258.373 242.65ZM271.97 241.49V251H270.335V242.835H267.101L266.907 246.395C266.802 248.029 266.526 249.198 266.081 249.901C265.642 250.604 264.941 250.971 263.98 251H263.33V249.567L263.796 249.532C264.323 249.474 264.701 249.169 264.93 248.618C265.158 248.067 265.305 247.048 265.369 245.56L265.545 241.49H271.97ZM276.355 244.769H278.825C279.903 244.78 280.756 245.062 281.383 245.612C282.01 246.163 282.323 246.91 282.323 247.854C282.323 248.803 282.001 249.564 281.356 250.139C280.712 250.713 279.845 251 278.755 251H274.729V241.49H276.355V244.769ZM276.355 246.096V249.673H278.772C279.382 249.673 279.854 249.518 280.188 249.207C280.521 248.891 280.688 248.46 280.688 247.915C280.688 247.388 280.524 246.957 280.196 246.623C279.874 246.283 279.42 246.107 278.834 246.096H276.355ZM292.123 251H290.497V246.939H286.129V251H284.494V241.49H286.129V245.612H290.497V241.49H292.123V251ZM300.613 251C300.52 250.812 300.443 250.479 300.385 249.998C299.629 250.783 298.727 251.176 297.678 251.176C296.74 251.176 295.97 250.912 295.366 250.385C294.769 249.852 294.47 249.178 294.47 248.363C294.47 247.373 294.845 246.605 295.595 246.061C296.351 245.51 297.411 245.234 298.776 245.234H300.358V244.487C300.358 243.919 300.188 243.468 299.849 243.134C299.509 242.794 299.008 242.624 298.346 242.624C297.766 242.624 297.279 242.771 296.887 243.063C296.494 243.356 296.298 243.711 296.298 244.127H294.663C294.663 243.652 294.83 243.195 295.164 242.756C295.504 242.311 295.961 241.959 296.535 241.701C297.115 241.443 297.751 241.314 298.442 241.314C299.538 241.314 300.396 241.59 301.018 242.141C301.639 242.686 301.961 243.438 301.984 244.399V248.776C301.984 249.649 302.096 250.344 302.318 250.859V251H300.613ZM297.915 249.761C298.425 249.761 298.908 249.629 299.365 249.365C299.822 249.102 300.153 248.759 300.358 248.337V246.386H299.084C297.092 246.386 296.096 246.969 296.096 248.135C296.096 248.645 296.266 249.043 296.605 249.33C296.945 249.617 297.382 249.761 297.915 249.761ZM311.802 241.49V251H310.167V247.3H307.715L305.474 251H303.716L306.106 247.054C305.497 246.831 305.028 246.488 304.7 246.025C304.378 245.557 304.217 245.012 304.217 244.391C304.217 243.523 304.542 242.826 305.192 242.299C305.843 241.766 306.713 241.496 307.803 241.49H311.802ZM305.852 244.408C305.852 244.871 306.01 245.246 306.326 245.533C306.643 245.814 307.062 245.958 307.583 245.964H310.167V242.809H307.829C307.226 242.809 306.745 242.958 306.388 243.257C306.03 243.55 305.852 243.934 305.852 244.408ZM41.1514 270.673L41.7139 269.979C42.3467 269.158 42.707 267.928 42.7949 266.287L42.9443 262.49H49.0703V270.673H50.292V274.795H48.666V272H42.0303V274.795H40.4043L40.4131 270.673H41.1514ZM43.0762 270.673H47.4443V263.993H44.5176L44.4209 266.261C44.3213 268.153 43.873 269.624 43.0762 270.673ZM56.04 272.176C54.751 272.176 53.7021 271.754 52.8936 270.91C52.085 270.061 51.6807 268.927 51.6807 267.509V267.21C51.6807 266.267 51.8594 265.426 52.2168 264.688C52.5801 263.943 53.084 263.363 53.7285 262.947C54.3789 262.525 55.082 262.314 55.8379 262.314C57.0742 262.314 58.0352 262.722 58.7207 263.536C59.4062 264.351 59.749 265.517 59.749 267.034V267.711H53.3066C53.3301 268.648 53.6025 269.407 54.124 269.987C54.6514 270.562 55.3193 270.849 56.1279 270.849C56.7021 270.849 57.1885 270.731 57.5869 270.497C57.9854 270.263 58.334 269.952 58.6328 269.565L59.626 270.339C58.8291 271.563 57.6338 272.176 56.04 272.176ZM55.8379 263.65C55.1816 263.65 54.6309 263.891 54.1855 264.371C53.7402 264.846 53.4648 265.514 53.3594 266.375H58.123V266.252C58.0762 265.426 57.8535 264.787 57.4551 264.336C57.0566 263.879 56.5176 263.65 55.8379 263.65ZM68.9072 262.49V272H67.2725V268.3H64.8203L62.5791 272H60.8213L63.2119 268.054C62.6025 267.831 62.1338 267.488 61.8057 267.025C61.4834 266.557 61.3223 266.012 61.3223 265.391C61.3223 264.523 61.6475 263.826 62.2979 263.299C62.9482 262.766 63.8184 262.496 64.9082 262.49H68.9072ZM62.957 265.408C62.957 265.871 63.1152 266.246 63.4316 266.533C63.748 266.814 64.167 266.958 64.6885 266.964H67.2725V263.809H64.9346C64.3311 263.809 63.8506 263.958 63.4932 264.257C63.1357 264.55 62.957 264.934 62.957 265.408ZM78.584 263.809H75.3936V272H73.7676V263.809H70.6387V262.49H78.584V263.809ZM83.4092 272.176C82.1201 272.176 81.0713 271.754 80.2627 270.91C79.4541 270.061 79.0498 268.927 79.0498 267.509V267.21C79.0498 266.267 79.2285 265.426 79.5859 264.688C79.9492 263.943 80.4531 263.363 81.0977 262.947C81.748 262.525 82.4512 262.314 83.207 262.314C84.4434 262.314 85.4043 262.722 86.0898 263.536C86.7754 264.351 87.1182 265.517 87.1182 267.034V267.711H80.6758C80.6992 268.648 80.9717 269.407 81.4932 269.987C82.0205 270.562 82.6885 270.849 83.4971 270.849C84.0713 270.849 84.5576 270.731 84.9561 270.497C85.3545 270.263 85.7031 269.952 86.002 269.565L86.9951 270.339C86.1982 271.563 85.0029 272.176 83.4092 272.176ZM83.207 263.65C82.5508 263.65 82 263.891 81.5547 264.371C81.1094 264.846 80.834 265.514 80.7285 266.375H85.4922V266.252C85.4453 265.426 85.2227 264.787 84.8242 264.336C84.4258 263.879 83.8867 263.65 83.207 263.65ZM96.8037 262.49V272H95.1689V263.835H91.9346L91.7412 267.395C91.6357 269.029 91.3604 270.198 90.915 270.901C90.4756 271.604 89.7754 271.971 88.8145 272H88.1641V270.567L88.6299 270.532C89.1572 270.474 89.5352 270.169 89.7637 269.618C89.9922 269.067 90.1387 268.048 90.2031 266.56L90.3789 262.49H96.8037ZM101.189 265.769H103.659C104.737 265.78 105.59 266.062 106.217 266.612C106.844 267.163 107.157 267.91 107.157 268.854C107.157 269.803 106.835 270.564 106.19 271.139C105.546 271.713 104.679 272 103.589 272H99.5635V262.49H101.189V265.769ZM101.189 267.096V270.673H103.606C104.216 270.673 104.688 270.518 105.021 270.207C105.355 269.891 105.522 269.46 105.522 268.915C105.522 268.388 105.358 267.957 105.03 267.623C104.708 267.283 104.254 267.107 103.668 267.096H101.189ZM116.957 272H115.331V267.939H110.963V272H109.328V262.49H110.963V266.612H115.331V262.49H116.957V272ZM119.146 267.157C119.146 266.226 119.327 265.388 119.69 264.644C120.06 263.899 120.569 263.325 121.22 262.921C121.876 262.517 122.623 262.314 123.461 262.314C124.756 262.314 125.802 262.763 126.599 263.659C127.401 264.556 127.803 265.748 127.803 267.236V267.351C127.803 268.276 127.624 269.108 127.267 269.847C126.915 270.579 126.408 271.15 125.746 271.561C125.09 271.971 124.334 272.176 123.479 272.176C122.189 272.176 121.144 271.728 120.341 270.831C119.544 269.935 119.146 268.748 119.146 267.271V267.157ZM120.78 267.351C120.78 268.405 121.023 269.252 121.51 269.891C122.002 270.529 122.658 270.849 123.479 270.849C124.305 270.849 124.961 270.526 125.447 269.882C125.934 269.231 126.177 268.323 126.177 267.157C126.177 266.114 125.928 265.271 125.43 264.626C124.938 263.976 124.281 263.65 123.461 263.65C122.658 263.65 122.011 263.97 121.519 264.608C121.026 265.247 120.78 266.161 120.78 267.351ZM133.656 270.849C134.236 270.849 134.743 270.673 135.177 270.321C135.61 269.97 135.851 269.53 135.897 269.003H137.436C137.406 269.548 137.219 270.066 136.873 270.559C136.527 271.051 136.064 271.443 135.484 271.736C134.91 272.029 134.301 272.176 133.656 272.176C132.361 272.176 131.33 271.745 130.562 270.884C129.801 270.017 129.42 268.833 129.42 267.333V267.061C129.42 266.135 129.59 265.312 129.93 264.591C130.27 263.87 130.756 263.311 131.389 262.912C132.027 262.514 132.78 262.314 133.647 262.314C134.714 262.314 135.599 262.634 136.302 263.272C137.011 263.911 137.389 264.74 137.436 265.76H135.897C135.851 265.145 135.616 264.641 135.194 264.248C134.778 263.85 134.263 263.65 133.647 263.65C132.821 263.65 132.18 263.949 131.723 264.547C131.271 265.139 131.046 265.997 131.046 267.122V267.43C131.046 268.525 131.271 269.369 131.723 269.961C132.174 270.553 132.818 270.849 133.656 270.849ZM146.33 263.809H143.14V272H141.514V263.809H138.385V262.49H146.33V263.809ZM149.688 265.769H152.157C153.235 265.78 154.088 266.062 154.715 266.612C155.342 267.163 155.655 267.91 155.655 268.854C155.655 269.803 155.333 270.564 154.688 271.139C154.044 271.713 153.177 272 152.087 272H148.062V262.49H149.688V265.769ZM149.688 267.096V270.673H152.104C152.714 270.673 153.186 270.518 153.52 270.207C153.854 269.891 154.021 269.46 154.021 268.915C154.021 268.388 153.856 267.957 153.528 267.623C153.206 267.283 152.752 267.107 152.166 267.096H149.688Z" fill="#3E3E41"/>
<rect x="1" y="240" width="30" height="30" rx="10" fill="#94939E"/>
<path d="M52.999 312.138H51.3203V309H42.1357V312.146H40.4482L40.4395 307.62H41.4854C42.0361 306.999 42.4727 306.167 42.7949 305.124C43.123 304.075 43.3281 302.927 43.4102 301.679L43.6914 296.203H51.3467V307.62H53.0166L52.999 312.138ZM43.4102 307.62H49.6504V297.592H45.3174L45.1328 301.354C45.0566 302.824 44.8604 304.078 44.5439 305.115C44.2334 306.152 43.8555 306.987 43.4102 307.62ZM62.7988 304.351C62.7988 305.798 62.4678 306.964 61.8057 307.849C61.1436 308.733 60.2471 309.176 59.1162 309.176C57.9619 309.176 57.0537 308.81 56.3916 308.077V312.656H54.7656V299.49H56.251L56.3301 300.545C56.9922 299.725 57.9121 299.314 59.0898 299.314C60.2324 299.314 61.1348 299.745 61.7969 300.606C62.4648 301.468 62.7988 302.666 62.7988 304.201V304.351ZM61.1729 304.166C61.1729 303.094 60.9443 302.247 60.4873 301.626C60.0303 301.005 59.4033 300.694 58.6064 300.694C57.6221 300.694 56.8838 301.131 56.3916 302.004V306.548C56.8779 307.415 57.6221 307.849 58.624 307.849C59.4033 307.849 60.0215 307.541 60.4785 306.926C60.9414 306.305 61.1729 305.385 61.1729 304.166ZM67.8789 306.618L70.0938 299.49H71.834L68.0107 310.468C67.4189 312.05 66.4785 312.841 65.1895 312.841L64.8818 312.814L64.2754 312.7V311.382L64.7148 311.417C65.2656 311.417 65.6934 311.306 65.998 311.083C66.3086 310.86 66.5635 310.453 66.7627 309.861L67.123 308.895L63.7305 299.49H65.5059L67.8789 306.618ZM79.4365 300.835H75.0508V309H73.416V299.49H79.4365V300.835ZM87.0039 299.49H88.6299V309H87.0039V302.065L82.6182 309H80.9922V299.49H82.6182V306.434L87.0039 299.49ZM95.1865 309.176C93.8975 309.176 92.8486 308.754 92.04 307.91C91.2314 307.061 90.8271 305.927 90.8271 304.509V304.21C90.8271 303.267 91.0059 302.426 91.3633 301.688C91.7266 300.943 92.2305 300.363 92.875 299.947C93.5254 299.525 94.2285 299.314 94.9844 299.314C96.2207 299.314 97.1816 299.722 97.8672 300.536C98.5527 301.351 98.8955 302.517 98.8955 304.034V304.711H92.4531C92.4766 305.648 92.749 306.407 93.2705 306.987C93.7979 307.562 94.4658 307.849 95.2744 307.849C95.8486 307.849 96.335 307.731 96.7334 307.497C97.1318 307.263 97.4805 306.952 97.7793 306.565L98.7725 307.339C97.9756 308.563 96.7803 309.176 95.1865 309.176ZM94.9844 300.65C94.3281 300.65 93.7773 300.891 93.332 301.371C92.8867 301.846 92.6113 302.514 92.5059 303.375H97.2695V303.252C97.2227 302.426 97 301.787 96.6016 301.336C96.2031 300.879 95.6641 300.65 94.9844 300.65Z" fill="#3E3E41"/>
<rect x="1" y="288" width="30" height="30" rx="10" fill="#939AA4"/>
<path d="M43.665 344.203L47.8486 354.645L52.0322 344.203H54.2207V357H52.5332V352.017L52.6914 346.638L48.4902 357H47.1982L43.0059 346.664L43.1729 352.017V357H41.4854V344.203H43.665ZM60.8916 357.176C59.6025 357.176 58.5537 356.754 57.7451 355.91C56.9365 355.061 56.5322 353.927 56.5322 352.509V352.21C56.5322 351.267 56.7109 350.426 57.0684 349.688C57.4316 348.943 57.9355 348.363 58.5801 347.947C59.2305 347.525 59.9336 347.314 60.6895 347.314C61.9258 347.314 62.8867 347.722 63.5723 348.536C64.2578 349.351 64.6006 350.517 64.6006 352.034V352.711H58.1582C58.1816 353.648 58.4541 354.407 58.9756 354.987C59.5029 355.562 60.1709 355.849 60.9795 355.849C61.5537 355.849 62.04 355.731 62.4385 355.497C62.8369 355.263 63.1855 354.952 63.4844 354.565L64.4775 355.339C63.6807 356.563 62.4854 357.176 60.8916 357.176ZM60.6895 348.65C60.0332 348.65 59.4824 348.891 59.0371 349.371C58.5918 349.846 58.3164 350.514 58.2109 351.375H62.9746V351.252C62.9277 350.426 62.7051 349.787 62.3066 349.336C61.9082 348.879 61.3691 348.65 60.6895 348.65ZM66.4111 355.673L66.9736 354.979C67.6064 354.158 67.9668 352.928 68.0547 351.287L68.2041 347.49H74.3301V355.673H75.5518V359.795H73.9258V357H67.29V359.795H65.6641L65.6729 355.673H66.4111ZM68.3359 355.673H72.7041V348.993H69.7773L69.6807 351.261C69.5811 353.153 69.1328 354.624 68.3359 355.673ZM83.5059 347.49H85.1318V357H83.5059V350.065L79.1201 357H77.4941V347.49H79.1201V354.434L83.5059 347.49ZM87.8828 347.49H89.5176V355.673H93.8945V347.49H95.5205V355.673H96.6543L96.4961 359.821H95.0371V357H87.8828V347.49ZM104.564 347.49H106.19V357H104.564V350.065L100.179 357H98.5527V347.49H100.179V354.434L104.564 347.49ZM116.57 357H114.944V352.939H110.576V357H108.941V347.49H110.576V351.612H114.944V347.49H116.57V357ZM125.061 357C124.967 356.812 124.891 356.479 124.832 355.998C124.076 356.783 123.174 357.176 122.125 357.176C121.188 357.176 120.417 356.912 119.813 356.385C119.216 355.852 118.917 355.178 118.917 354.363C118.917 353.373 119.292 352.605 120.042 352.061C120.798 351.51 121.858 351.234 123.224 351.234H124.806V350.487C124.806 349.919 124.636 349.468 124.296 349.134C123.956 348.794 123.455 348.624 122.793 348.624C122.213 348.624 121.727 348.771 121.334 349.063C120.941 349.356 120.745 349.711 120.745 350.127H119.11C119.11 349.652 119.277 349.195 119.611 348.756C119.951 348.311 120.408 347.959 120.982 347.701C121.562 347.443 122.198 347.314 122.89 347.314C123.985 347.314 124.844 347.59 125.465 348.141C126.086 348.686 126.408 349.438 126.432 350.399V354.776C126.432 355.649 126.543 356.344 126.766 356.859V357H125.061ZM122.362 355.761C122.872 355.761 123.355 355.629 123.812 355.365C124.27 355.102 124.601 354.759 124.806 354.337V352.386H123.531C121.539 352.386 120.543 352.969 120.543 354.135C120.543 354.645 120.713 355.043 121.053 355.33C121.393 355.617 121.829 355.761 122.362 355.761Z" fill="#3E3E41"/>
<rect x="1" y="336" width="30" height="30" rx="10" fill="#E9424E"/>
<path d="M50.8984 16.9395C50.7402 18.293 50.2393 19.3389 49.3955 20.0771C48.5576 20.8096 47.4414 21.1758 46.0469 21.1758C44.5352 21.1758 43.3223 20.6338 42.4082 19.5498C41.5 18.4658 41.0459 17.0156 41.0459 15.1992V13.9688C41.0459 12.7793 41.2568 11.7334 41.6787 10.8311C42.1064 9.92871 42.71 9.2373 43.4893 8.75684C44.2686 8.27051 45.1709 8.02734 46.1963 8.02734C47.5557 8.02734 48.6455 8.4082 49.4658 9.16992C50.2861 9.92578 50.7637 10.9746 50.8984 12.3164H49.2021C49.0557 11.2969 48.7363 10.5586 48.2441 10.1016C47.7578 9.64453 47.0752 9.41602 46.1963 9.41602C45.1182 9.41602 44.2715 9.81445 43.6562 10.6113C43.0469 11.4082 42.7422 12.542 42.7422 14.0127V15.252C42.7422 16.6406 43.0322 17.7451 43.6123 18.5654C44.1924 19.3857 45.0039 19.7959 46.0469 19.7959C46.9844 19.7959 47.7021 19.585 48.2002 19.1631C48.7041 18.7354 49.0381 17.9941 49.2021 16.9395H50.8984ZM52.5244 16.1572C52.5244 15.2256 52.7061 14.3877 53.0693 13.6436C53.4385 12.8994 53.9482 12.3252 54.5986 11.9209C55.2549 11.5166 56.002 11.3145 56.8398 11.3145C58.1348 11.3145 59.1807 11.7627 59.9775 12.6592C60.7803 13.5557 61.1816 14.748 61.1816 16.2363V16.3506C61.1816 17.2764 61.0029 18.1084 60.6455 18.8467C60.2939 19.5791 59.7871 20.1504 59.125 20.5605C58.4688 20.9707 57.7129 21.1758 56.8574 21.1758C55.5684 21.1758 54.5225 20.7275 53.7197 19.8311C52.9229 18.9346 52.5244 17.748 52.5244 16.2715V16.1572ZM54.1592 16.3506C54.1592 17.4053 54.4023 18.252 54.8887 18.8906C55.3809 19.5293 56.0371 19.8486 56.8574 19.8486C57.6836 19.8486 58.3398 19.5264 58.8262 18.8818C59.3125 18.2314 59.5557 17.3232 59.5557 16.1572C59.5557 15.1143 59.3066 14.2705 58.8086 13.626C58.3164 12.9756 57.6602 12.6504 56.8398 12.6504C56.0371 12.6504 55.3896 12.9697 54.8975 13.6084C54.4053 14.2471 54.1592 15.1611 54.1592 16.3506ZM63.3613 11.4902H64.9961V19.6729H69.373V11.4902H70.999V19.6729H72.1328L71.9746 23.8213H70.5156V21H63.3613V11.4902ZM80.043 11.4902H81.6689V21H80.043V14.0654L75.6572 21H74.0312V11.4902H75.6572V18.4336L80.043 11.4902ZM90.1504 21C90.0566 20.8125 89.9805 20.4785 89.9219 19.998C89.166 20.7832 88.2637 21.1758 87.2148 21.1758C86.2773 21.1758 85.5068 20.9121 84.9033 20.3848C84.3057 19.8516 84.0068 19.1777 84.0068 18.3633C84.0068 17.373 84.3818 16.6055 85.1318 16.0605C85.8877 15.5098 86.9482 15.2344 88.3135 15.2344H89.8955V14.4873C89.8955 13.9189 89.7256 13.4678 89.3857 13.1338C89.0459 12.7939 88.5449 12.624 87.8828 12.624C87.3027 12.624 86.8164 12.7705 86.4238 13.0635C86.0312 13.3564 85.835 13.7109 85.835 14.127H84.2002C84.2002 13.6523 84.3672 13.1953 84.7012 12.7559C85.041 12.3105 85.498 11.959 86.0723 11.7012C86.6523 11.4434 87.2881 11.3145 87.9795 11.3145C89.0752 11.3145 89.9336 11.5898 90.5547 12.1406C91.1758 12.6855 91.498 13.4385 91.5215 14.3994V18.7764C91.5215 19.6494 91.6328 20.3438 91.8555 20.8594V21H90.1504ZM87.4521 19.7607C87.9619 19.7607 88.4453 19.6289 88.9023 19.3652C89.3594 19.1016 89.6904 18.7588 89.8955 18.3369V16.3857H88.6211C86.6289 16.3857 85.6328 16.9688 85.6328 18.1348C85.6328 18.6445 85.8027 19.043 86.1426 19.3301C86.4824 19.6172 86.9189 19.7607 87.4521 19.7607ZM101.866 11.4902V21H100.231V12.835H96.9971L96.8037 16.3945C96.6982 18.0293 96.4229 19.1982 95.9775 19.9014C95.5381 20.6045 94.8379 20.9707 93.877 21H93.2266V19.5674L93.6924 19.5322C94.2197 19.4736 94.5977 19.1689 94.8262 18.6182C95.0547 18.0674 95.2012 17.0479 95.2656 15.5596L95.4414 11.4902H101.866ZM106.252 14.7686H108.722C109.8 14.7803 110.652 15.0615 111.279 15.6123C111.906 16.1631 112.22 16.9102 112.22 17.8535C112.22 18.8027 111.897 19.5645 111.253 20.1387C110.608 20.7129 109.741 21 108.651 21H104.626V11.4902H106.252V14.7686ZM106.252 16.0957V19.6729H108.669C109.278 19.6729 109.75 19.5176 110.084 19.207C110.418 18.8906 110.585 18.46 110.585 17.915C110.585 17.3877 110.421 16.957 110.093 16.623C109.771 16.2832 109.316 16.1074 108.73 16.0957H106.252ZM122.02 21H120.394V16.9395H116.025V21H114.391V11.4902H116.025V15.6123H120.394V11.4902H122.02V21ZM126.414 14.7686H128.884C129.962 14.7803 130.814 15.0615 131.441 15.6123C132.068 16.1631 132.382 16.9102 132.382 17.8535C132.382 18.8027 132.06 19.5645 131.415 20.1387C130.771 20.7129 129.903 21 128.813 21H124.788V11.4902H126.414V14.7686ZM135.774 21H134.14V11.4902H135.774V21ZM126.414 16.0957V19.6729H128.831C129.44 19.6729 129.912 19.5176 130.246 19.207C130.58 18.8906 130.747 18.46 130.747 17.915C130.747 17.3877 130.583 16.957 130.255 16.623C129.933 16.2832 129.479 16.1074 128.893 16.0957H126.414ZM142.56 21.1758C141.271 21.1758 140.222 20.7539 139.413 19.9102C138.604 19.0605 138.2 17.9268 138.2 16.5088V16.21C138.2 15.2666 138.379 14.4258 138.736 13.6875C139.1 12.9434 139.604 12.3633 140.248 11.9473C140.898 11.5254 141.602 11.3145 142.357 11.3145C143.594 11.3145 144.555 11.7217 145.24 12.5361C145.926 13.3506 146.269 14.5166 146.269 16.0342V16.7109H139.826C139.85 17.6484 140.122 18.4072 140.644 18.9873C141.171 19.5615 141.839 19.8486 142.647 19.8486C143.222 19.8486 143.708 19.7314 144.106 19.4971C144.505 19.2627 144.854 18.9521 145.152 18.5654L146.146 19.3389C145.349 20.5635 144.153 21.1758 142.56 21.1758ZM142.357 12.6504C141.701 12.6504 141.15 12.8906 140.705 13.3711C140.26 13.8457 139.984 14.5137 139.879 15.375H144.643V15.252C144.596 14.4258 144.373 13.7871 143.975 13.3359C143.576 12.8789 143.037 12.6504 142.357 12.6504ZM155.734 18.6182L157.949 11.4902H159.689L155.866 22.4678C155.274 24.0498 154.334 24.8408 153.045 24.8408L152.737 24.8145L152.131 24.7002V23.3818L152.57 23.417C153.121 23.417 153.549 23.3057 153.854 23.083C154.164 22.8604 154.419 22.4531 154.618 21.8613L154.979 20.8945L151.586 11.4902H153.361L155.734 18.6182ZM164.84 19.8486C165.42 19.8486 165.927 19.6729 166.36 19.3213C166.794 18.9697 167.034 18.5303 167.081 18.0029H168.619C168.59 18.5479 168.402 19.0664 168.057 19.5586C167.711 20.0508 167.248 20.4434 166.668 20.7363C166.094 21.0293 165.484 21.1758 164.84 21.1758C163.545 21.1758 162.514 20.7451 161.746 19.8838C160.984 19.0166 160.604 17.833 160.604 16.333V16.0605C160.604 15.1348 160.773 14.3115 161.113 13.5908C161.453 12.8701 161.939 12.3105 162.572 11.9121C163.211 11.5137 163.964 11.3145 164.831 11.3145C165.897 11.3145 166.782 11.6338 167.485 12.2725C168.194 12.9111 168.572 13.7402 168.619 14.7598H167.081C167.034 14.1445 166.8 13.6406 166.378 13.248C165.962 12.8496 165.446 12.6504 164.831 12.6504C164.005 12.6504 163.363 12.9492 162.906 13.5469C162.455 14.1387 162.229 14.9971 162.229 16.1221V16.4297C162.229 17.5254 162.455 18.3691 162.906 18.9609C163.357 19.5527 164.002 19.8486 164.84 19.8486ZM178.243 11.4902V21H176.608V12.835H173.374L173.181 16.3945C173.075 18.0293 172.8 19.1982 172.354 19.9014C171.915 20.6045 171.215 20.9707 170.254 21H169.604V19.5674L170.069 19.5322C170.597 19.4736 170.975 19.1689 171.203 18.6182C171.432 18.0674 171.578 17.0479 171.643 15.5596L171.818 11.4902H178.243ZM183.965 18.6182L186.18 11.4902H187.92L184.097 22.4678C183.505 24.0498 182.564 24.8408 181.275 24.8408L180.968 24.8145L180.361 24.7002V23.3818L180.801 23.417C181.352 23.417 181.779 23.3057 182.084 23.083C182.395 22.8604 182.649 22.4531 182.849 21.8613L183.209 20.8945L179.816 11.4902H181.592L183.965 18.6182ZM195.522 12.835H191.137V21H189.502V11.4902H195.522V12.835ZM203.09 11.4902H204.716V21H203.09V14.0654L198.704 21H197.078V11.4902H198.704V18.4336L203.09 11.4902Z" fill="#3E3E41"/>
<rect width="30" height="30" rx="10" fill="#9C717E"/>
<path d="M50.8984 64.9395C50.7402 66.293 50.2393 67.3389 49.3955 68.0771C48.5576 68.8096 47.4414 69.1758 46.0469 69.1758C44.5352 69.1758 43.3223 68.6338 42.4082 67.5498C41.5 66.4658 41.0459 65.0156 41.0459 63.1992V61.9688C41.0459 60.7793 41.2568 59.7334 41.6787 58.8311C42.1064 57.9287 42.71 57.2373 43.4893 56.7568C44.2686 56.2705 45.1709 56.0273 46.1963 56.0273C47.5557 56.0273 48.6455 56.4082 49.4658 57.1699C50.2861 57.9258 50.7637 58.9746 50.8984 60.3164H49.2021C49.0557 59.2969 48.7363 58.5586 48.2441 58.1016C47.7578 57.6445 47.0752 57.416 46.1963 57.416C45.1182 57.416 44.2715 57.8145 43.6562 58.6113C43.0469 59.4082 42.7422 60.542 42.7422 62.0127V63.252C42.7422 64.6406 43.0322 65.7451 43.6123 66.5654C44.1924 67.3857 45.0039 67.7959 46.0469 67.7959C46.9844 67.7959 47.7021 67.585 48.2002 67.1631C48.7041 66.7354 49.0381 65.9941 49.2021 64.9395H50.8984ZM56.9014 69.1758C55.6123 69.1758 54.5635 68.7539 53.7549 67.9102C52.9463 67.0605 52.542 65.9268 52.542 64.5088V64.21C52.542 63.2666 52.7207 62.4258 53.0781 61.6875C53.4414 60.9434 53.9453 60.3633 54.5898 59.9473C55.2402 59.5254 55.9434 59.3145 56.6992 59.3145C57.9355 59.3145 58.8965 59.7217 59.582 60.5361C60.2676 61.3506 60.6104 62.5166 60.6104 64.0342V64.7109H54.168C54.1914 65.6484 54.4639 66.4072 54.9854 66.9873C55.5127 67.5615 56.1807 67.8486 56.9893 67.8486C57.5635 67.8486 58.0498 67.7314 58.4482 67.4971C58.8467 67.2627 59.1953 66.9521 59.4941 66.5654L60.4873 67.3389C59.6904 68.5635 58.4951 69.1758 56.9014 69.1758ZM56.6992 60.6504C56.043 60.6504 55.4922 60.8906 55.0469 61.3711C54.6016 61.8457 54.3262 62.5137 54.2207 63.375H58.9844V63.252C58.9375 62.4258 58.7148 61.7871 58.3164 61.3359C57.918 60.8789 57.3789 60.6504 56.6992 60.6504ZM70.5332 64.3506C70.5332 65.7979 70.2021 66.9639 69.54 67.8486C68.8779 68.7334 67.9814 69.1758 66.8506 69.1758C65.6963 69.1758 64.7881 68.8096 64.126 68.0771V72.6562H62.5V59.4902H63.9854L64.0645 60.5449C64.7266 59.7246 65.6465 59.3145 66.8242 59.3145C67.9668 59.3145 68.8691 59.7451 69.5312 60.6064C70.1992 61.4678 70.5332 62.666 70.5332 64.2012V64.3506ZM68.9072 64.166C68.9072 63.0938 68.6787 62.2471 68.2217 61.626C67.7646 61.0049 67.1377 60.6943 66.3408 60.6943C65.3564 60.6943 64.6182 61.1309 64.126 62.0039V66.5479C64.6123 67.415 65.3564 67.8486 66.3584 67.8486C67.1377 67.8486 67.7559 67.541 68.2129 66.9258C68.6758 66.3047 68.9072 65.3848 68.9072 64.166ZM72.7568 69V59.4902H76.4658C77.7314 59.4902 78.7012 59.7129 79.375 60.1582C80.0547 60.5977 80.3945 61.2451 80.3945 62.1006C80.3945 62.54 80.2627 62.9385 79.999 63.2959C79.7354 63.6475 79.3457 63.917 78.8301 64.1045C79.4043 64.2393 79.8643 64.5029 80.21 64.8955C80.5615 65.2881 80.7373 65.7568 80.7373 66.3018C80.7373 67.1748 80.415 67.8428 79.7705 68.3057C79.1318 68.7686 78.2266 69 77.0547 69H72.7568ZM74.3828 64.8252V67.6904H77.0723C77.752 67.6904 78.2588 67.5645 78.5928 67.3125C78.9326 67.0605 79.1025 66.7061 79.1025 66.249C79.1025 65.2998 78.4053 64.8252 77.0107 64.8252H74.3828ZM74.3828 63.5244H76.4834C78.0068 63.5244 78.7686 63.0791 78.7686 62.1885C78.7686 61.2979 78.0479 60.8379 76.6064 60.8086H74.3828V63.5244ZM89.043 59.4902H90.6689V69H89.043V62.0654L84.6572 69H83.0312V59.4902H84.6572V66.4336L89.043 59.4902ZM97.0938 67.8486C97.6738 67.8486 98.1807 67.6729 98.6143 67.3213C99.0479 66.9697 99.2881 66.5303 99.335 66.0029H100.873C100.844 66.5479 100.656 67.0664 100.311 67.5586C99.9648 68.0508 99.502 68.4434 98.9219 68.7363C98.3477 69.0293 97.7383 69.1758 97.0938 69.1758C95.7988 69.1758 94.7676 68.7451 94 67.8838C93.2383 67.0166 92.8574 65.833 92.8574 64.333V64.0605C92.8574 63.1348 93.0273 62.3115 93.3672 61.5908C93.707 60.8701 94.1934 60.3105 94.8262 59.9121C95.4648 59.5137 96.2178 59.3145 97.085 59.3145C98.1514 59.3145 99.0361 59.6338 99.7393 60.2725C100.448 60.9111 100.826 61.7402 100.873 62.7598H99.335C99.2881 62.1445 99.0537 61.6406 98.6318 61.248C98.2158 60.8496 97.7002 60.6504 97.085 60.6504C96.2588 60.6504 95.6172 60.9492 95.1602 61.5469C94.709 62.1387 94.4834 62.9971 94.4834 64.1221V64.4297C94.4834 65.5254 94.709 66.3691 95.1602 66.9609C95.6113 67.5527 96.2559 67.8486 97.0938 67.8486ZM107.087 67.6729L107.649 66.9785C108.282 66.1582 108.643 64.9277 108.73 63.2871L108.88 59.4902H115.006V67.6729H116.228V71.7949H114.602V69H107.966V71.7949H106.34L106.349 67.6729H107.087ZM109.012 67.6729H113.38V60.9932H110.453L110.356 63.2607C110.257 65.1533 109.809 66.624 109.012 67.6729ZM125.825 59.4902V69H124.19V60.835H120.956L120.763 64.3945C120.657 66.0293 120.382 67.1982 119.937 67.9014C119.497 68.6045 118.797 68.9707 117.836 69H117.186V67.5674L117.651 67.5322C118.179 67.4736 118.557 67.1689 118.785 66.6182C119.014 66.0674 119.16 65.0479 119.225 63.5596L119.4 59.4902H125.825ZM135.704 59.4902V69H134.069V65.2998H131.617L129.376 69H127.618L130.009 65.0537C129.399 64.8311 128.931 64.4883 128.603 64.0254C128.28 63.5566 128.119 63.0117 128.119 62.3906C128.119 61.5234 128.444 60.8262 129.095 60.2988C129.745 59.7656 130.615 59.4961 131.705 59.4902H135.704ZM129.754 62.4082C129.754 62.8711 129.912 63.2461 130.229 63.5332C130.545 63.8145 130.964 63.958 131.485 63.9639H134.069V60.8086H131.731C131.128 60.8086 130.647 60.958 130.29 61.2568C129.933 61.5498 129.754 61.9336 129.754 62.4082ZM146.954 60.0352C148.149 60.0352 149.104 60.4365 149.819 61.2393C150.54 62.0361 150.9 63.0879 150.9 64.3945V64.5439C150.9 65.4404 150.728 66.2432 150.382 66.9521C150.036 67.6553 149.538 68.2031 148.888 68.5957C148.243 68.9824 147.499 69.1758 146.655 69.1758C145.378 69.1758 144.35 68.751 143.57 67.9014C142.791 67.0459 142.401 65.9004 142.401 64.4648V63.6738C142.401 61.6758 142.771 60.0879 143.509 58.9102C144.253 57.7324 145.349 57.0146 146.796 56.7568C147.616 56.6104 148.17 56.4316 148.457 56.2207C148.744 56.0098 148.888 55.7197 148.888 55.3506H150.224C150.224 56.083 150.057 56.6543 149.723 57.0645C149.395 57.4746 148.867 57.7646 148.141 57.9346L146.928 58.207C145.961 58.4355 145.234 58.8223 144.748 59.3672C144.268 59.9062 143.954 60.627 143.808 61.5293C144.669 60.5332 145.718 60.0352 146.954 60.0352ZM146.638 61.3711C145.841 61.3711 145.208 61.6406 144.739 62.1797C144.271 62.7129 144.036 63.4541 144.036 64.4033V64.5439C144.036 65.5635 144.271 66.3721 144.739 66.9697C145.214 67.5615 145.853 67.8574 146.655 67.8574C147.464 67.8574 148.103 67.5586 148.571 66.9609C149.04 66.3633 149.274 65.4902 149.274 64.3418C149.274 63.4453 149.037 62.7275 148.562 62.1885C148.094 61.6436 147.452 61.3711 146.638 61.3711ZM158.723 59.4902H160.349V69H158.723V62.0654L154.337 69H152.711V59.4902H154.337V66.4336L158.723 59.4902ZM168.188 62.0918C168.188 61.6465 168.019 61.2949 167.679 61.0371C167.339 60.7734 166.873 60.6416 166.281 60.6416C165.707 60.6416 165.227 60.791 164.84 61.0898C164.459 61.3887 164.269 61.7402 164.269 62.1445H162.651C162.651 61.3184 162.997 60.6416 163.688 60.1143C164.38 59.5869 165.244 59.3232 166.281 59.3232C167.395 59.3232 168.262 59.5635 168.883 60.0439C169.504 60.5186 169.814 61.1982 169.814 62.083C169.814 62.5107 169.686 62.9033 169.428 63.2607C169.17 63.6182 168.804 63.9023 168.329 64.1133C169.437 64.4883 169.99 65.2266 169.99 66.3281C169.99 67.2012 169.653 67.8926 168.979 68.4023C168.306 68.9121 167.406 69.167 166.281 69.167C165.186 69.167 164.28 68.9004 163.565 68.3672C162.856 67.8281 162.502 67.1016 162.502 66.1875H164.119C164.119 66.6504 164.324 67.0488 164.734 67.3828C165.15 67.7109 165.666 67.875 166.281 67.875C166.902 67.875 167.403 67.7314 167.784 67.4443C168.165 67.1572 168.355 66.7852 168.355 66.3281C168.355 65.7949 168.194 65.4141 167.872 65.1855C167.556 64.9512 167.061 64.834 166.387 64.834H164.761V63.4629H166.527C167.635 63.4336 168.188 62.9766 168.188 62.0918ZM179.869 69H178.243V64.9395H173.875V69H172.24V59.4902H173.875V63.6123H178.243V59.4902H179.869V69ZM186.435 69.1758C185.146 69.1758 184.097 68.7539 183.288 67.9102C182.479 67.0605 182.075 65.9268 182.075 64.5088V64.21C182.075 63.2666 182.254 62.4258 182.611 61.6875C182.975 60.9434 183.479 60.3633 184.123 59.9473C184.773 59.5254 185.477 59.3145 186.232 59.3145C187.469 59.3145 188.43 59.7217 189.115 60.5361C189.801 61.3506 190.144 62.5166 190.144 64.0342V64.7109H183.701C183.725 65.6484 183.997 66.4072 184.519 66.9873C185.046 67.5615 185.714 67.8486 186.522 67.8486C187.097 67.8486 187.583 67.7314 187.981 67.4971C188.38 67.2627 188.729 66.9521 189.027 66.5654L190.021 67.3389C189.224 68.5635 188.028 69.1758 186.435 69.1758ZM186.232 60.6504C185.576 60.6504 185.025 60.8906 184.58 61.3711C184.135 61.8457 183.859 62.5137 183.754 63.375H188.518V63.252C188.471 62.4258 188.248 61.7871 187.85 61.3359C187.451 60.8789 186.912 60.6504 186.232 60.6504ZM195.848 67.8486C196.428 67.8486 196.935 67.6729 197.368 67.3213C197.802 66.9697 198.042 66.5303 198.089 66.0029H199.627C199.598 66.5479 199.41 67.0664 199.064 67.5586C198.719 68.0508 198.256 68.4434 197.676 68.7363C197.102 69.0293 196.492 69.1758 195.848 69.1758C194.553 69.1758 193.521 68.7451 192.754 67.8838C191.992 67.0166 191.611 65.833 191.611 64.333V64.0605C191.611 63.1348 191.781 62.3115 192.121 61.5908C192.461 60.8701 192.947 60.3105 193.58 59.9121C194.219 59.5137 194.972 59.3145 195.839 59.3145C196.905 59.3145 197.79 59.6338 198.493 60.2725C199.202 60.9111 199.58 61.7402 199.627 62.7598H198.089C198.042 62.1445 197.808 61.6406 197.386 61.248C196.97 60.8496 196.454 60.6504 195.839 60.6504C195.013 60.6504 194.371 60.9492 193.914 61.5469C193.463 62.1387 193.237 62.9971 193.237 64.1221V64.4297C193.237 65.5254 193.463 66.3691 193.914 66.9609C194.365 67.5527 195.01 67.8486 195.848 67.8486ZM207.326 69C207.232 68.8125 207.156 68.4785 207.098 67.998C206.342 68.7832 205.439 69.1758 204.391 69.1758C203.453 69.1758 202.683 68.9121 202.079 68.3848C201.481 67.8516 201.183 67.1777 201.183 66.3633C201.183 65.373 201.558 64.6055 202.308 64.0605C203.063 63.5098 204.124 63.2344 205.489 63.2344H207.071V62.4873C207.071 61.9189 206.901 61.4678 206.562 61.1338C206.222 60.7939 205.721 60.624 205.059 60.624C204.479 60.624 203.992 60.7705 203.6 61.0635C203.207 61.3564 203.011 61.7109 203.011 62.127H201.376C201.376 61.6523 201.543 61.1953 201.877 60.7559C202.217 60.3105 202.674 59.959 203.248 59.7012C203.828 59.4434 204.464 59.3145 205.155 59.3145C206.251 59.3145 207.109 59.5898 207.73 60.1406C208.352 60.6855 208.674 61.4385 208.697 62.3994V66.7764C208.697 67.6494 208.809 68.3438 209.031 68.8594V69H207.326ZM204.628 67.7607C205.138 67.7607 205.621 67.6289 206.078 67.3652C206.535 67.1016 206.866 66.7588 207.071 66.3369V64.3857H205.797C203.805 64.3857 202.809 64.9688 202.809 66.1348C202.809 66.6445 202.979 67.043 203.318 67.3301C203.658 67.6172 204.095 67.7607 204.628 67.7607Z" fill="#3E3E41"/>
<rect y="48" width="30" height="30" rx="10" fill="#9A7C88"/>
</svg>
